G75*
%MOIN*%
%OFA0B0*%
%FSLAX24Y24*%
%IPPOS*%
%LPD*%
%AMOC8*
5,1,8,0,0,1.08239X$1,22.5*
%
%ADD10R,0.0394X0.0433*%
%ADD11OC8,0.0740*%
%ADD12R,0.0315X0.0315*%
%ADD13R,0.0480X0.0880*%
%ADD14R,0.1417X0.0866*%
%ADD15R,0.0870X0.0240*%
%ADD16C,0.0600*%
%ADD17C,0.0740*%
%ADD18C,0.0660*%
%ADD19R,0.0500X0.0220*%
%ADD20R,0.0220X0.0500*%
%ADD21R,0.0551X0.0394*%
%ADD22R,0.0433X0.0394*%
%ADD23R,0.0335X0.0177*%
%ADD24R,0.0630X0.0984*%
%ADD25R,0.0945X0.0591*%
%ADD26C,0.0160*%
%ADD27C,0.0340*%
%ADD28C,0.0120*%
D10*
X013333Y007665D03*
X013333Y008335D03*
X022333Y011165D03*
X022333Y011835D03*
X023333Y013665D03*
X023333Y014335D03*
X023583Y016665D03*
X023583Y017335D03*
X022433Y017335D03*
X022433Y016665D03*
X013833Y022165D03*
X013833Y022835D03*
X011833Y022835D03*
X011833Y022165D03*
D11*
X013333Y012500D03*
X014333Y012500D03*
X014333Y011500D03*
X013333Y011500D03*
X013333Y010500D03*
X014333Y010500D03*
D12*
X014538Y007500D03*
X015129Y007500D03*
D13*
X019423Y021780D03*
X020333Y021780D03*
X021243Y021780D03*
X022923Y021780D03*
X023833Y021780D03*
X024743Y021780D03*
D14*
X023833Y024220D03*
X020333Y024220D03*
D15*
X013863Y021250D03*
X013863Y020750D03*
X013863Y020250D03*
X013863Y019750D03*
X011803Y019750D03*
X011803Y020250D03*
X011803Y020750D03*
X011803Y021250D03*
D16*
X008503Y021224D03*
X008503Y020437D03*
X008503Y019650D03*
X008503Y018862D03*
X008503Y018075D03*
X008503Y017287D03*
X008503Y022012D03*
X008503Y022799D03*
X008503Y023587D03*
X008503Y024374D03*
X017164Y024374D03*
X017164Y023587D03*
X017164Y022799D03*
X017164Y022012D03*
X017164Y021224D03*
X017164Y020437D03*
X017164Y019650D03*
X017164Y018862D03*
X017164Y018075D03*
X017164Y017287D03*
D17*
X010333Y011500D03*
X010333Y010500D03*
X019333Y007500D03*
X020333Y007500D03*
X021333Y007500D03*
D18*
X023546Y009000D03*
X025121Y009000D03*
D19*
X020023Y010398D03*
X020023Y010713D03*
X020023Y011028D03*
X020023Y011343D03*
X020023Y011657D03*
X020023Y011972D03*
X020023Y012287D03*
X020023Y012602D03*
X016643Y012602D03*
X016643Y012287D03*
X016643Y011972D03*
X016643Y011657D03*
X016643Y011343D03*
X016643Y011028D03*
X016643Y010713D03*
X016643Y010398D03*
D20*
X017231Y009810D03*
X017546Y009810D03*
X017861Y009810D03*
X018176Y009810D03*
X018491Y009810D03*
X018806Y009810D03*
X019121Y009810D03*
X019436Y009810D03*
X019436Y013190D03*
X019121Y013190D03*
X018806Y013190D03*
X018491Y013190D03*
X018176Y013190D03*
X017861Y013190D03*
X017546Y013190D03*
X017231Y013190D03*
D21*
X020550Y016576D03*
X020550Y017324D03*
X021416Y016950D03*
X024600Y016626D03*
X024600Y017374D03*
X025466Y017000D03*
D22*
X025668Y015500D03*
X024999Y015500D03*
X023668Y015500D03*
X022999Y015500D03*
D23*
X023762Y011894D03*
X023762Y011500D03*
X023762Y011106D03*
X024904Y011106D03*
X024904Y011500D03*
X024904Y011894D03*
D24*
X024333Y011500D03*
D25*
X023833Y018594D03*
X021833Y018594D03*
X019833Y018594D03*
X019833Y020406D03*
X021833Y020406D03*
X023833Y020406D03*
D26*
X005063Y027640D02*
X005063Y004730D01*
X026595Y004730D01*
X026595Y027640D01*
X005063Y027640D01*
X005063Y027483D02*
X026595Y027483D01*
X026595Y027324D02*
X025860Y027324D01*
X025826Y027353D02*
X025826Y027353D01*
X026088Y027133D01*
X026088Y027133D01*
X026259Y026837D01*
X026259Y026837D01*
X026318Y026500D01*
X026318Y026500D01*
X026259Y026163D01*
X026259Y026163D01*
X026088Y025867D01*
X026088Y025867D01*
X026088Y025867D01*
X025826Y025647D01*
X025826Y025647D01*
X025504Y025530D01*
X025286Y025530D01*
X025162Y025530D01*
X024841Y025647D01*
X024841Y025647D01*
X024579Y025867D01*
X024579Y025867D01*
X024408Y026163D01*
X024408Y026163D01*
X024348Y026500D01*
X024348Y026500D01*
X024408Y026837D01*
X024408Y026837D01*
X024579Y027133D01*
X024579Y027133D01*
X024841Y027353D01*
X024841Y027353D01*
X025162Y027470D01*
X025504Y027470D01*
X025826Y027353D01*
X026049Y027166D02*
X026595Y027166D01*
X026595Y027007D02*
X026161Y027007D01*
X026252Y026849D02*
X026595Y026849D01*
X026595Y026690D02*
X026285Y026690D01*
X026313Y026532D02*
X026595Y026532D01*
X026595Y026373D02*
X026296Y026373D01*
X026268Y026215D02*
X026595Y026215D01*
X026595Y026056D02*
X026197Y026056D01*
X026106Y025898D02*
X026595Y025898D01*
X026595Y025739D02*
X025935Y025739D01*
X025643Y025581D02*
X026595Y025581D01*
X026595Y025422D02*
X024307Y025422D01*
X024449Y025280D02*
X023992Y025737D01*
X023889Y025780D01*
X019278Y025780D01*
X019175Y025737D01*
X019096Y025659D01*
X018096Y024659D01*
X018053Y024556D01*
X018053Y020944D01*
X018096Y020841D01*
X018175Y020763D01*
X018532Y020406D01*
X018096Y019970D01*
X018053Y019867D01*
X018053Y016743D01*
X018020Y016710D01*
X017963Y016574D01*
X017963Y016426D01*
X018020Y016290D01*
X018124Y016186D01*
X018260Y016130D01*
X018407Y016130D01*
X018543Y016186D01*
X018647Y016290D01*
X018703Y016426D01*
X018703Y016574D01*
X018647Y016710D01*
X018613Y016743D01*
X018613Y019695D01*
X019044Y020126D01*
X019161Y020126D01*
X019161Y020027D01*
X019278Y019910D01*
X020389Y019910D01*
X020506Y020027D01*
X020506Y020432D01*
X020596Y020341D01*
X020675Y020263D01*
X020778Y020220D01*
X021161Y020220D01*
X021161Y020027D01*
X021278Y019910D01*
X022389Y019910D01*
X022472Y019994D01*
X022573Y019892D01*
X022573Y017842D01*
X022482Y017751D01*
X022154Y017751D01*
X022036Y017634D01*
X022036Y017595D01*
X021026Y017595D01*
X021026Y017604D01*
X020909Y017721D01*
X020192Y017721D01*
X020075Y017604D01*
X020075Y017044D01*
X020169Y016950D01*
X020075Y016856D01*
X020075Y016836D01*
X019489Y016836D01*
X019407Y016870D01*
X019260Y016870D01*
X019124Y016814D01*
X019020Y016710D01*
X018963Y016574D01*
X018963Y016426D01*
X019020Y016290D01*
X019124Y016186D01*
X019260Y016130D01*
X019407Y016130D01*
X019543Y016186D01*
X019647Y016290D01*
X019658Y016316D01*
X020075Y016316D01*
X020075Y016296D01*
X020192Y016179D01*
X020909Y016179D01*
X021026Y016296D01*
X021026Y016585D01*
X021058Y016553D01*
X021156Y016553D01*
X021156Y015891D01*
X020703Y015438D01*
X020703Y015574D01*
X020647Y015710D01*
X020543Y015814D01*
X020407Y015870D01*
X020260Y015870D01*
X020124Y015814D01*
X020070Y015760D01*
X019597Y015760D01*
X019543Y015814D01*
X019407Y015870D01*
X019260Y015870D01*
X019124Y015814D01*
X019020Y015710D01*
X018963Y015574D01*
X018963Y015426D01*
X019020Y015290D01*
X019113Y015197D01*
X018585Y014670D01*
X018549Y014583D01*
X018497Y014710D01*
X018393Y014814D01*
X018257Y014870D01*
X018121Y014870D01*
X018121Y015524D01*
X018081Y015620D01*
X017554Y016147D01*
X017481Y016220D01*
X017385Y016260D01*
X016941Y016260D01*
X016093Y017108D01*
X016093Y019987D01*
X016147Y020040D01*
X016203Y020176D01*
X016203Y020324D01*
X016147Y020460D01*
X016043Y020564D01*
X015907Y020620D01*
X015760Y020620D01*
X015624Y020564D01*
X015555Y020495D01*
X015554Y020497D01*
X015154Y020897D01*
X015081Y020970D01*
X014985Y021010D01*
X014461Y021010D01*
X014498Y021047D01*
X014498Y021453D01*
X014381Y021570D01*
X014279Y021570D01*
X014279Y021720D01*
X015389Y021720D01*
X015492Y021763D01*
X015571Y021841D01*
X016071Y022341D01*
X016113Y022444D01*
X016113Y024257D01*
X016147Y024290D01*
X016203Y024426D01*
X016203Y024574D01*
X016147Y024710D01*
X016043Y024814D01*
X015907Y024870D01*
X015760Y024870D01*
X015624Y024814D01*
X015520Y024710D01*
X015463Y024574D01*
X015463Y024426D01*
X015520Y024290D01*
X015553Y024257D01*
X015553Y022616D01*
X015217Y022280D01*
X014230Y022280D01*
X014230Y022465D01*
X014179Y022516D01*
X014198Y022549D01*
X014210Y022594D01*
X014210Y022816D01*
X013852Y022816D01*
X013852Y022853D01*
X014210Y022853D01*
X014210Y023075D01*
X014198Y023121D01*
X014174Y023162D01*
X014141Y023195D01*
X014100Y023219D01*
X014054Y023231D01*
X013932Y023231D01*
X016941Y026240D01*
X017226Y026240D01*
X017963Y025502D01*
X017963Y025426D01*
X018020Y025290D01*
X018124Y025186D01*
X018260Y025130D01*
X018407Y025130D01*
X018543Y025186D01*
X018647Y025290D01*
X018703Y025426D01*
X018703Y025574D01*
X018647Y025710D01*
X018543Y025814D01*
X018407Y025870D01*
X018331Y025870D01*
X017481Y026720D01*
X017385Y026760D01*
X016782Y026760D01*
X016686Y026720D01*
X016613Y026647D01*
X013226Y023260D01*
X012782Y023260D01*
X012686Y023220D01*
X012613Y023147D01*
X012210Y022745D01*
X012210Y022816D01*
X011852Y022816D01*
X011852Y022853D01*
X012210Y022853D01*
X012210Y023075D01*
X012198Y023121D01*
X012174Y023162D01*
X012141Y023195D01*
X012100Y023219D01*
X012054Y023231D01*
X011852Y023231D01*
X011852Y022853D01*
X011815Y022853D01*
X011815Y022816D01*
X011456Y022816D01*
X011456Y022594D01*
X011469Y022549D01*
X011488Y022516D01*
X011436Y022465D01*
X011436Y022445D01*
X010784Y022445D01*
X010113Y023116D01*
X010113Y024056D01*
X010071Y024159D01*
X009571Y024659D01*
X009492Y024737D01*
X009389Y024780D01*
X008804Y024780D01*
X008786Y024798D01*
X008602Y024874D01*
X008403Y024874D01*
X008219Y024798D01*
X008079Y024657D01*
X008003Y024473D01*
X008003Y024275D01*
X008079Y024091D01*
X008189Y023980D01*
X008079Y023870D01*
X008003Y023686D01*
X008003Y023487D01*
X008079Y023303D01*
X008189Y023193D01*
X008079Y023082D01*
X008003Y022899D01*
X008003Y022700D01*
X008079Y022516D01*
X008189Y022406D01*
X008079Y022295D01*
X008003Y022111D01*
X008003Y021912D01*
X008079Y021729D01*
X008189Y021618D01*
X005063Y021618D01*
X005063Y021460D02*
X008059Y021460D01*
X008079Y021508D02*
X008003Y021324D01*
X008003Y021125D01*
X008079Y020941D01*
X008189Y020831D01*
X008079Y020720D01*
X008003Y020536D01*
X008003Y020338D01*
X008079Y020154D01*
X008189Y020043D01*
X008079Y019933D01*
X008003Y019749D01*
X008003Y019550D01*
X008079Y019366D01*
X008189Y019256D01*
X008079Y019145D01*
X008003Y018962D01*
X008003Y018763D01*
X008079Y018579D01*
X008189Y018469D01*
X008079Y018358D01*
X008003Y018174D01*
X008003Y017975D01*
X008079Y017792D01*
X008205Y017665D01*
X008190Y017654D01*
X008137Y017600D01*
X008092Y017539D01*
X008058Y017472D01*
X008034Y017400D01*
X008023Y017325D01*
X008023Y017287D01*
X008023Y017250D01*
X008034Y017175D01*
X008058Y017103D01*
X008092Y017036D01*
X008137Y016975D01*
X008190Y016921D01*
X008251Y016877D01*
X008318Y016843D01*
X008390Y016819D01*
X008465Y016807D01*
X008503Y016807D01*
X008540Y016807D01*
X008615Y016819D01*
X008687Y016843D01*
X008754Y016877D01*
X008815Y016921D01*
X008869Y016975D01*
X008913Y017036D01*
X008947Y017103D01*
X008971Y017175D01*
X008983Y017250D01*
X008983Y017287D01*
X008503Y017287D01*
X008503Y017287D01*
X008503Y016807D01*
X008503Y017287D01*
X008503Y017287D01*
X008983Y017287D01*
X008983Y017325D01*
X008971Y017400D01*
X008947Y017472D01*
X008913Y017539D01*
X008869Y017600D01*
X008815Y017654D01*
X008800Y017665D01*
X008927Y017792D01*
X009003Y017975D01*
X009003Y018174D01*
X008927Y018358D01*
X008816Y018469D01*
X008927Y018579D01*
X009003Y018763D01*
X009003Y018962D01*
X008927Y019145D01*
X008816Y019256D01*
X008927Y019366D01*
X009003Y019550D01*
X009003Y019749D01*
X008927Y019933D01*
X008816Y020043D01*
X008927Y020154D01*
X009003Y020338D01*
X009003Y020536D01*
X008927Y020720D01*
X008816Y020831D01*
X008927Y020941D01*
X009003Y021125D01*
X009003Y021324D01*
X008927Y021508D01*
X008816Y021618D01*
X008927Y021729D01*
X009003Y021912D01*
X009003Y022111D01*
X008927Y022295D01*
X008816Y022406D01*
X008927Y022516D01*
X008928Y022520D01*
X009317Y022520D01*
X009553Y022284D01*
X009553Y021944D01*
X009596Y021841D01*
X009675Y021763D01*
X010907Y020530D01*
X010699Y020530D01*
X010203Y021026D01*
X010203Y021074D01*
X010147Y021210D01*
X010043Y021314D01*
X009907Y021370D01*
X009760Y021370D01*
X009624Y021314D01*
X009520Y021210D01*
X009463Y021074D01*
X009463Y020926D01*
X009520Y020790D01*
X009624Y020686D01*
X009760Y020630D01*
X009807Y020630D01*
X010425Y020013D01*
X010528Y019970D01*
X011218Y019970D01*
X011201Y019939D01*
X011188Y019894D01*
X011188Y019750D01*
X011803Y019750D01*
X011188Y019750D01*
X011188Y019606D01*
X011201Y019561D01*
X011224Y019519D01*
X011258Y019486D01*
X011299Y019462D01*
X011345Y019450D01*
X011803Y019450D01*
X011803Y019750D01*
X011803Y019750D01*
X011803Y019750D01*
X011803Y019450D01*
X012262Y019450D01*
X012308Y019462D01*
X012349Y019486D01*
X012382Y019519D01*
X012406Y019561D01*
X012418Y019606D01*
X012418Y019750D01*
X012418Y019894D01*
X012406Y019939D01*
X012382Y019981D01*
X012377Y019986D01*
X012438Y020047D01*
X012438Y020453D01*
X012391Y020500D01*
X012438Y020547D01*
X012438Y020953D01*
X012391Y021000D01*
X012438Y021047D01*
X012438Y021453D01*
X012321Y021570D01*
X012113Y021570D01*
X012113Y021749D01*
X012230Y021866D01*
X012230Y022029D01*
X012941Y022740D01*
X013385Y022740D01*
X013456Y022770D01*
X013456Y022594D01*
X013469Y022549D01*
X013488Y022516D01*
X013436Y022465D01*
X013436Y021866D01*
X013554Y021749D01*
X013719Y021749D01*
X013719Y021570D01*
X013345Y021570D01*
X013228Y021453D01*
X013228Y021047D01*
X013275Y021000D01*
X013228Y020953D01*
X013228Y020547D01*
X013275Y020500D01*
X013228Y020453D01*
X013228Y020047D01*
X013290Y019986D01*
X013284Y019981D01*
X013261Y019939D01*
X013248Y019894D01*
X013248Y019750D01*
X013863Y019750D01*
X013248Y019750D01*
X013248Y019606D01*
X013261Y019561D01*
X013284Y019519D01*
X013318Y019486D01*
X013359Y019462D01*
X013405Y019450D01*
X013863Y019450D01*
X013863Y019750D01*
X013863Y019750D01*
X013863Y019750D01*
X013863Y019450D01*
X014322Y019450D01*
X014368Y019462D01*
X014409Y019486D01*
X014442Y019519D01*
X014466Y019561D01*
X014478Y019606D01*
X014478Y019750D01*
X014478Y019864D01*
X014560Y019830D01*
X014707Y019830D01*
X014843Y019886D01*
X014947Y019990D01*
X015003Y020126D01*
X015003Y020274D01*
X014976Y020340D01*
X015073Y020242D01*
X015073Y016948D01*
X015113Y016853D01*
X015186Y016780D01*
X017286Y014680D01*
X017286Y013640D01*
X017038Y013640D01*
X016921Y013523D01*
X016921Y012912D01*
X016310Y012912D01*
X016193Y012795D01*
X016193Y012095D01*
X016213Y012075D01*
X016213Y011972D01*
X016213Y011870D01*
X016193Y011850D01*
X016193Y011465D01*
X016213Y011445D01*
X016213Y011343D01*
X016643Y011343D01*
X016643Y011343D01*
X016213Y011343D01*
X016213Y011288D01*
X015913Y011288D01*
X015593Y011608D01*
X015593Y013052D01*
X015554Y013147D01*
X015054Y013647D01*
X014981Y013720D01*
X014885Y013760D01*
X012782Y013760D01*
X012686Y013720D01*
X012186Y013220D01*
X012113Y013147D01*
X012073Y013052D01*
X012073Y010948D01*
X012113Y010853D01*
X012613Y010353D01*
X012686Y010280D01*
X012782Y010240D01*
X012787Y010240D01*
X013073Y009954D01*
X013073Y008751D01*
X013054Y008751D01*
X012936Y008634D01*
X012936Y008035D01*
X012972Y008000D01*
X012936Y007965D01*
X012936Y007366D01*
X013054Y007249D01*
X013426Y007249D01*
X013447Y007240D01*
X014200Y007240D01*
X014298Y007143D01*
X014778Y007143D01*
X014847Y007212D01*
X014861Y007198D01*
X014902Y007175D01*
X014947Y007163D01*
X015129Y007163D01*
X015310Y007163D01*
X015356Y007175D01*
X015397Y007198D01*
X015430Y007232D01*
X015454Y007273D01*
X015466Y007319D01*
X015466Y007500D01*
X015466Y007681D01*
X015454Y007727D01*
X015430Y007768D01*
X015397Y007802D01*
X015356Y007825D01*
X015310Y007837D01*
X015129Y007837D01*
X015129Y007500D01*
X015466Y007500D01*
X015129Y007500D01*
X015129Y007500D01*
X015129Y007500D01*
X015129Y007163D01*
X015129Y007500D01*
X015129Y007500D01*
X015129Y007837D01*
X014947Y007837D01*
X014902Y007825D01*
X014861Y007802D01*
X014847Y007788D01*
X014778Y007857D01*
X014298Y007857D01*
X014200Y007760D01*
X013730Y007760D01*
X013730Y007965D01*
X013695Y008000D01*
X013730Y008035D01*
X013730Y008634D01*
X013613Y008751D01*
X013593Y008751D01*
X013593Y009954D01*
X013833Y010194D01*
X014097Y009930D01*
X014569Y009930D01*
X014903Y010264D01*
X014903Y010736D01*
X014639Y011000D01*
X014903Y011264D01*
X014903Y011736D01*
X014639Y012000D01*
X014903Y012264D01*
X014903Y012736D01*
X014569Y013070D01*
X014097Y013070D01*
X013819Y012792D01*
X013561Y013050D01*
X013353Y013050D01*
X013353Y012520D01*
X013313Y012520D01*
X013313Y012480D01*
X012783Y012480D01*
X012783Y012272D01*
X013041Y012014D01*
X012763Y011736D01*
X012763Y011264D01*
X013027Y011000D01*
X012864Y010837D01*
X012593Y011108D01*
X012593Y012892D01*
X012941Y013240D01*
X014726Y013240D01*
X015073Y012892D01*
X015073Y011448D01*
X015113Y011353D01*
X015186Y011280D01*
X015658Y010807D01*
X015754Y010768D01*
X016193Y010768D01*
X016193Y010205D01*
X016310Y010088D01*
X016921Y010088D01*
X016921Y009477D01*
X016971Y009427D01*
X016971Y009092D01*
X016963Y009074D01*
X016963Y008926D01*
X016991Y008860D01*
X016841Y008860D01*
X016703Y008998D01*
X016703Y009074D01*
X016647Y009210D01*
X016543Y009314D01*
X016407Y009370D01*
X016260Y009370D01*
X016124Y009314D01*
X016020Y009210D01*
X015998Y009158D01*
X015943Y009214D01*
X015807Y009270D01*
X015660Y009270D01*
X015524Y009214D01*
X015420Y009110D01*
X015363Y008974D01*
X015363Y008826D01*
X015420Y008690D01*
X015524Y008586D01*
X015660Y008530D01*
X015736Y008530D01*
X016286Y007980D01*
X016382Y007940D01*
X018270Y007940D01*
X018324Y007886D01*
X018460Y007830D01*
X018607Y007830D01*
X018743Y007886D01*
X018847Y007990D01*
X018903Y008126D01*
X018903Y008274D01*
X018847Y008410D01*
X018817Y008440D01*
X019285Y008440D01*
X019381Y008480D01*
X019454Y008553D01*
X019656Y008755D01*
X019696Y008851D01*
X019696Y009427D01*
X019746Y009477D01*
X019746Y010088D01*
X020356Y010088D01*
X020406Y010138D01*
X021328Y010138D01*
X022073Y009392D01*
X022073Y007108D01*
X021336Y006370D01*
X021260Y006370D01*
X021124Y006314D01*
X021020Y006210D01*
X020963Y006074D01*
X020963Y005926D01*
X021020Y005790D01*
X021050Y005760D01*
X020593Y005760D01*
X020593Y006991D01*
X020656Y007017D01*
X020817Y007177D01*
X020833Y007218D01*
X020850Y007177D01*
X021010Y007017D01*
X021220Y006930D01*
X021447Y006930D01*
X021656Y007017D01*
X021817Y007177D01*
X021903Y007387D01*
X021903Y007613D01*
X021817Y007823D01*
X021656Y007983D01*
X021447Y008070D01*
X021220Y008070D01*
X021010Y007983D01*
X020850Y007823D01*
X020833Y007782D01*
X020817Y007823D01*
X020656Y007983D01*
X020447Y008070D01*
X020220Y008070D01*
X020010Y007983D01*
X019850Y007823D01*
X019821Y007754D01*
X019804Y007788D01*
X019753Y007858D01*
X019692Y007920D01*
X019622Y007970D01*
X019544Y008010D01*
X019462Y008036D01*
X019377Y008050D01*
X019353Y008050D01*
X019353Y007520D01*
X019313Y007520D01*
X019313Y007480D01*
X018783Y007480D01*
X018783Y007457D01*
X018797Y007371D01*
X018824Y007289D01*
X018863Y007212D01*
X018914Y007142D01*
X018975Y007080D01*
X019045Y007030D01*
X019122Y006990D01*
X019205Y006964D01*
X019290Y006950D01*
X019313Y006950D01*
X019313Y007480D01*
X019353Y007480D01*
X019353Y006950D01*
X019377Y006950D01*
X019462Y006964D01*
X019544Y006990D01*
X019622Y007030D01*
X019692Y007080D01*
X019753Y007142D01*
X019804Y007212D01*
X019821Y007246D01*
X019850Y007177D01*
X020010Y007017D01*
X020073Y006991D01*
X020073Y005448D01*
X020113Y005353D01*
X020186Y005280D01*
X020282Y005240D01*
X021808Y005240D01*
X021833Y005235D01*
X021859Y005240D01*
X021885Y005240D01*
X021909Y005250D01*
X021935Y005255D01*
X021956Y005270D01*
X021981Y005280D01*
X021999Y005298D01*
X023456Y006270D01*
X023481Y006280D01*
X023499Y006298D01*
X023521Y006312D01*
X023535Y006334D01*
X023554Y006353D01*
X023564Y006377D01*
X023578Y006398D01*
X023583Y006424D01*
X023593Y006448D01*
X023593Y006474D01*
X023598Y006500D01*
X023593Y006525D01*
X023593Y008470D01*
X023651Y008470D01*
X023846Y008551D01*
X023995Y008700D01*
X024076Y008895D01*
X024076Y009105D01*
X023995Y009300D01*
X023846Y009449D01*
X023651Y009530D01*
X023441Y009530D01*
X023400Y009513D01*
X023093Y009820D01*
X023093Y009872D01*
X023113Y009853D01*
X023186Y009780D01*
X023282Y009740D01*
X024726Y009740D01*
X024959Y009507D01*
X024821Y009449D01*
X024671Y009300D01*
X024591Y009105D01*
X024591Y008895D01*
X024671Y008700D01*
X024821Y008551D01*
X025015Y008470D01*
X025226Y008470D01*
X025421Y008551D01*
X025570Y008700D01*
X025651Y008895D01*
X025651Y009105D01*
X025593Y009244D01*
X025593Y009552D01*
X025554Y009647D01*
X025481Y009720D01*
X025481Y009720D01*
X025054Y010147D01*
X025054Y010147D01*
X024981Y010220D01*
X024885Y010260D01*
X023441Y010260D01*
X022730Y010971D01*
X022730Y011465D01*
X022679Y011516D01*
X022698Y011549D01*
X022710Y011594D01*
X022710Y011816D01*
X022352Y011816D01*
X022352Y011853D01*
X022710Y011853D01*
X022710Y012075D01*
X022698Y012121D01*
X022674Y012162D01*
X022668Y012168D01*
X022760Y012130D01*
X022836Y012130D01*
X023292Y011673D01*
X023388Y011634D01*
X023421Y011634D01*
X023415Y011612D01*
X023415Y011500D01*
X023762Y011500D01*
X023415Y011500D01*
X023415Y011388D01*
X023427Y011342D01*
X023439Y011322D01*
X023395Y011278D01*
X023395Y010935D01*
X023512Y010818D01*
X023926Y010818D01*
X023936Y010808D01*
X024731Y010808D01*
X024741Y010818D01*
X025154Y010818D01*
X025272Y010935D01*
X025272Y011240D01*
X025535Y011240D01*
X025631Y011280D01*
X025704Y011353D01*
X026304Y011953D01*
X026343Y012048D01*
X026343Y017652D01*
X026304Y017747D01*
X026231Y017820D01*
X026231Y017820D01*
X025831Y018220D01*
X025735Y018260D01*
X024782Y018260D01*
X024686Y018220D01*
X024613Y018147D01*
X024453Y017987D01*
X024380Y017914D01*
X024340Y017819D01*
X024340Y017771D01*
X024242Y017771D01*
X024125Y017654D01*
X024125Y017634D01*
X023980Y017634D01*
X023980Y017634D01*
X023863Y017751D01*
X023304Y017751D01*
X023186Y017634D01*
X023186Y017595D01*
X023057Y017595D01*
X023093Y017683D01*
X023093Y020052D01*
X023054Y020147D01*
X022981Y020220D01*
X022575Y020626D01*
X022506Y020655D01*
X022506Y020784D01*
X022389Y020901D01*
X021278Y020901D01*
X021161Y020784D01*
X021161Y020780D01*
X020949Y020780D01*
X020613Y021116D01*
X020613Y021140D01*
X020656Y021140D01*
X020773Y021257D01*
X020773Y022303D01*
X020656Y022420D01*
X020613Y022420D01*
X020613Y023587D01*
X021125Y023587D01*
X021242Y023704D01*
X021242Y024637D01*
X021260Y024630D01*
X021407Y024630D01*
X021543Y024686D01*
X021553Y024697D01*
X021553Y022420D01*
X020920Y022420D01*
X020803Y022303D01*
X020803Y021257D01*
X020920Y021140D01*
X021566Y021140D01*
X021683Y021257D01*
X021683Y021506D01*
X021772Y021543D01*
X021992Y021763D01*
X022071Y021841D01*
X022113Y021944D01*
X022113Y025220D01*
X023717Y025220D01*
X024084Y024853D01*
X023042Y024853D01*
X022925Y024736D01*
X022925Y023704D01*
X023042Y023587D01*
X023553Y023587D01*
X023553Y022420D01*
X023510Y022420D01*
X023393Y022303D01*
X023393Y021257D01*
X023510Y021140D01*
X023553Y021140D01*
X023553Y020901D01*
X023278Y020901D01*
X023161Y020784D01*
X023161Y020027D01*
X023278Y019910D01*
X024389Y019910D01*
X024506Y020027D01*
X024506Y020126D01*
X024795Y020126D01*
X024827Y020139D01*
X024963Y020002D01*
X024963Y019926D01*
X025020Y019790D01*
X025124Y019686D01*
X025260Y019630D01*
X025407Y019630D01*
X025543Y019686D01*
X025647Y019790D01*
X025703Y019926D01*
X025703Y020074D01*
X025647Y020210D01*
X025543Y020314D01*
X025407Y020370D01*
X025331Y020370D01*
X025215Y020486D01*
X025359Y020630D01*
X025407Y020630D01*
X025543Y020686D01*
X025647Y020790D01*
X025703Y020926D01*
X025703Y021074D01*
X025647Y021210D01*
X025543Y021314D01*
X025407Y021370D01*
X025260Y021370D01*
X025183Y021338D01*
X025183Y021720D01*
X025389Y021720D01*
X025492Y021763D01*
X025571Y021841D01*
X025571Y021841D01*
X026071Y022341D01*
X026113Y022444D01*
X026113Y024056D01*
X026071Y024159D01*
X025992Y024237D01*
X025071Y025159D01*
X024992Y025237D01*
X024889Y025280D01*
X024449Y025280D01*
X024333Y025000D02*
X024833Y025000D01*
X025833Y024000D01*
X025833Y022500D01*
X025333Y022000D01*
X024963Y022000D01*
X024743Y021780D01*
X025183Y021618D02*
X026595Y021618D01*
X026595Y021460D02*
X025183Y021460D01*
X025556Y021301D02*
X026595Y021301D01*
X026595Y021143D02*
X025675Y021143D01*
X025703Y020984D02*
X026595Y020984D01*
X026595Y020826D02*
X025662Y020826D01*
X025496Y020667D02*
X026595Y020667D01*
X026595Y020509D02*
X025238Y020509D01*
X025455Y020350D02*
X026595Y020350D01*
X026595Y020192D02*
X025654Y020192D01*
X025703Y020033D02*
X026595Y020033D01*
X026595Y019875D02*
X025682Y019875D01*
X025573Y019716D02*
X026595Y019716D01*
X026595Y019558D02*
X023093Y019558D01*
X023093Y019716D02*
X025094Y019716D01*
X024985Y019875D02*
X023093Y019875D01*
X023093Y020033D02*
X023161Y020033D01*
X023161Y020192D02*
X023010Y020192D01*
X023161Y020350D02*
X022851Y020350D01*
X022693Y020509D02*
X023161Y020509D01*
X023161Y020667D02*
X022506Y020667D01*
X022464Y020826D02*
X023203Y020826D01*
X023553Y020984D02*
X020745Y020984D01*
X020659Y021143D02*
X020918Y021143D01*
X020803Y021301D02*
X020773Y021301D01*
X020773Y021460D02*
X020803Y021460D01*
X020803Y021618D02*
X020773Y021618D01*
X020773Y021777D02*
X020803Y021777D01*
X020803Y021935D02*
X020773Y021935D01*
X020773Y022094D02*
X020803Y022094D01*
X020803Y022252D02*
X020773Y022252D01*
X020666Y022411D02*
X020911Y022411D01*
X020613Y022569D02*
X021553Y022569D01*
X021553Y022728D02*
X020613Y022728D01*
X020613Y022886D02*
X021553Y022886D01*
X021553Y023045D02*
X020613Y023045D01*
X020613Y023203D02*
X021553Y023203D01*
X021553Y023362D02*
X020613Y023362D01*
X020613Y023520D02*
X021553Y023520D01*
X021553Y023679D02*
X021216Y023679D01*
X021242Y023837D02*
X021553Y023837D01*
X021553Y023996D02*
X021242Y023996D01*
X021242Y024154D02*
X021553Y024154D01*
X021553Y024313D02*
X021242Y024313D01*
X021242Y024471D02*
X021553Y024471D01*
X021553Y024630D02*
X021242Y024630D01*
X020692Y024947D02*
X019176Y024947D01*
X019334Y025105D02*
X020851Y025105D01*
X020966Y025220D02*
X020599Y024853D01*
X019542Y024853D01*
X019425Y024736D01*
X019425Y023704D01*
X019542Y023587D01*
X020053Y023587D01*
X020053Y022420D01*
X020010Y022420D01*
X019893Y022303D01*
X019893Y021257D01*
X020010Y021140D01*
X020053Y021140D01*
X020053Y020944D01*
X020071Y020901D01*
X019278Y020901D01*
X019161Y020784D01*
X019161Y020686D01*
X019044Y020686D01*
X018613Y021116D01*
X018613Y024384D01*
X019449Y025220D01*
X020966Y025220D01*
X021833Y025500D02*
X021833Y022000D01*
X021613Y021780D01*
X021243Y021780D01*
X021683Y021460D02*
X022503Y021460D01*
X022503Y021316D02*
X022516Y021271D01*
X022539Y021229D01*
X022573Y021196D01*
X022614Y021172D01*
X022660Y021160D01*
X022883Y021160D01*
X022883Y021740D01*
X022503Y021740D01*
X022503Y021316D01*
X022507Y021301D02*
X021683Y021301D01*
X021569Y021143D02*
X023508Y021143D01*
X023393Y021301D02*
X023339Y021301D01*
X023343Y021316D02*
X023343Y021740D01*
X022963Y021740D01*
X022963Y021160D01*
X023187Y021160D01*
X023233Y021172D01*
X023274Y021196D01*
X023307Y021229D01*
X023331Y021271D01*
X023343Y021316D01*
X023343Y021460D02*
X023393Y021460D01*
X023393Y021618D02*
X023343Y021618D01*
X023393Y021777D02*
X022963Y021777D01*
X022963Y021740D02*
X022963Y021820D01*
X022883Y021820D01*
X022883Y021740D01*
X022963Y021740D01*
X022963Y021820D02*
X023343Y021820D01*
X023343Y022244D01*
X023331Y022289D01*
X023307Y022331D01*
X023274Y022364D01*
X023233Y022388D01*
X023187Y022400D01*
X022963Y022400D01*
X022963Y021820D01*
X022883Y021820D02*
X022883Y022400D01*
X022660Y022400D01*
X022614Y022388D01*
X022573Y022364D01*
X022539Y022331D01*
X022516Y022289D01*
X022503Y022244D01*
X022503Y021820D01*
X022883Y021820D01*
X022883Y021777D02*
X022006Y021777D01*
X022109Y021935D02*
X022503Y021935D01*
X022503Y022094D02*
X022113Y022094D01*
X022113Y022252D02*
X022506Y022252D01*
X022883Y022252D02*
X022963Y022252D01*
X022963Y022094D02*
X022883Y022094D01*
X022883Y021935D02*
X022963Y021935D01*
X022963Y021618D02*
X022883Y021618D01*
X022883Y021460D02*
X022963Y021460D01*
X022963Y021301D02*
X022883Y021301D01*
X022503Y021618D02*
X021847Y021618D01*
X022113Y022411D02*
X023501Y022411D01*
X023553Y022569D02*
X022113Y022569D01*
X022113Y022728D02*
X023553Y022728D01*
X023553Y022886D02*
X022113Y022886D01*
X022113Y023045D02*
X023553Y023045D01*
X023553Y023203D02*
X022113Y023203D01*
X022113Y023362D02*
X023553Y023362D01*
X023553Y023520D02*
X022113Y023520D01*
X022113Y023679D02*
X022950Y023679D01*
X022925Y023837D02*
X022113Y023837D01*
X022113Y023996D02*
X022925Y023996D01*
X022925Y024154D02*
X022113Y024154D01*
X022113Y024313D02*
X022925Y024313D01*
X022925Y024471D02*
X022113Y024471D01*
X022113Y024630D02*
X022925Y024630D01*
X022977Y024788D02*
X022113Y024788D01*
X022113Y024947D02*
X023991Y024947D01*
X023832Y025105D02*
X022113Y025105D01*
X021833Y025500D02*
X023833Y025500D01*
X024333Y025000D01*
X024149Y025581D02*
X025023Y025581D01*
X024929Y025264D02*
X026595Y025264D01*
X026595Y025105D02*
X025124Y025105D01*
X025071Y025159D02*
X025071Y025159D01*
X025283Y024947D02*
X026595Y024947D01*
X026595Y024788D02*
X025441Y024788D01*
X025600Y024630D02*
X026595Y024630D01*
X026595Y024471D02*
X025758Y024471D01*
X025917Y024313D02*
X026595Y024313D01*
X026595Y024154D02*
X026073Y024154D01*
X025992Y024237D02*
X025992Y024237D01*
X026113Y023996D02*
X026595Y023996D01*
X026595Y023837D02*
X026113Y023837D01*
X026113Y023679D02*
X026595Y023679D01*
X026595Y023520D02*
X026113Y023520D01*
X026113Y023362D02*
X026595Y023362D01*
X026595Y023203D02*
X026113Y023203D01*
X026113Y023045D02*
X026595Y023045D01*
X026595Y022886D02*
X026113Y022886D01*
X026113Y022728D02*
X026595Y022728D01*
X026595Y022569D02*
X026113Y022569D01*
X026099Y022411D02*
X026595Y022411D01*
X026595Y022252D02*
X025981Y022252D01*
X025823Y022094D02*
X026595Y022094D01*
X026595Y021935D02*
X025664Y021935D01*
X025506Y021777D02*
X026595Y021777D01*
X025333Y021000D02*
X024739Y020406D01*
X023833Y020406D01*
X023833Y021780D01*
X023833Y024220D01*
X023988Y025739D02*
X024731Y025739D01*
X024561Y025898D02*
X018303Y025898D01*
X018145Y026056D02*
X024470Y026056D01*
X024399Y026215D02*
X017986Y026215D01*
X017828Y026373D02*
X024371Y026373D01*
X024354Y026532D02*
X017669Y026532D01*
X017511Y026690D02*
X024382Y026690D01*
X024415Y026849D02*
X007252Y026849D01*
X007259Y026837D02*
X007088Y027133D01*
X006826Y027353D01*
X006826Y027353D01*
X006504Y027470D01*
X006162Y027470D01*
X005841Y027353D01*
X005841Y027353D01*
X005579Y027133D01*
X005579Y027133D01*
X005408Y026837D01*
X005348Y026500D01*
X005408Y026163D01*
X005579Y025867D01*
X005579Y025867D01*
X005841Y025647D01*
X006162Y025530D01*
X006286Y025530D01*
X006504Y025530D01*
X006826Y025647D01*
X007088Y025867D01*
X007259Y026163D01*
X007259Y026163D01*
X007318Y026500D01*
X007259Y026837D01*
X007259Y026837D01*
X007285Y026690D02*
X016656Y026690D01*
X016497Y026532D02*
X007313Y026532D01*
X007318Y026500D02*
X007318Y026500D01*
X007296Y026373D02*
X016339Y026373D01*
X016180Y026215D02*
X007268Y026215D01*
X007197Y026056D02*
X016022Y026056D01*
X015863Y025898D02*
X007106Y025898D01*
X007088Y025867D02*
X007088Y025867D01*
X007088Y025867D01*
X006935Y025739D02*
X015705Y025739D01*
X015546Y025581D02*
X006643Y025581D01*
X006826Y025647D02*
X006826Y025647D01*
X006023Y025581D02*
X005063Y025581D01*
X005063Y025739D02*
X005731Y025739D01*
X005561Y025898D02*
X005063Y025898D01*
X005063Y026056D02*
X005470Y026056D01*
X005408Y026163D02*
X005408Y026163D01*
X005399Y026215D02*
X005063Y026215D01*
X005063Y026373D02*
X005371Y026373D01*
X005348Y026500D02*
X005348Y026500D01*
X005354Y026532D02*
X005063Y026532D01*
X005063Y026690D02*
X005382Y026690D01*
X005408Y026837D02*
X005408Y026837D01*
X005415Y026849D02*
X005063Y026849D01*
X005063Y027007D02*
X005506Y027007D01*
X005579Y027133D02*
X005579Y027133D01*
X005617Y027166D02*
X005063Y027166D01*
X005063Y027324D02*
X005806Y027324D01*
X006860Y027324D02*
X024806Y027324D01*
X024617Y027166D02*
X007049Y027166D01*
X007088Y027133D02*
X007088Y027133D01*
X007161Y027007D02*
X024506Y027007D01*
X024579Y027133D02*
X024579Y027133D01*
X021833Y025500D02*
X019333Y025500D01*
X018333Y024500D01*
X018333Y021000D01*
X018928Y020406D01*
X018333Y019811D01*
X018333Y016500D01*
X018081Y016229D02*
X017460Y016229D01*
X017631Y016071D02*
X021156Y016071D01*
X021156Y016229D02*
X020959Y016229D01*
X021026Y016388D02*
X021156Y016388D01*
X021156Y016546D02*
X021026Y016546D01*
X021156Y015912D02*
X017789Y015912D01*
X017948Y015754D02*
X019064Y015754D01*
X018972Y015595D02*
X018092Y015595D01*
X018121Y015437D02*
X018963Y015437D01*
X019032Y015278D02*
X018121Y015278D01*
X018121Y015120D02*
X019035Y015120D01*
X018877Y014961D02*
X018121Y014961D01*
X018404Y014803D02*
X018718Y014803D01*
X018575Y014644D02*
X018524Y014644D01*
X019066Y014415D02*
X019423Y014772D01*
X019423Y014402D01*
X019423Y014298D01*
X019463Y014203D01*
X019663Y014002D01*
X019663Y013926D01*
X019720Y013790D01*
X019824Y013686D01*
X019960Y013630D01*
X020107Y013630D01*
X020243Y013686D01*
X020347Y013790D01*
X020403Y013926D01*
X020403Y014062D01*
X021686Y012780D01*
X021782Y012740D01*
X022550Y012740D01*
X022520Y012710D01*
X022463Y012574D01*
X022463Y012426D01*
X022520Y012290D01*
X022588Y012222D01*
X022554Y012231D01*
X022352Y012231D01*
X022352Y011853D01*
X022315Y011853D01*
X022315Y012231D01*
X022113Y012231D01*
X022067Y012219D01*
X022026Y012195D01*
X022016Y012185D01*
X021981Y012220D01*
X021693Y012508D01*
X021598Y012547D01*
X020473Y012547D01*
X020473Y012795D01*
X020356Y012912D01*
X019746Y012912D01*
X019746Y013523D01*
X019629Y013640D01*
X019066Y013640D01*
X019066Y014415D01*
X019066Y014327D02*
X019423Y014327D01*
X019423Y014486D02*
X019137Y014486D01*
X019295Y014644D02*
X019423Y014644D01*
X019497Y014169D02*
X019066Y014169D01*
X019066Y014010D02*
X019656Y014010D01*
X019694Y013852D02*
X019066Y013852D01*
X019066Y013693D02*
X019817Y013693D01*
X019734Y013535D02*
X020931Y013535D01*
X020773Y013693D02*
X020250Y013693D01*
X020372Y013852D02*
X020614Y013852D01*
X020456Y014010D02*
X020403Y014010D01*
X019746Y013376D02*
X021090Y013376D01*
X021248Y013218D02*
X019746Y013218D01*
X019746Y013059D02*
X021407Y013059D01*
X021565Y012901D02*
X020368Y012901D01*
X020473Y012742D02*
X021777Y012742D01*
X021776Y012425D02*
X022464Y012425D01*
X022467Y012584D02*
X020473Y012584D01*
X020473Y012027D02*
X021438Y012027D01*
X021573Y011892D01*
X021573Y011614D01*
X021584Y011588D01*
X021507Y011620D01*
X021360Y011620D01*
X021224Y011564D01*
X021120Y011460D01*
X021063Y011324D01*
X021063Y011176D01*
X021120Y011040D01*
X021173Y010987D01*
X021173Y010973D01*
X020473Y010973D01*
X020473Y011535D01*
X020453Y011555D01*
X020453Y011657D01*
X020023Y011657D01*
X019593Y011657D01*
X019593Y011555D01*
X019573Y011535D01*
X019573Y011028D01*
X019353Y011248D01*
X019257Y011288D01*
X017593Y011288D01*
X017593Y011552D01*
X017554Y011647D01*
X017481Y011720D01*
X017323Y011878D01*
X017228Y011917D01*
X017073Y011917D01*
X017073Y011972D01*
X016643Y011972D01*
X016213Y011972D01*
X016643Y011972D01*
X016643Y011972D01*
X016643Y011972D01*
X017073Y011972D01*
X017073Y012075D01*
X017093Y012095D01*
X017093Y012740D01*
X019573Y012740D01*
X019573Y011780D01*
X019593Y011760D01*
X019593Y011657D01*
X020023Y011657D01*
X020023Y011657D01*
X020023Y011657D01*
X020453Y011657D01*
X020453Y011760D01*
X020473Y011780D01*
X020473Y012027D01*
X020473Y011950D02*
X021516Y011950D01*
X021573Y011791D02*
X020473Y011791D01*
X020453Y011633D02*
X021573Y011633D01*
X021134Y011474D02*
X020473Y011474D01*
X020473Y011316D02*
X021063Y011316D01*
X021071Y011157D02*
X020473Y011157D01*
X020473Y010999D02*
X021162Y010999D01*
X022315Y011950D02*
X022352Y011950D01*
X022352Y012108D02*
X022315Y012108D01*
X022544Y012267D02*
X021935Y012267D01*
X022701Y012108D02*
X022858Y012108D01*
X022710Y011950D02*
X023016Y011950D01*
X023175Y011791D02*
X022710Y011791D01*
X022710Y011633D02*
X023421Y011633D01*
X023415Y011474D02*
X022721Y011474D01*
X022730Y011316D02*
X023433Y011316D01*
X023395Y011157D02*
X022730Y011157D01*
X022730Y010999D02*
X023395Y010999D01*
X023490Y010840D02*
X022861Y010840D01*
X023020Y010682D02*
X026595Y010682D01*
X026595Y010840D02*
X025177Y010840D01*
X025272Y010999D02*
X026595Y010999D01*
X026595Y011157D02*
X025272Y011157D01*
X025667Y011316D02*
X026595Y011316D01*
X026595Y011474D02*
X025825Y011474D01*
X025984Y011633D02*
X026595Y011633D01*
X026595Y011791D02*
X026142Y011791D01*
X026301Y011950D02*
X026595Y011950D01*
X026595Y012108D02*
X026343Y012108D01*
X026343Y012267D02*
X026595Y012267D01*
X026595Y012425D02*
X026343Y012425D01*
X026343Y012584D02*
X026595Y012584D01*
X026595Y012742D02*
X026343Y012742D01*
X026343Y012901D02*
X026595Y012901D01*
X026595Y013059D02*
X026343Y013059D01*
X026343Y013218D02*
X026595Y013218D01*
X026595Y013376D02*
X026343Y013376D01*
X026343Y013535D02*
X026595Y013535D01*
X026595Y013693D02*
X026343Y013693D01*
X026343Y013852D02*
X026595Y013852D01*
X026595Y014010D02*
X026343Y014010D01*
X026343Y014169D02*
X026595Y014169D01*
X026595Y014327D02*
X026343Y014327D01*
X026343Y014486D02*
X026595Y014486D01*
X026595Y014644D02*
X026343Y014644D01*
X026343Y014803D02*
X026595Y014803D01*
X026595Y014961D02*
X026343Y014961D01*
X026343Y015120D02*
X026595Y015120D01*
X026595Y015278D02*
X026343Y015278D01*
X026343Y015437D02*
X026595Y015437D01*
X026595Y015595D02*
X026343Y015595D01*
X026343Y015754D02*
X026595Y015754D01*
X026595Y015912D02*
X026343Y015912D01*
X026343Y016071D02*
X026595Y016071D01*
X026595Y016229D02*
X026343Y016229D01*
X026343Y016388D02*
X026595Y016388D01*
X026595Y016546D02*
X026343Y016546D01*
X026343Y016705D02*
X026595Y016705D01*
X026595Y016863D02*
X026343Y016863D01*
X026343Y017022D02*
X026595Y017022D01*
X026595Y017180D02*
X026343Y017180D01*
X026343Y017339D02*
X026595Y017339D01*
X026595Y017497D02*
X026343Y017497D01*
X026342Y017656D02*
X026595Y017656D01*
X026595Y017814D02*
X026237Y017814D01*
X026079Y017973D02*
X026595Y017973D01*
X026595Y018131D02*
X025920Y018131D01*
X026595Y018290D02*
X024486Y018290D01*
X024486Y018276D02*
X024486Y018527D01*
X023901Y018527D01*
X023901Y018662D01*
X024486Y018662D01*
X024486Y018913D01*
X024474Y018959D01*
X024450Y019000D01*
X024416Y019034D01*
X024375Y019057D01*
X024329Y019070D01*
X023901Y019070D01*
X023901Y018662D01*
X023766Y018662D01*
X023766Y019070D01*
X023337Y019070D01*
X023291Y019057D01*
X023250Y019034D01*
X023217Y019000D01*
X023193Y018959D01*
X023181Y018913D01*
X023181Y018662D01*
X023766Y018662D01*
X023766Y018527D01*
X023901Y018527D01*
X023901Y018119D01*
X024329Y018119D01*
X024375Y018131D01*
X024416Y018155D01*
X024450Y018189D01*
X024474Y018230D01*
X024486Y018276D01*
X024486Y018448D02*
X026595Y018448D01*
X026595Y018607D02*
X023901Y018607D01*
X023766Y018607D02*
X023093Y018607D01*
X023181Y018527D02*
X023181Y018276D01*
X023193Y018230D01*
X023217Y018189D01*
X023250Y018155D01*
X023291Y018131D01*
X023337Y018119D01*
X023766Y018119D01*
X023766Y018527D01*
X023181Y018527D01*
X023181Y018448D02*
X023093Y018448D01*
X023093Y018290D02*
X023181Y018290D01*
X023093Y018131D02*
X023293Y018131D01*
X023093Y017973D02*
X024438Y017973D01*
X024453Y017987D02*
X024453Y017987D01*
X024374Y018131D02*
X024597Y018131D01*
X024613Y018147D02*
X024613Y018147D01*
X024340Y017814D02*
X023093Y017814D01*
X023082Y017656D02*
X023208Y017656D01*
X022545Y017814D02*
X018613Y017814D01*
X018613Y017656D02*
X020126Y017656D01*
X020075Y017497D02*
X018613Y017497D01*
X018613Y017339D02*
X020075Y017339D01*
X020075Y017180D02*
X018613Y017180D01*
X018613Y017022D02*
X020097Y017022D01*
X020082Y016863D02*
X019424Y016863D01*
X019243Y016863D02*
X018613Y016863D01*
X018649Y016705D02*
X019018Y016705D01*
X018963Y016546D02*
X018703Y016546D01*
X018687Y016388D02*
X018979Y016388D01*
X019081Y016229D02*
X018586Y016229D01*
X017979Y016388D02*
X016814Y016388D01*
X016655Y016546D02*
X017963Y016546D01*
X018018Y016705D02*
X016497Y016705D01*
X016338Y016863D02*
X016882Y016863D01*
X016881Y016864D02*
X017065Y016787D01*
X017263Y016787D01*
X017447Y016864D01*
X017588Y017004D01*
X017664Y017188D01*
X017664Y017387D01*
X017588Y017571D01*
X017477Y017681D01*
X017588Y017792D01*
X017664Y017975D01*
X017664Y018174D01*
X017588Y018358D01*
X017477Y018469D01*
X017588Y018579D01*
X017664Y018763D01*
X017664Y018962D01*
X017588Y019145D01*
X017477Y019256D01*
X017588Y019366D01*
X017664Y019550D01*
X017664Y019749D01*
X017588Y019933D01*
X017477Y020043D01*
X017588Y020154D01*
X017664Y020338D01*
X017664Y020536D01*
X017588Y020720D01*
X017477Y020831D01*
X017588Y020941D01*
X017664Y021125D01*
X017664Y021324D01*
X017588Y021508D01*
X017477Y021618D01*
X017588Y021729D01*
X017664Y021912D01*
X017664Y022111D01*
X017588Y022295D01*
X017477Y022406D01*
X017588Y022516D01*
X017664Y022700D01*
X017664Y022899D01*
X017588Y023082D01*
X017477Y023193D01*
X017588Y023303D01*
X017664Y023487D01*
X017664Y023686D01*
X017588Y023870D01*
X017477Y023980D01*
X017588Y024091D01*
X017664Y024275D01*
X017664Y024473D01*
X017588Y024657D01*
X017447Y024798D01*
X017263Y024874D01*
X017065Y024874D01*
X016881Y024798D01*
X016740Y024657D01*
X016664Y024473D01*
X016664Y024275D01*
X016740Y024091D01*
X016851Y023980D01*
X016740Y023870D01*
X016664Y023686D01*
X016664Y023487D01*
X016740Y023303D01*
X016851Y023193D01*
X016740Y023082D01*
X016664Y022899D01*
X016664Y022700D01*
X016740Y022516D01*
X016851Y022406D01*
X016740Y022295D01*
X016664Y022111D01*
X016664Y021912D01*
X016740Y021729D01*
X016851Y021618D01*
X016740Y021508D01*
X016664Y021324D01*
X016664Y021125D01*
X016740Y020941D01*
X016851Y020831D01*
X016740Y020720D01*
X016664Y020536D01*
X016664Y020338D01*
X016740Y020154D01*
X016851Y020043D01*
X016740Y019933D01*
X016664Y019749D01*
X016664Y019550D01*
X016740Y019366D01*
X016851Y019256D01*
X016740Y019145D01*
X016664Y018962D01*
X016664Y018763D01*
X016740Y018579D01*
X016851Y018469D01*
X016740Y018358D01*
X016664Y018174D01*
X016664Y017975D01*
X016740Y017792D01*
X016851Y017681D01*
X016740Y017571D01*
X016664Y017387D01*
X016664Y017188D01*
X016740Y017004D01*
X016881Y016864D01*
X016733Y017022D02*
X016180Y017022D01*
X016093Y017180D02*
X016667Y017180D01*
X016664Y017339D02*
X016093Y017339D01*
X016093Y017497D02*
X016710Y017497D01*
X016825Y017656D02*
X016093Y017656D01*
X016093Y017814D02*
X016731Y017814D01*
X016665Y017973D02*
X016093Y017973D01*
X016093Y018131D02*
X016664Y018131D01*
X016712Y018290D02*
X016093Y018290D01*
X016093Y018448D02*
X016830Y018448D01*
X016729Y018607D02*
X016093Y018607D01*
X016093Y018765D02*
X016664Y018765D01*
X016664Y018924D02*
X016093Y018924D01*
X016093Y019082D02*
X016714Y019082D01*
X016835Y019241D02*
X016093Y019241D01*
X016093Y019399D02*
X016727Y019399D01*
X016664Y019558D02*
X016093Y019558D01*
X016093Y019716D02*
X016664Y019716D01*
X016716Y019875D02*
X016093Y019875D01*
X016140Y020033D02*
X016840Y020033D01*
X016725Y020192D02*
X016203Y020192D01*
X016192Y020350D02*
X016664Y020350D01*
X016664Y020509D02*
X016098Y020509D01*
X015569Y020509D02*
X015543Y020509D01*
X015384Y020667D02*
X016718Y020667D01*
X016845Y020826D02*
X015226Y020826D01*
X015048Y020984D02*
X016722Y020984D01*
X016664Y021143D02*
X014498Y021143D01*
X014498Y021301D02*
X016664Y021301D01*
X016720Y021460D02*
X014492Y021460D01*
X014279Y021618D02*
X016851Y021618D01*
X016720Y021777D02*
X015506Y021777D01*
X015664Y021935D02*
X016664Y021935D01*
X016664Y022094D02*
X015823Y022094D01*
X015981Y022252D02*
X016722Y022252D01*
X016846Y022411D02*
X016099Y022411D01*
X016113Y022569D02*
X016718Y022569D01*
X016664Y022728D02*
X016113Y022728D01*
X016113Y022886D02*
X016664Y022886D01*
X016724Y023045D02*
X016113Y023045D01*
X016113Y023203D02*
X016841Y023203D01*
X016716Y023362D02*
X016113Y023362D01*
X016113Y023520D02*
X016664Y023520D01*
X016664Y023679D02*
X016113Y023679D01*
X016113Y023837D02*
X016727Y023837D01*
X016835Y023996D02*
X016113Y023996D01*
X016113Y024154D02*
X016714Y024154D01*
X016664Y024313D02*
X016156Y024313D01*
X016203Y024471D02*
X016664Y024471D01*
X016729Y024630D02*
X016180Y024630D01*
X016069Y024788D02*
X016871Y024788D01*
X017457Y024788D02*
X018225Y024788D01*
X018084Y024630D02*
X017599Y024630D01*
X017664Y024471D02*
X018053Y024471D01*
X018053Y024313D02*
X017664Y024313D01*
X017614Y024154D02*
X018053Y024154D01*
X018053Y023996D02*
X017493Y023996D01*
X017602Y023837D02*
X018053Y023837D01*
X018053Y023679D02*
X017664Y023679D01*
X017664Y023520D02*
X018053Y023520D01*
X018053Y023362D02*
X017612Y023362D01*
X017488Y023203D02*
X018053Y023203D01*
X018053Y023045D02*
X017604Y023045D01*
X017664Y022886D02*
X018053Y022886D01*
X018053Y022728D02*
X017664Y022728D01*
X017610Y022569D02*
X018053Y022569D01*
X018053Y022411D02*
X017482Y022411D01*
X017606Y022252D02*
X018053Y022252D01*
X018053Y022094D02*
X017664Y022094D01*
X017664Y021935D02*
X018053Y021935D01*
X018053Y021777D02*
X017608Y021777D01*
X017478Y021618D02*
X018053Y021618D01*
X018053Y021460D02*
X017608Y021460D01*
X017664Y021301D02*
X018053Y021301D01*
X018053Y021143D02*
X017664Y021143D01*
X017606Y020984D02*
X018053Y020984D01*
X018112Y020826D02*
X017483Y020826D01*
X017610Y020667D02*
X018270Y020667D01*
X018429Y020509D02*
X017664Y020509D01*
X017664Y020350D02*
X018476Y020350D01*
X018318Y020192D02*
X017604Y020192D01*
X017488Y020033D02*
X018159Y020033D01*
X018057Y019875D02*
X017612Y019875D01*
X017664Y019716D02*
X018053Y019716D01*
X018053Y019558D02*
X017664Y019558D01*
X017601Y019399D02*
X018053Y019399D01*
X018053Y019241D02*
X017493Y019241D01*
X017614Y019082D02*
X018053Y019082D01*
X018053Y018924D02*
X017664Y018924D01*
X017664Y018765D02*
X018053Y018765D01*
X018053Y018607D02*
X017599Y018607D01*
X017498Y018448D02*
X018053Y018448D01*
X018053Y018290D02*
X017616Y018290D01*
X017664Y018131D02*
X018053Y018131D01*
X018053Y017973D02*
X017663Y017973D01*
X017597Y017814D02*
X018053Y017814D01*
X018053Y017656D02*
X017503Y017656D01*
X017618Y017497D02*
X018053Y017497D01*
X018053Y017339D02*
X017664Y017339D01*
X017661Y017180D02*
X018053Y017180D01*
X018053Y017022D02*
X017595Y017022D01*
X017446Y016863D02*
X018053Y016863D01*
X018613Y017973D02*
X022573Y017973D01*
X022573Y018131D02*
X022374Y018131D01*
X022375Y018131D02*
X022416Y018155D01*
X022450Y018189D01*
X022474Y018230D01*
X022486Y018276D01*
X022486Y018527D01*
X021901Y018527D01*
X021901Y018662D01*
X022486Y018662D01*
X022486Y018913D01*
X022474Y018959D01*
X022450Y019000D01*
X022416Y019034D01*
X022375Y019057D01*
X022329Y019070D01*
X021901Y019070D01*
X021901Y018662D01*
X021766Y018662D01*
X021766Y019070D01*
X021337Y019070D01*
X021291Y019057D01*
X021250Y019034D01*
X021217Y019000D01*
X021193Y018959D01*
X021181Y018913D01*
X021181Y018662D01*
X021766Y018662D01*
X021766Y018527D01*
X021901Y018527D01*
X021901Y018119D01*
X022329Y018119D01*
X022375Y018131D01*
X022486Y018290D02*
X022573Y018290D01*
X022573Y018448D02*
X022486Y018448D01*
X022573Y018607D02*
X021901Y018607D01*
X021766Y018607D02*
X019901Y018607D01*
X019901Y018662D02*
X020486Y018662D01*
X020486Y018913D01*
X020474Y018959D01*
X020450Y019000D01*
X020416Y019034D01*
X020375Y019057D01*
X020329Y019070D01*
X019901Y019070D01*
X019901Y018662D01*
X019901Y018527D01*
X020486Y018527D01*
X020486Y018276D01*
X020474Y018230D01*
X020450Y018189D01*
X020416Y018155D01*
X020375Y018131D01*
X020329Y018119D01*
X019901Y018119D01*
X019901Y018527D01*
X019766Y018527D01*
X019766Y018119D01*
X019337Y018119D01*
X019291Y018131D01*
X019250Y018155D01*
X019217Y018189D01*
X019193Y018230D01*
X019181Y018276D01*
X019181Y018527D01*
X019766Y018527D01*
X019766Y018662D01*
X019766Y019070D01*
X019337Y019070D01*
X019291Y019057D01*
X019250Y019034D01*
X019217Y019000D01*
X019193Y018959D01*
X019181Y018913D01*
X019181Y018662D01*
X019766Y018662D01*
X019901Y018662D01*
X019901Y018765D02*
X019766Y018765D01*
X019766Y018607D02*
X018613Y018607D01*
X018613Y018765D02*
X019181Y018765D01*
X019184Y018924D02*
X018613Y018924D01*
X018613Y019082D02*
X022573Y019082D01*
X022573Y018924D02*
X022483Y018924D01*
X022486Y018765D02*
X022573Y018765D01*
X022573Y019241D02*
X018613Y019241D01*
X018613Y019399D02*
X022573Y019399D01*
X022573Y019558D02*
X018613Y019558D01*
X018634Y019716D02*
X022573Y019716D01*
X022573Y019875D02*
X018793Y019875D01*
X018951Y020033D02*
X019161Y020033D01*
X018928Y020406D02*
X019833Y020406D01*
X020053Y020984D02*
X018745Y020984D01*
X018613Y021143D02*
X020008Y021143D01*
X019893Y021301D02*
X019839Y021301D01*
X019843Y021316D02*
X019843Y021740D01*
X019463Y021740D01*
X019463Y021160D01*
X019687Y021160D01*
X019733Y021172D01*
X019774Y021196D01*
X019807Y021229D01*
X019831Y021271D01*
X019843Y021316D01*
X019843Y021460D02*
X019893Y021460D01*
X019893Y021618D02*
X019843Y021618D01*
X019893Y021777D02*
X019463Y021777D01*
X019463Y021740D02*
X019463Y021820D01*
X019383Y021820D01*
X019383Y021740D01*
X019003Y021740D01*
X019003Y021316D01*
X019016Y021271D01*
X019039Y021229D01*
X019073Y021196D01*
X019114Y021172D01*
X019160Y021160D01*
X019383Y021160D01*
X019383Y021740D01*
X019463Y021740D01*
X019463Y021820D02*
X019843Y021820D01*
X019843Y022244D01*
X019831Y022289D01*
X019807Y022331D01*
X019774Y022364D01*
X019733Y022388D01*
X019687Y022400D01*
X019463Y022400D01*
X019463Y021820D01*
X019383Y021820D02*
X019383Y022400D01*
X019160Y022400D01*
X019114Y022388D01*
X019073Y022364D01*
X019039Y022331D01*
X019016Y022289D01*
X019003Y022244D01*
X019003Y021820D01*
X019383Y021820D01*
X019383Y021777D02*
X018613Y021777D01*
X018613Y021935D02*
X019003Y021935D01*
X019003Y022094D02*
X018613Y022094D01*
X018613Y022252D02*
X019006Y022252D01*
X019383Y022252D02*
X019463Y022252D01*
X019463Y022094D02*
X019383Y022094D01*
X019383Y021935D02*
X019463Y021935D01*
X019463Y021618D02*
X019383Y021618D01*
X019383Y021460D02*
X019463Y021460D01*
X019463Y021301D02*
X019383Y021301D01*
X019007Y021301D02*
X018613Y021301D01*
X018613Y021460D02*
X019003Y021460D01*
X019003Y021618D02*
X018613Y021618D01*
X018613Y022411D02*
X020001Y022411D01*
X020053Y022569D02*
X018613Y022569D01*
X018613Y022728D02*
X020053Y022728D01*
X020053Y022886D02*
X018613Y022886D01*
X018613Y023045D02*
X020053Y023045D01*
X020053Y023203D02*
X018613Y023203D01*
X018613Y023362D02*
X020053Y023362D01*
X020053Y023520D02*
X018613Y023520D01*
X018613Y023679D02*
X019450Y023679D01*
X019425Y023837D02*
X018613Y023837D01*
X018613Y023996D02*
X019425Y023996D01*
X019425Y024154D02*
X018613Y024154D01*
X018613Y024313D02*
X019425Y024313D01*
X019425Y024471D02*
X018700Y024471D01*
X018859Y024630D02*
X019425Y024630D01*
X019477Y024788D02*
X019017Y024788D01*
X018542Y025105D02*
X015806Y025105D01*
X015648Y024947D02*
X018384Y024947D01*
X018620Y025264D02*
X018701Y025264D01*
X018702Y025422D02*
X018859Y025422D01*
X018700Y025581D02*
X019018Y025581D01*
X019179Y025739D02*
X018618Y025739D01*
X017965Y025422D02*
X016123Y025422D01*
X015965Y025264D02*
X018047Y025264D01*
X017885Y025581D02*
X016282Y025581D01*
X016440Y025739D02*
X017727Y025739D01*
X017568Y025898D02*
X016599Y025898D01*
X016757Y026056D02*
X017410Y026056D01*
X017251Y026215D02*
X016916Y026215D01*
X015388Y025422D02*
X005063Y025422D01*
X005063Y025264D02*
X015229Y025264D01*
X015071Y025105D02*
X005063Y025105D01*
X005063Y024947D02*
X014912Y024947D01*
X014754Y024788D02*
X008796Y024788D01*
X008629Y024500D02*
X008503Y024374D01*
X008629Y024500D02*
X009333Y024500D01*
X009833Y024000D01*
X009833Y023000D01*
X010668Y022165D01*
X011833Y022165D01*
X011833Y021280D01*
X011803Y021250D01*
X012113Y021618D02*
X013719Y021618D01*
X013526Y021777D02*
X012141Y021777D01*
X012230Y021935D02*
X013436Y021935D01*
X013436Y022094D02*
X012295Y022094D01*
X012453Y022252D02*
X013436Y022252D01*
X013436Y022411D02*
X012612Y022411D01*
X012770Y022569D02*
X013463Y022569D01*
X013456Y022728D02*
X012929Y022728D01*
X012510Y023045D02*
X012210Y023045D01*
X012210Y022886D02*
X012352Y022886D01*
X012127Y023203D02*
X012669Y023203D01*
X013327Y023362D02*
X010113Y023362D01*
X010113Y023520D02*
X013486Y023520D01*
X013644Y023679D02*
X010113Y023679D01*
X010113Y023837D02*
X013803Y023837D01*
X013961Y023996D02*
X010113Y023996D01*
X010073Y024154D02*
X014120Y024154D01*
X014278Y024313D02*
X009917Y024313D01*
X009758Y024471D02*
X014437Y024471D01*
X014595Y024630D02*
X009600Y024630D01*
X008210Y024788D02*
X005063Y024788D01*
X005063Y024630D02*
X008067Y024630D01*
X008003Y024471D02*
X005063Y024471D01*
X005063Y024313D02*
X008003Y024313D01*
X008053Y024154D02*
X005063Y024154D01*
X005063Y023996D02*
X008174Y023996D01*
X008065Y023837D02*
X005063Y023837D01*
X005063Y023679D02*
X008003Y023679D01*
X008003Y023520D02*
X005063Y023520D01*
X005063Y023362D02*
X008055Y023362D01*
X008179Y023203D02*
X005063Y023203D01*
X005063Y023045D02*
X008063Y023045D01*
X008003Y022886D02*
X005063Y022886D01*
X005063Y022728D02*
X008003Y022728D01*
X008057Y022569D02*
X005063Y022569D01*
X005063Y022411D02*
X008184Y022411D01*
X008061Y022252D02*
X005063Y022252D01*
X005063Y022094D02*
X008003Y022094D01*
X008003Y021935D02*
X005063Y021935D01*
X005063Y021777D02*
X008059Y021777D01*
X008189Y021618D02*
X008079Y021508D01*
X008003Y021301D02*
X005063Y021301D01*
X005063Y021143D02*
X008003Y021143D01*
X008061Y020984D02*
X005063Y020984D01*
X005063Y020826D02*
X008184Y020826D01*
X008057Y020667D02*
X005063Y020667D01*
X005063Y020509D02*
X008003Y020509D01*
X008003Y020350D02*
X005063Y020350D01*
X005063Y020192D02*
X008063Y020192D01*
X008179Y020033D02*
X005063Y020033D01*
X005063Y019875D02*
X008055Y019875D01*
X008003Y019716D02*
X005063Y019716D01*
X005063Y019558D02*
X008003Y019558D01*
X008065Y019399D02*
X005063Y019399D01*
X005063Y019241D02*
X008174Y019241D01*
X008052Y019082D02*
X005063Y019082D01*
X005063Y018924D02*
X008003Y018924D01*
X008003Y018765D02*
X005063Y018765D01*
X005063Y018607D02*
X008067Y018607D01*
X008169Y018448D02*
X005063Y018448D01*
X005063Y018290D02*
X008050Y018290D01*
X008003Y018131D02*
X005063Y018131D01*
X005063Y017973D02*
X008004Y017973D01*
X008069Y017814D02*
X005063Y017814D01*
X005063Y017656D02*
X008193Y017656D01*
X008071Y017497D02*
X005063Y017497D01*
X005063Y017339D02*
X008025Y017339D01*
X008023Y017287D02*
X008503Y017287D01*
X008023Y017287D01*
X008034Y017180D02*
X005063Y017180D01*
X005063Y017022D02*
X008102Y017022D01*
X008278Y016863D02*
X005063Y016863D01*
X005063Y016705D02*
X015261Y016705D01*
X015109Y016863D02*
X008727Y016863D01*
X008503Y016863D02*
X008503Y016863D01*
X008503Y017022D02*
X008503Y017022D01*
X008503Y017180D02*
X008503Y017180D01*
X008503Y017287D02*
X008503Y017287D01*
X008903Y017022D02*
X015073Y017022D01*
X015073Y017180D02*
X008972Y017180D01*
X008981Y017339D02*
X015073Y017339D01*
X015073Y017497D02*
X008935Y017497D01*
X008813Y017656D02*
X015073Y017656D01*
X015073Y017814D02*
X008936Y017814D01*
X009001Y017973D02*
X015073Y017973D01*
X015073Y018131D02*
X009003Y018131D01*
X008955Y018290D02*
X015073Y018290D01*
X015073Y018448D02*
X008837Y018448D01*
X008938Y018607D02*
X015073Y018607D01*
X015073Y018765D02*
X009003Y018765D01*
X009003Y018924D02*
X015073Y018924D01*
X015073Y019082D02*
X008953Y019082D01*
X008831Y019241D02*
X015073Y019241D01*
X015073Y019399D02*
X008940Y019399D01*
X009003Y019558D02*
X011202Y019558D01*
X011188Y019716D02*
X009003Y019716D01*
X008951Y019875D02*
X011188Y019875D01*
X011803Y019750D02*
X012418Y019750D01*
X011803Y019750D01*
X011803Y019750D01*
X011803Y019716D02*
X011803Y019716D01*
X011803Y019558D02*
X011803Y019558D01*
X012404Y019558D02*
X013262Y019558D01*
X013248Y019716D02*
X012418Y019716D01*
X012418Y019875D02*
X013248Y019875D01*
X013242Y020033D02*
X012424Y020033D01*
X012438Y020192D02*
X013228Y020192D01*
X013228Y020350D02*
X012438Y020350D01*
X012400Y020509D02*
X013267Y020509D01*
X013228Y020667D02*
X012438Y020667D01*
X012438Y020826D02*
X013228Y020826D01*
X013260Y020984D02*
X012407Y020984D01*
X012438Y021143D02*
X013228Y021143D01*
X013228Y021301D02*
X012438Y021301D01*
X012432Y021460D02*
X013235Y021460D01*
X013863Y021250D02*
X013999Y021385D01*
X013999Y022000D01*
X013833Y022165D01*
X013999Y022000D02*
X015333Y022000D01*
X015833Y022500D01*
X015833Y024500D01*
X015487Y024630D02*
X015331Y024630D01*
X015463Y024471D02*
X015172Y024471D01*
X015014Y024313D02*
X015510Y024313D01*
X015553Y024154D02*
X014855Y024154D01*
X014697Y023996D02*
X015553Y023996D01*
X015553Y023837D02*
X014538Y023837D01*
X014380Y023679D02*
X015553Y023679D01*
X015553Y023520D02*
X014221Y023520D01*
X014063Y023362D02*
X015553Y023362D01*
X015553Y023203D02*
X014127Y023203D01*
X014210Y023045D02*
X015553Y023045D01*
X015553Y022886D02*
X014210Y022886D01*
X014210Y022728D02*
X015553Y022728D01*
X015506Y022569D02*
X014203Y022569D01*
X014230Y022411D02*
X015348Y022411D01*
X015073Y020192D02*
X015003Y020192D01*
X014965Y020033D02*
X015073Y020033D01*
X015073Y019875D02*
X014814Y019875D01*
X015073Y019716D02*
X014478Y019716D01*
X014478Y019750D02*
X013863Y019750D01*
X014478Y019750D01*
X014464Y019558D02*
X015073Y019558D01*
X013863Y019558D02*
X013863Y019558D01*
X013863Y019716D02*
X013863Y019716D01*
X013863Y019750D02*
X013863Y019750D01*
X011803Y020250D02*
X010583Y020250D01*
X009833Y021000D01*
X009492Y021143D02*
X009003Y021143D01*
X009003Y021301D02*
X009611Y021301D01*
X009463Y020984D02*
X008944Y020984D01*
X008821Y020826D02*
X009505Y020826D01*
X009670Y020667D02*
X008949Y020667D01*
X009003Y020509D02*
X009929Y020509D01*
X010087Y020350D02*
X009003Y020350D01*
X008942Y020192D02*
X010246Y020192D01*
X010404Y020033D02*
X008826Y020033D01*
X010245Y020984D02*
X010453Y020984D01*
X010404Y020826D02*
X010612Y020826D01*
X010562Y020667D02*
X010770Y020667D01*
X011083Y020750D02*
X009833Y022000D01*
X009833Y022400D01*
X009433Y022800D01*
X008503Y022800D01*
X008503Y022799D01*
X008821Y022411D02*
X009427Y022411D01*
X009553Y022252D02*
X008944Y022252D01*
X009003Y022094D02*
X009553Y022094D01*
X009557Y021935D02*
X009003Y021935D01*
X008946Y021777D02*
X009661Y021777D01*
X009819Y021618D02*
X008816Y021618D01*
X008946Y021460D02*
X009978Y021460D01*
X010056Y021301D02*
X010136Y021301D01*
X010175Y021143D02*
X010295Y021143D01*
X011083Y020750D02*
X011803Y020750D01*
X011463Y022569D02*
X010660Y022569D01*
X010502Y022728D02*
X011456Y022728D01*
X011456Y022853D02*
X011815Y022853D01*
X011815Y023231D01*
X011613Y023231D01*
X011567Y023219D01*
X011526Y023195D01*
X011492Y023162D01*
X011469Y023121D01*
X011456Y023075D01*
X011456Y022853D01*
X011456Y022886D02*
X010343Y022886D01*
X010185Y023045D02*
X011456Y023045D01*
X011539Y023203D02*
X010113Y023203D01*
X011815Y023203D02*
X011852Y023203D01*
X011852Y023045D02*
X011815Y023045D01*
X011815Y022886D02*
X011852Y022886D01*
X015489Y024788D02*
X015598Y024788D01*
X019841Y022252D02*
X019893Y022252D01*
X019893Y022094D02*
X019843Y022094D01*
X019843Y021935D02*
X019893Y021935D01*
X020333Y021780D02*
X020333Y021000D01*
X020833Y020500D01*
X021739Y020500D01*
X021833Y020406D01*
X021161Y020192D02*
X020506Y020192D01*
X020506Y020350D02*
X020587Y020350D01*
X020506Y020033D02*
X021161Y020033D01*
X021203Y020826D02*
X020904Y020826D01*
X020333Y021780D02*
X020333Y024220D01*
X023341Y022252D02*
X023393Y022252D01*
X023393Y022094D02*
X023343Y022094D01*
X023343Y021935D02*
X023393Y021935D01*
X024506Y020033D02*
X024933Y020033D01*
X024483Y018924D02*
X026595Y018924D01*
X026595Y019082D02*
X023093Y019082D01*
X023093Y018924D02*
X023184Y018924D01*
X023181Y018765D02*
X023093Y018765D01*
X023093Y019241D02*
X026595Y019241D01*
X026595Y019399D02*
X023093Y019399D01*
X023766Y018924D02*
X023901Y018924D01*
X023901Y018765D02*
X023766Y018765D01*
X023766Y018448D02*
X023901Y018448D01*
X023901Y018290D02*
X023766Y018290D01*
X023766Y018131D02*
X023901Y018131D01*
X023959Y017656D02*
X024126Y017656D01*
X024486Y018765D02*
X026595Y018765D01*
X022058Y017656D02*
X020974Y017656D01*
X021250Y018155D02*
X021291Y018131D01*
X021337Y018119D01*
X021766Y018119D01*
X021766Y018527D01*
X021181Y018527D01*
X021181Y018276D01*
X021193Y018230D01*
X021217Y018189D01*
X021250Y018155D01*
X021293Y018131D02*
X020374Y018131D01*
X020486Y018290D02*
X021181Y018290D01*
X021181Y018448D02*
X020486Y018448D01*
X020486Y018765D02*
X021181Y018765D01*
X021184Y018924D02*
X020483Y018924D01*
X019901Y018924D02*
X019766Y018924D01*
X019766Y018448D02*
X019901Y018448D01*
X019901Y018290D02*
X019766Y018290D01*
X019766Y018131D02*
X019901Y018131D01*
X019293Y018131D02*
X018613Y018131D01*
X018613Y018290D02*
X019181Y018290D01*
X019181Y018448D02*
X018613Y018448D01*
X018904Y020826D02*
X019203Y020826D01*
X021766Y018924D02*
X021901Y018924D01*
X021901Y018765D02*
X021766Y018765D01*
X021766Y018448D02*
X021901Y018448D01*
X021901Y018290D02*
X021766Y018290D01*
X021766Y018131D02*
X021901Y018131D01*
X020142Y016229D02*
X019586Y016229D01*
X020603Y015754D02*
X021019Y015754D01*
X020861Y015595D02*
X020694Y015595D01*
X017286Y014644D02*
X005063Y014644D01*
X005063Y014486D02*
X017286Y014486D01*
X017286Y014327D02*
X005063Y014327D01*
X005063Y014169D02*
X017286Y014169D01*
X017286Y014010D02*
X005063Y014010D01*
X005063Y013852D02*
X017286Y013852D01*
X017286Y013693D02*
X015008Y013693D01*
X015167Y013535D02*
X016933Y013535D01*
X016921Y013376D02*
X015325Y013376D01*
X015484Y013218D02*
X016921Y013218D01*
X016921Y013059D02*
X015590Y013059D01*
X015593Y012901D02*
X016299Y012901D01*
X016193Y012742D02*
X015593Y012742D01*
X015593Y012584D02*
X016193Y012584D01*
X016193Y012425D02*
X015593Y012425D01*
X015593Y012267D02*
X016193Y012267D01*
X016193Y012108D02*
X015593Y012108D01*
X015593Y011950D02*
X016213Y011950D01*
X016193Y011791D02*
X015593Y011791D01*
X015593Y011633D02*
X016193Y011633D01*
X016193Y011474D02*
X015727Y011474D01*
X015886Y011316D02*
X016213Y011316D01*
X015626Y010840D02*
X014799Y010840D01*
X014903Y010682D02*
X016193Y010682D01*
X016193Y010523D02*
X014903Y010523D01*
X014903Y010365D02*
X016193Y010365D01*
X016193Y010206D02*
X014845Y010206D01*
X014687Y010048D02*
X016921Y010048D01*
X016921Y009889D02*
X013593Y009889D01*
X013593Y009731D02*
X016921Y009731D01*
X016921Y009572D02*
X013593Y009572D01*
X013593Y009414D02*
X016971Y009414D01*
X016971Y009255D02*
X016602Y009255D01*
X016694Y009097D02*
X016971Y009097D01*
X016963Y008938D02*
X016763Y008938D01*
X016065Y009255D02*
X015843Y009255D01*
X015624Y009255D02*
X013593Y009255D01*
X013593Y009097D02*
X015414Y009097D01*
X015363Y008938D02*
X013593Y008938D01*
X013593Y008780D02*
X015383Y008780D01*
X015489Y008621D02*
X013730Y008621D01*
X013730Y008463D02*
X015803Y008463D01*
X015962Y008304D02*
X013730Y008304D01*
X013730Y008146D02*
X016120Y008146D01*
X016279Y007987D02*
X013708Y007987D01*
X013730Y007829D02*
X014269Y007829D01*
X014807Y007829D02*
X014914Y007829D01*
X015129Y007829D02*
X015129Y007829D01*
X015129Y007670D02*
X015129Y007670D01*
X015129Y007512D02*
X015129Y007512D01*
X015129Y007353D02*
X015129Y007353D01*
X015129Y007195D02*
X015129Y007195D01*
X015390Y007195D02*
X018875Y007195D01*
X018803Y007353D02*
X015466Y007353D01*
X015466Y007512D02*
X019313Y007512D01*
X019313Y007520D02*
X018783Y007520D01*
X018783Y007543D01*
X018797Y007629D01*
X018824Y007711D01*
X018863Y007788D01*
X018914Y007858D01*
X018975Y007920D01*
X019045Y007970D01*
X019122Y008010D01*
X019205Y008036D01*
X019290Y008050D01*
X019313Y008050D01*
X019313Y007520D01*
X019313Y007670D02*
X019353Y007670D01*
X019353Y007829D02*
X019313Y007829D01*
X019313Y007987D02*
X019353Y007987D01*
X019589Y007987D02*
X020020Y007987D01*
X019856Y007829D02*
X019774Y007829D01*
X019353Y007353D02*
X019313Y007353D01*
X019313Y007195D02*
X019353Y007195D01*
X019353Y007036D02*
X019313Y007036D01*
X019036Y007036D02*
X005063Y007036D01*
X005063Y006878D02*
X005908Y006878D01*
X005841Y006853D02*
X005841Y006853D01*
X006162Y006970D01*
X006504Y006970D01*
X006826Y006853D01*
X006826Y006853D01*
X007088Y006633D01*
X007259Y006337D01*
X007259Y006337D01*
X007318Y006000D01*
X007318Y006000D01*
X007259Y005663D01*
X007259Y005663D01*
X007088Y005367D01*
X007088Y005367D01*
X007088Y005367D01*
X006826Y005147D01*
X006826Y005147D01*
X006504Y005030D01*
X006286Y005030D01*
X006162Y005030D01*
X005841Y005147D01*
X005841Y005147D01*
X005579Y005367D01*
X005579Y005367D01*
X005408Y005663D01*
X005408Y005663D01*
X005348Y006000D01*
X005348Y006000D01*
X005408Y006337D01*
X005408Y006337D01*
X005579Y006633D01*
X005579Y006633D01*
X005841Y006853D01*
X005681Y006719D02*
X005063Y006719D01*
X005063Y006561D02*
X005537Y006561D01*
X005579Y006633D02*
X005579Y006633D01*
X005445Y006402D02*
X005063Y006402D01*
X005063Y006244D02*
X005391Y006244D01*
X005363Y006085D02*
X005063Y006085D01*
X005063Y005927D02*
X005361Y005927D01*
X005389Y005768D02*
X005063Y005768D01*
X005063Y005610D02*
X005439Y005610D01*
X005530Y005451D02*
X005063Y005451D01*
X005063Y005293D02*
X005667Y005293D01*
X005877Y005134D02*
X005063Y005134D01*
X005063Y004976D02*
X026595Y004976D01*
X026595Y005134D02*
X025790Y005134D01*
X025826Y005147D02*
X025826Y005147D01*
X026088Y005367D01*
X026259Y005663D01*
X026259Y005663D01*
X026318Y006000D01*
X026259Y006337D01*
X026088Y006633D01*
X025826Y006853D01*
X025826Y006853D01*
X025504Y006970D01*
X025162Y006970D01*
X024841Y006853D01*
X024841Y006853D01*
X024579Y006633D01*
X024579Y006633D01*
X024408Y006337D01*
X024348Y006000D01*
X024408Y005663D01*
X024579Y005367D01*
X024579Y005367D01*
X024841Y005147D01*
X025162Y005030D01*
X025381Y005030D01*
X025504Y005030D01*
X025504Y005030D01*
X025826Y005147D01*
X025999Y005293D02*
X026595Y005293D01*
X026595Y005451D02*
X026136Y005451D01*
X026088Y005367D02*
X026088Y005367D01*
X026088Y005367D01*
X026228Y005610D02*
X026595Y005610D01*
X026595Y005768D02*
X026277Y005768D01*
X026305Y005927D02*
X026595Y005927D01*
X026595Y006085D02*
X026303Y006085D01*
X026318Y006000D02*
X026318Y006000D01*
X026275Y006244D02*
X026595Y006244D01*
X026595Y006402D02*
X026221Y006402D01*
X026259Y006337D02*
X026259Y006337D01*
X026130Y006561D02*
X026595Y006561D01*
X026595Y006719D02*
X025986Y006719D01*
X026088Y006633D02*
X026088Y006633D01*
X025758Y006878D02*
X026595Y006878D01*
X026595Y007036D02*
X023593Y007036D01*
X023593Y006878D02*
X024908Y006878D01*
X024681Y006719D02*
X023593Y006719D01*
X023593Y006561D02*
X024537Y006561D01*
X024579Y006633D02*
X024579Y006633D01*
X024445Y006402D02*
X023579Y006402D01*
X023417Y006244D02*
X024391Y006244D01*
X024408Y006337D02*
X024408Y006337D01*
X024363Y006085D02*
X023180Y006085D01*
X022942Y005927D02*
X024361Y005927D01*
X024348Y006000D02*
X024348Y006000D01*
X024389Y005768D02*
X022704Y005768D01*
X022466Y005610D02*
X024439Y005610D01*
X024408Y005663D02*
X024408Y005663D01*
X024530Y005451D02*
X022229Y005451D01*
X021994Y005293D02*
X024667Y005293D01*
X024841Y005147D02*
X024841Y005147D01*
X024877Y005134D02*
X006790Y005134D01*
X006999Y005293D02*
X020173Y005293D01*
X020073Y005451D02*
X007136Y005451D01*
X007228Y005610D02*
X020073Y005610D01*
X020073Y005768D02*
X007277Y005768D01*
X007305Y005927D02*
X020073Y005927D01*
X020073Y006085D02*
X007303Y006085D01*
X007275Y006244D02*
X020073Y006244D01*
X020073Y006402D02*
X007221Y006402D01*
X007130Y006561D02*
X020073Y006561D01*
X020073Y006719D02*
X006986Y006719D01*
X006759Y006878D02*
X020073Y006878D01*
X019991Y007036D02*
X019630Y007036D01*
X019791Y007195D02*
X019843Y007195D01*
X020593Y006878D02*
X021843Y006878D01*
X022002Y007036D02*
X021675Y007036D01*
X021824Y007195D02*
X022073Y007195D01*
X022073Y007353D02*
X021889Y007353D01*
X021903Y007512D02*
X022073Y007512D01*
X022073Y007670D02*
X021880Y007670D01*
X021811Y007829D02*
X022073Y007829D01*
X022073Y007987D02*
X021647Y007987D01*
X021020Y007987D02*
X020647Y007987D01*
X020811Y007829D02*
X020856Y007829D01*
X020824Y007195D02*
X020843Y007195D01*
X020991Y007036D02*
X020675Y007036D01*
X020593Y006719D02*
X021685Y006719D01*
X021526Y006561D02*
X020593Y006561D01*
X020593Y006402D02*
X021368Y006402D01*
X021054Y006244D02*
X020593Y006244D01*
X020593Y006085D02*
X020968Y006085D01*
X020963Y005927D02*
X020593Y005927D01*
X020593Y005768D02*
X021042Y005768D01*
X023593Y007195D02*
X026595Y007195D01*
X026595Y007353D02*
X023593Y007353D01*
X023593Y007512D02*
X026595Y007512D01*
X026595Y007670D02*
X023593Y007670D01*
X023593Y007829D02*
X026595Y007829D01*
X026595Y007987D02*
X023593Y007987D01*
X023593Y008146D02*
X026595Y008146D01*
X026595Y008304D02*
X023593Y008304D01*
X023593Y008463D02*
X026595Y008463D01*
X026595Y008621D02*
X025491Y008621D01*
X025603Y008780D02*
X026595Y008780D01*
X026595Y008938D02*
X025651Y008938D01*
X025651Y009097D02*
X026595Y009097D01*
X026595Y009255D02*
X025593Y009255D01*
X025593Y009414D02*
X026595Y009414D01*
X026595Y009572D02*
X025585Y009572D01*
X025471Y009731D02*
X026595Y009731D01*
X026595Y009889D02*
X025312Y009889D01*
X025154Y010048D02*
X026595Y010048D01*
X026595Y010206D02*
X024995Y010206D01*
X024735Y009731D02*
X023183Y009731D01*
X023342Y009572D02*
X024894Y009572D01*
X024785Y009414D02*
X023882Y009414D01*
X024014Y009255D02*
X024653Y009255D01*
X024591Y009097D02*
X024076Y009097D01*
X024076Y008938D02*
X024591Y008938D01*
X024638Y008780D02*
X024028Y008780D01*
X023916Y008621D02*
X024750Y008621D01*
X023337Y010365D02*
X026595Y010365D01*
X026595Y010523D02*
X023178Y010523D01*
X023762Y011500D02*
X023762Y011500D01*
X021735Y009731D02*
X019746Y009731D01*
X019746Y009889D02*
X021577Y009889D01*
X021418Y010048D02*
X019746Y010048D01*
X019746Y009572D02*
X021894Y009572D01*
X022052Y009414D02*
X019696Y009414D01*
X019696Y009255D02*
X022073Y009255D01*
X022073Y009097D02*
X019696Y009097D01*
X019696Y008938D02*
X022073Y008938D01*
X022073Y008780D02*
X019666Y008780D01*
X019522Y008621D02*
X022073Y008621D01*
X022073Y008463D02*
X019339Y008463D01*
X018891Y008304D02*
X022073Y008304D01*
X022073Y008146D02*
X018903Y008146D01*
X018844Y007987D02*
X019078Y007987D01*
X018892Y007829D02*
X015343Y007829D01*
X015466Y007670D02*
X018810Y007670D01*
X019444Y011157D02*
X019573Y011157D01*
X019573Y011316D02*
X017593Y011316D01*
X017593Y011474D02*
X019573Y011474D01*
X019593Y011633D02*
X017560Y011633D01*
X017410Y011791D02*
X019573Y011791D01*
X019573Y011950D02*
X017073Y011950D01*
X017093Y012108D02*
X019573Y012108D01*
X019573Y012267D02*
X017093Y012267D01*
X017093Y012425D02*
X019573Y012425D01*
X019573Y012584D02*
X017093Y012584D01*
X015467Y010999D02*
X014641Y010999D01*
X014796Y011157D02*
X015309Y011157D01*
X015150Y011316D02*
X014903Y011316D01*
X014903Y011474D02*
X015073Y011474D01*
X015073Y011633D02*
X014903Y011633D01*
X014848Y011791D02*
X015073Y011791D01*
X015073Y011950D02*
X014690Y011950D01*
X014747Y012108D02*
X015073Y012108D01*
X015073Y012267D02*
X014903Y012267D01*
X014903Y012425D02*
X015073Y012425D01*
X015073Y012584D02*
X014903Y012584D01*
X014897Y012742D02*
X015073Y012742D01*
X015065Y012901D02*
X014739Y012901D01*
X014580Y013059D02*
X014907Y013059D01*
X014748Y013218D02*
X012919Y013218D01*
X012760Y013059D02*
X014086Y013059D01*
X013928Y012901D02*
X013711Y012901D01*
X013353Y012901D02*
X013313Y012901D01*
X013313Y013050D02*
X013106Y013050D01*
X012783Y012728D01*
X012783Y012520D01*
X013313Y012520D01*
X013313Y013050D01*
X013313Y012742D02*
X013353Y012742D01*
X013353Y012584D02*
X013313Y012584D01*
X012956Y012901D02*
X012602Y012901D01*
X012593Y012742D02*
X012798Y012742D01*
X012783Y012584D02*
X012593Y012584D01*
X012593Y012425D02*
X012783Y012425D01*
X012789Y012267D02*
X012593Y012267D01*
X012593Y012108D02*
X012948Y012108D01*
X012977Y011950D02*
X012593Y011950D01*
X012593Y011791D02*
X012818Y011791D01*
X012763Y011633D02*
X012593Y011633D01*
X012593Y011474D02*
X012763Y011474D01*
X012763Y011316D02*
X012593Y011316D01*
X012593Y011157D02*
X012870Y011157D01*
X013026Y010999D02*
X012703Y010999D01*
X012861Y010840D02*
X012867Y010840D01*
X012443Y010523D02*
X010883Y010523D01*
X010883Y010520D02*
X010883Y010543D01*
X010870Y010629D01*
X010843Y010711D01*
X010804Y010788D01*
X010753Y010858D01*
X010692Y010920D01*
X010622Y010970D01*
X010587Y010988D01*
X010656Y011017D01*
X010817Y011177D01*
X010903Y011387D01*
X010903Y011613D01*
X010817Y011823D01*
X010656Y011983D01*
X010447Y012070D01*
X010220Y012070D01*
X010010Y011983D01*
X009850Y011823D01*
X009763Y011613D01*
X009763Y011387D01*
X009850Y011177D01*
X010010Y011017D01*
X010080Y010988D01*
X010045Y010970D01*
X009975Y010920D01*
X009914Y010858D01*
X009863Y010788D01*
X009824Y010711D01*
X009797Y010629D01*
X009783Y010543D01*
X009783Y010520D01*
X010313Y010520D01*
X010313Y010480D01*
X009783Y010480D01*
X009783Y010457D01*
X009797Y010371D01*
X009824Y010289D01*
X009863Y010212D01*
X009914Y010142D01*
X009975Y010080D01*
X010045Y010030D01*
X010122Y009990D01*
X010205Y009964D01*
X010290Y009950D01*
X010313Y009950D01*
X010313Y010480D01*
X010353Y010480D01*
X010353Y009950D01*
X010377Y009950D01*
X010462Y009964D01*
X010544Y009990D01*
X010622Y010030D01*
X010692Y010080D01*
X010753Y010142D01*
X010804Y010212D01*
X010843Y010289D01*
X010870Y010371D01*
X010883Y010457D01*
X010883Y010480D01*
X010353Y010480D01*
X010353Y010520D01*
X010883Y010520D01*
X010868Y010365D02*
X012601Y010365D01*
X012821Y010206D02*
X010800Y010206D01*
X010646Y010048D02*
X012980Y010048D01*
X013073Y009889D02*
X005063Y009889D01*
X005063Y009731D02*
X013073Y009731D01*
X013073Y009572D02*
X005063Y009572D01*
X005063Y009414D02*
X013073Y009414D01*
X013073Y009255D02*
X005063Y009255D01*
X005063Y009097D02*
X013073Y009097D01*
X013073Y008938D02*
X005063Y008938D01*
X005063Y008780D02*
X013073Y008780D01*
X012936Y008621D02*
X005063Y008621D01*
X005063Y008463D02*
X012936Y008463D01*
X012936Y008304D02*
X005063Y008304D01*
X005063Y008146D02*
X012936Y008146D01*
X012959Y007987D02*
X005063Y007987D01*
X005063Y007829D02*
X012936Y007829D01*
X012936Y007670D02*
X005063Y007670D01*
X005063Y007512D02*
X012936Y007512D01*
X012949Y007353D02*
X005063Y007353D01*
X005063Y007195D02*
X014246Y007195D01*
X014830Y007195D02*
X014867Y007195D01*
X013980Y010048D02*
X013687Y010048D01*
X012284Y010682D02*
X010853Y010682D01*
X010766Y010840D02*
X012126Y010840D01*
X012073Y010999D02*
X010612Y010999D01*
X010796Y011157D02*
X012073Y011157D01*
X012073Y011316D02*
X010874Y011316D01*
X010903Y011474D02*
X012073Y011474D01*
X012073Y011633D02*
X010895Y011633D01*
X010830Y011791D02*
X012073Y011791D01*
X012073Y011950D02*
X010690Y011950D01*
X009977Y011950D02*
X005063Y011950D01*
X005063Y012108D02*
X012073Y012108D01*
X012073Y012267D02*
X005063Y012267D01*
X005063Y012425D02*
X012073Y012425D01*
X012073Y012584D02*
X005063Y012584D01*
X005063Y012742D02*
X012073Y012742D01*
X012073Y012901D02*
X005063Y012901D01*
X005063Y013059D02*
X012076Y013059D01*
X012183Y013218D02*
X005063Y013218D01*
X005063Y013376D02*
X012342Y013376D01*
X012500Y013535D02*
X005063Y013535D01*
X005063Y013693D02*
X012659Y013693D01*
X009837Y011791D02*
X005063Y011791D01*
X005063Y011633D02*
X009771Y011633D01*
X009763Y011474D02*
X005063Y011474D01*
X005063Y011316D02*
X009793Y011316D01*
X009870Y011157D02*
X005063Y011157D01*
X005063Y010999D02*
X010055Y010999D01*
X009901Y010840D02*
X005063Y010840D01*
X005063Y010682D02*
X009814Y010682D01*
X009783Y010523D02*
X005063Y010523D01*
X005063Y010365D02*
X009799Y010365D01*
X009867Y010206D02*
X005063Y010206D01*
X005063Y010048D02*
X010020Y010048D01*
X010313Y010048D02*
X010353Y010048D01*
X010353Y010206D02*
X010313Y010206D01*
X010313Y010365D02*
X010353Y010365D01*
X005063Y014803D02*
X017163Y014803D01*
X017005Y014961D02*
X005063Y014961D01*
X005063Y015120D02*
X016846Y015120D01*
X016688Y015278D02*
X005063Y015278D01*
X005063Y015437D02*
X016529Y015437D01*
X016371Y015595D02*
X005063Y015595D01*
X005063Y015754D02*
X016212Y015754D01*
X016054Y015912D02*
X005063Y015912D01*
X005063Y016071D02*
X015895Y016071D01*
X015737Y016229D02*
X005063Y016229D01*
X005063Y016388D02*
X015578Y016388D01*
X015420Y016546D02*
X005063Y016546D01*
X005063Y004817D02*
X026595Y004817D01*
D27*
X021333Y006000D03*
X018533Y008200D03*
X018833Y009000D03*
X017333Y009000D03*
X016333Y009000D03*
X015733Y008900D03*
X021433Y011250D03*
X022833Y012500D03*
X022333Y013950D03*
X020333Y014500D03*
X020033Y014000D03*
X018483Y014000D03*
X018183Y014500D03*
X019333Y015500D03*
X019333Y016500D03*
X018333Y016500D03*
X019333Y017500D03*
X020333Y015500D03*
X022333Y016000D03*
X024333Y016000D03*
X024833Y014500D03*
X024833Y012500D03*
X025333Y020000D03*
X025333Y021000D03*
X021333Y025000D03*
X018983Y024250D03*
X018333Y025500D03*
X015833Y024500D03*
X015833Y020250D03*
X014633Y020200D03*
X009833Y021000D03*
D28*
X011833Y021280D02*
X011833Y022000D01*
X012833Y023000D01*
X013333Y023000D01*
X016833Y026500D01*
X017333Y026500D01*
X018333Y025500D01*
X020333Y024220D02*
X021113Y025000D01*
X021333Y025000D01*
X021833Y020406D02*
X022428Y020406D01*
X022833Y020000D01*
X022833Y017735D01*
X022433Y017335D01*
X020561Y017335D01*
X020550Y017324D01*
X020550Y016576D02*
X019409Y016576D01*
X019333Y016500D01*
X019333Y015500D02*
X020333Y015500D01*
X020783Y015150D02*
X021483Y015850D01*
X021833Y015500D01*
X022999Y015500D01*
X023668Y015500D02*
X023668Y014669D01*
X023333Y014335D01*
X022399Y014335D01*
X021833Y014900D01*
X019833Y014900D01*
X019683Y014750D01*
X019683Y014350D01*
X020033Y014000D01*
X020333Y014500D02*
X021833Y013000D01*
X024833Y013000D01*
X025466Y013633D01*
X025466Y015702D01*
X025668Y015500D01*
X025466Y015702D02*
X025466Y017000D01*
X026083Y017600D02*
X026083Y012100D01*
X025483Y011500D01*
X024904Y011500D01*
X024904Y011894D02*
X024833Y011965D01*
X024833Y012500D01*
X023762Y011894D02*
X023440Y011894D01*
X022833Y012500D01*
X021833Y012000D02*
X021833Y011665D01*
X022333Y011165D01*
X022333Y011000D01*
X023333Y010000D01*
X024833Y010000D01*
X025333Y009500D01*
X025333Y009213D01*
X025121Y009000D01*
X023546Y009000D02*
X023333Y008787D01*
X023333Y006500D01*
X021833Y005500D01*
X020333Y005500D01*
X020333Y007500D01*
X019233Y008700D02*
X017883Y008700D01*
X017783Y008600D01*
X016733Y008600D01*
X016333Y009000D01*
X015733Y008900D02*
X016433Y008200D01*
X018533Y008200D01*
X018833Y009000D02*
X019121Y009287D01*
X019121Y009810D01*
X019436Y009810D02*
X019436Y008902D01*
X019233Y008700D01*
X017333Y009000D02*
X017231Y009102D01*
X017231Y009810D01*
X017233Y011000D02*
X016671Y011000D01*
X016643Y011028D01*
X015806Y011028D01*
X015333Y011500D01*
X015333Y013000D01*
X014833Y013500D01*
X012833Y013500D01*
X012333Y013000D01*
X012333Y011000D01*
X012833Y010500D01*
X013333Y010500D01*
X013333Y008335D01*
X013333Y007665D02*
X013499Y007500D01*
X014538Y007500D01*
X016643Y011028D02*
X019206Y011028D01*
X019533Y010700D01*
X020011Y010700D01*
X020023Y010713D01*
X021383Y010713D01*
X021433Y010763D01*
X021433Y011250D01*
X021383Y010713D02*
X022121Y010713D01*
X022833Y010000D01*
X022833Y009713D01*
X023546Y009000D01*
X022333Y009500D02*
X022333Y007000D01*
X021333Y006000D01*
X022333Y009500D02*
X021436Y010398D01*
X020023Y010398D01*
X021833Y012000D02*
X021546Y012287D01*
X020023Y012287D01*
X018806Y013190D02*
X018806Y014522D01*
X019433Y015150D01*
X020783Y015150D01*
X021483Y015850D02*
X021416Y015917D01*
X021416Y016950D01*
X022333Y016565D02*
X022433Y016665D01*
X022333Y016565D02*
X022333Y016000D01*
X023583Y016665D02*
X023623Y016626D01*
X023707Y016626D01*
X024333Y016000D01*
X024600Y016626D02*
X023707Y016626D01*
X023583Y017335D02*
X022433Y017335D01*
X023583Y017335D02*
X023623Y017374D01*
X024600Y017374D01*
X024600Y017767D01*
X024833Y018000D01*
X025683Y018000D01*
X026083Y017600D01*
X024999Y015500D02*
X024833Y015335D01*
X024833Y014500D01*
X024999Y015500D02*
X023668Y015500D01*
X022333Y013950D02*
X022618Y013665D01*
X023333Y013665D01*
X018483Y014000D02*
X018483Y013197D01*
X018491Y013190D01*
X018183Y013197D02*
X018176Y013190D01*
X018183Y013197D02*
X018183Y014500D01*
X017546Y014787D02*
X015333Y017000D01*
X015333Y020350D01*
X014933Y020750D01*
X013863Y020750D01*
X013863Y020250D02*
X013913Y020200D01*
X014633Y020200D01*
X015833Y020250D02*
X015833Y017000D01*
X016833Y016000D01*
X017333Y016000D01*
X017861Y015472D01*
X017861Y013190D01*
X017546Y013190D02*
X017546Y014787D01*
X017176Y011657D02*
X016643Y011657D01*
X017176Y011657D02*
X017333Y011500D01*
X017333Y011100D01*
X017233Y011000D01*
X025333Y020000D02*
X024928Y020406D01*
X023833Y020406D01*
M02*
