G75*
%MOIN*%
%OFA0B0*%
%FSLAX24Y24*%
%IPPOS*%
%LPD*%
%AMOC8*
5,1,8,0,0,1.08239X$1,22.5*
%
%ADD10R,0.0454X0.0493*%
%ADD11OC8,0.0800*%
%ADD12R,0.0375X0.0375*%
%ADD13R,0.0540X0.0940*%
%ADD14R,0.1477X0.0926*%
%ADD15R,0.0930X0.0300*%
%ADD16C,0.0660*%
%ADD17C,0.0800*%
%ADD18C,0.1360*%
%ADD19C,0.0720*%
%ADD20R,0.0560X0.0280*%
%ADD21R,0.0280X0.0560*%
%ADD22R,0.0611X0.0454*%
%ADD23R,0.0493X0.0454*%
%ADD24R,0.0395X0.0237*%
%ADD25R,0.0690X0.1044*%
%ADD26R,0.1005X0.0651*%
%ADD27C,0.0400*%
D10*
X013333Y007665D03*
X013333Y008335D03*
X022333Y011165D03*
X022333Y011835D03*
X023333Y013665D03*
X023333Y014335D03*
X023583Y016665D03*
X023583Y017335D03*
X022433Y017335D03*
X022433Y016665D03*
X013833Y022165D03*
X013833Y022835D03*
X011833Y022835D03*
X011833Y022165D03*
D11*
X013333Y012500D03*
X014333Y012500D03*
X014333Y011500D03*
X013333Y011500D03*
X013333Y010500D03*
X014333Y010500D03*
D12*
X014538Y007500D03*
X015129Y007500D03*
D13*
X019423Y021780D03*
X020333Y021780D03*
X021243Y021780D03*
X022923Y021780D03*
X023833Y021780D03*
X024743Y021780D03*
D14*
X023833Y024220D03*
X020333Y024220D03*
D15*
X013863Y021250D03*
X013863Y020750D03*
X013863Y020250D03*
X013863Y019750D03*
X011803Y019750D03*
X011803Y020250D03*
X011803Y020750D03*
X011803Y021250D03*
D16*
X008503Y021224D03*
X008503Y020437D03*
X008503Y019650D03*
X008503Y018862D03*
X008503Y018075D03*
X008503Y017287D03*
X008503Y022012D03*
X008503Y022799D03*
X008503Y023587D03*
X008503Y024374D03*
X017164Y024374D03*
X017164Y023587D03*
X017164Y022799D03*
X017164Y022012D03*
X017164Y021224D03*
X017164Y020437D03*
X017164Y019650D03*
X017164Y018862D03*
X017164Y018075D03*
X017164Y017287D03*
D17*
X010333Y011500D03*
X010333Y010500D03*
X019333Y007500D03*
X020333Y007500D03*
X021333Y007500D03*
D18*
X006333Y006000D03*
X025333Y006000D03*
X025333Y026500D03*
X006333Y026500D03*
D19*
X023546Y009000D03*
X025121Y009000D03*
D20*
X020023Y010398D03*
X020023Y010713D03*
X020023Y011028D03*
X020023Y011343D03*
X020023Y011657D03*
X020023Y011972D03*
X020023Y012287D03*
X020023Y012602D03*
X016643Y012602D03*
X016643Y012287D03*
X016643Y011972D03*
X016643Y011657D03*
X016643Y011343D03*
X016643Y011028D03*
X016643Y010713D03*
X016643Y010398D03*
D21*
X017231Y009810D03*
X017546Y009810D03*
X017861Y009810D03*
X018176Y009810D03*
X018491Y009810D03*
X018806Y009810D03*
X019121Y009810D03*
X019436Y009810D03*
X019436Y013190D03*
X019121Y013190D03*
X018806Y013190D03*
X018491Y013190D03*
X018176Y013190D03*
X017861Y013190D03*
X017546Y013190D03*
X017231Y013190D03*
D22*
X020550Y016576D03*
X020550Y017324D03*
X021416Y016950D03*
X024600Y016626D03*
X024600Y017374D03*
X025466Y017000D03*
D23*
X025668Y015500D03*
X024999Y015500D03*
X023668Y015500D03*
X022999Y015500D03*
D24*
X023762Y011894D03*
X023762Y011500D03*
X023762Y011106D03*
X024904Y011106D03*
X024904Y011500D03*
X024904Y011894D03*
D25*
X024333Y011500D03*
D26*
X023833Y018594D03*
X021833Y018594D03*
X019833Y018594D03*
X019833Y020406D03*
X021833Y020406D03*
X023833Y020406D03*
D27*
X025333Y020000D03*
X025333Y021000D03*
X021333Y025000D03*
X018983Y024250D03*
X018333Y025500D03*
X015833Y024500D03*
X015833Y020250D03*
X014633Y020200D03*
X018333Y016500D03*
X019333Y016500D03*
X019333Y015500D03*
X020333Y015500D03*
X020333Y014500D03*
X020033Y014000D03*
X018483Y014000D03*
X018183Y014500D03*
X019333Y017500D03*
X022333Y016000D03*
X024333Y016000D03*
X024833Y014500D03*
X024833Y012500D03*
X022833Y012500D03*
X022333Y013950D03*
X021433Y011250D03*
X018833Y009000D03*
X018533Y008200D03*
X017333Y009000D03*
X016333Y009000D03*
X015733Y008900D03*
X021333Y006000D03*
X009833Y021000D03*
M02*
