G75*
%MOIN*%
%OFA0B0*%
%FSLAX24Y24*%
%IPPOS*%
%LPD*%
%AMOC8*
5,1,8,0,0,1.08239X$1,22.5*
%
%ADD10R,0.0394X0.0433*%
%ADD11R,0.0315X0.0315*%
%ADD12R,0.0480X0.0880*%
%ADD13R,0.1417X0.0866*%
%ADD14R,0.0870X0.0240*%
%ADD15R,0.0500X0.0220*%
%ADD16R,0.0220X0.0500*%
%ADD17R,0.0551X0.0394*%
%ADD18R,0.0433X0.0394*%
%ADD19R,0.0335X0.0177*%
%ADD20R,0.0630X0.0984*%
%ADD21R,0.0945X0.0591*%
D10*
X013333Y007665D03*
X013333Y008335D03*
X022333Y011165D03*
X022333Y011835D03*
X023333Y013665D03*
X023333Y014335D03*
X023583Y016665D03*
X023583Y017335D03*
X022433Y017335D03*
X022433Y016665D03*
X013833Y022165D03*
X013833Y022835D03*
X011833Y022835D03*
X011833Y022165D03*
D11*
X014538Y007500D03*
X015129Y007500D03*
D12*
X019423Y021780D03*
X020333Y021780D03*
X021243Y021780D03*
X022923Y021780D03*
X023833Y021780D03*
X024743Y021780D03*
D13*
X023833Y024220D03*
X020333Y024220D03*
D14*
X013863Y021250D03*
X013863Y020750D03*
X013863Y020250D03*
X013863Y019750D03*
X011803Y019750D03*
X011803Y020250D03*
X011803Y020750D03*
X011803Y021250D03*
D15*
X016643Y012602D03*
X016643Y012287D03*
X016643Y011972D03*
X016643Y011657D03*
X016643Y011343D03*
X016643Y011028D03*
X016643Y010713D03*
X016643Y010398D03*
X020023Y010398D03*
X020023Y010713D03*
X020023Y011028D03*
X020023Y011343D03*
X020023Y011657D03*
X020023Y011972D03*
X020023Y012287D03*
X020023Y012602D03*
D16*
X019436Y013190D03*
X019121Y013190D03*
X018806Y013190D03*
X018491Y013190D03*
X018176Y013190D03*
X017861Y013190D03*
X017546Y013190D03*
X017231Y013190D03*
X017231Y009810D03*
X017546Y009810D03*
X017861Y009810D03*
X018176Y009810D03*
X018491Y009810D03*
X018806Y009810D03*
X019121Y009810D03*
X019436Y009810D03*
D17*
X020550Y016576D03*
X020550Y017324D03*
X021416Y016950D03*
X024600Y016626D03*
X024600Y017374D03*
X025466Y017000D03*
D18*
X025668Y015500D03*
X024999Y015500D03*
X023668Y015500D03*
X022999Y015500D03*
D19*
X023762Y011894D03*
X023762Y011500D03*
X023762Y011106D03*
X024904Y011106D03*
X024904Y011500D03*
X024904Y011894D03*
D20*
X024333Y011500D03*
D21*
X023833Y018594D03*
X021833Y018594D03*
X019833Y018594D03*
X019833Y020406D03*
X021833Y020406D03*
X023833Y020406D03*
M02*
