G75*
%MOIN*%
%OFA0B0*%
%FSLAX24Y24*%
%IPPOS*%
%LPD*%
%AMOC8*
5,1,8,0,0,1.08239X$1,22.5*
%
%ADD10C,0.0000*%
D10*
X004833Y004500D02*
X004833Y027870D01*
X026825Y027870D01*
X026825Y004500D01*
X004833Y004500D01*
X005683Y006000D02*
X005685Y006050D01*
X005691Y006100D01*
X005701Y006150D01*
X005714Y006198D01*
X005731Y006246D01*
X005752Y006292D01*
X005776Y006336D01*
X005804Y006378D01*
X005835Y006418D01*
X005869Y006455D01*
X005906Y006490D01*
X005945Y006521D01*
X005986Y006550D01*
X006030Y006575D01*
X006076Y006597D01*
X006123Y006615D01*
X006171Y006629D01*
X006220Y006640D01*
X006270Y006647D01*
X006320Y006650D01*
X006371Y006649D01*
X006421Y006644D01*
X006471Y006635D01*
X006519Y006623D01*
X006567Y006606D01*
X006613Y006586D01*
X006658Y006563D01*
X006701Y006536D01*
X006741Y006506D01*
X006779Y006473D01*
X006814Y006437D01*
X006847Y006398D01*
X006876Y006357D01*
X006902Y006314D01*
X006925Y006269D01*
X006944Y006222D01*
X006959Y006174D01*
X006971Y006125D01*
X006979Y006075D01*
X006983Y006025D01*
X006983Y005975D01*
X006979Y005925D01*
X006971Y005875D01*
X006959Y005826D01*
X006944Y005778D01*
X006925Y005731D01*
X006902Y005686D01*
X006876Y005643D01*
X006847Y005602D01*
X006814Y005563D01*
X006779Y005527D01*
X006741Y005494D01*
X006701Y005464D01*
X006658Y005437D01*
X006613Y005414D01*
X006567Y005394D01*
X006519Y005377D01*
X006471Y005365D01*
X006421Y005356D01*
X006371Y005351D01*
X006320Y005350D01*
X006270Y005353D01*
X006220Y005360D01*
X006171Y005371D01*
X006123Y005385D01*
X006076Y005403D01*
X006030Y005425D01*
X005986Y005450D01*
X005945Y005479D01*
X005906Y005510D01*
X005869Y005545D01*
X005835Y005582D01*
X005804Y005622D01*
X005776Y005664D01*
X005752Y005708D01*
X005731Y005754D01*
X005714Y005802D01*
X005701Y005850D01*
X005691Y005900D01*
X005685Y005950D01*
X005683Y006000D01*
X024683Y006000D02*
X024685Y006050D01*
X024691Y006100D01*
X024701Y006150D01*
X024714Y006198D01*
X024731Y006246D01*
X024752Y006292D01*
X024776Y006336D01*
X024804Y006378D01*
X024835Y006418D01*
X024869Y006455D01*
X024906Y006490D01*
X024945Y006521D01*
X024986Y006550D01*
X025030Y006575D01*
X025076Y006597D01*
X025123Y006615D01*
X025171Y006629D01*
X025220Y006640D01*
X025270Y006647D01*
X025320Y006650D01*
X025371Y006649D01*
X025421Y006644D01*
X025471Y006635D01*
X025519Y006623D01*
X025567Y006606D01*
X025613Y006586D01*
X025658Y006563D01*
X025701Y006536D01*
X025741Y006506D01*
X025779Y006473D01*
X025814Y006437D01*
X025847Y006398D01*
X025876Y006357D01*
X025902Y006314D01*
X025925Y006269D01*
X025944Y006222D01*
X025959Y006174D01*
X025971Y006125D01*
X025979Y006075D01*
X025983Y006025D01*
X025983Y005975D01*
X025979Y005925D01*
X025971Y005875D01*
X025959Y005826D01*
X025944Y005778D01*
X025925Y005731D01*
X025902Y005686D01*
X025876Y005643D01*
X025847Y005602D01*
X025814Y005563D01*
X025779Y005527D01*
X025741Y005494D01*
X025701Y005464D01*
X025658Y005437D01*
X025613Y005414D01*
X025567Y005394D01*
X025519Y005377D01*
X025471Y005365D01*
X025421Y005356D01*
X025371Y005351D01*
X025320Y005350D01*
X025270Y005353D01*
X025220Y005360D01*
X025171Y005371D01*
X025123Y005385D01*
X025076Y005403D01*
X025030Y005425D01*
X024986Y005450D01*
X024945Y005479D01*
X024906Y005510D01*
X024869Y005545D01*
X024835Y005582D01*
X024804Y005622D01*
X024776Y005664D01*
X024752Y005708D01*
X024731Y005754D01*
X024714Y005802D01*
X024701Y005850D01*
X024691Y005900D01*
X024685Y005950D01*
X024683Y006000D01*
X024683Y026500D02*
X024685Y026550D01*
X024691Y026600D01*
X024701Y026650D01*
X024714Y026698D01*
X024731Y026746D01*
X024752Y026792D01*
X024776Y026836D01*
X024804Y026878D01*
X024835Y026918D01*
X024869Y026955D01*
X024906Y026990D01*
X024945Y027021D01*
X024986Y027050D01*
X025030Y027075D01*
X025076Y027097D01*
X025123Y027115D01*
X025171Y027129D01*
X025220Y027140D01*
X025270Y027147D01*
X025320Y027150D01*
X025371Y027149D01*
X025421Y027144D01*
X025471Y027135D01*
X025519Y027123D01*
X025567Y027106D01*
X025613Y027086D01*
X025658Y027063D01*
X025701Y027036D01*
X025741Y027006D01*
X025779Y026973D01*
X025814Y026937D01*
X025847Y026898D01*
X025876Y026857D01*
X025902Y026814D01*
X025925Y026769D01*
X025944Y026722D01*
X025959Y026674D01*
X025971Y026625D01*
X025979Y026575D01*
X025983Y026525D01*
X025983Y026475D01*
X025979Y026425D01*
X025971Y026375D01*
X025959Y026326D01*
X025944Y026278D01*
X025925Y026231D01*
X025902Y026186D01*
X025876Y026143D01*
X025847Y026102D01*
X025814Y026063D01*
X025779Y026027D01*
X025741Y025994D01*
X025701Y025964D01*
X025658Y025937D01*
X025613Y025914D01*
X025567Y025894D01*
X025519Y025877D01*
X025471Y025865D01*
X025421Y025856D01*
X025371Y025851D01*
X025320Y025850D01*
X025270Y025853D01*
X025220Y025860D01*
X025171Y025871D01*
X025123Y025885D01*
X025076Y025903D01*
X025030Y025925D01*
X024986Y025950D01*
X024945Y025979D01*
X024906Y026010D01*
X024869Y026045D01*
X024835Y026082D01*
X024804Y026122D01*
X024776Y026164D01*
X024752Y026208D01*
X024731Y026254D01*
X024714Y026302D01*
X024701Y026350D01*
X024691Y026400D01*
X024685Y026450D01*
X024683Y026500D01*
X005683Y026500D02*
X005685Y026550D01*
X005691Y026600D01*
X005701Y026650D01*
X005714Y026698D01*
X005731Y026746D01*
X005752Y026792D01*
X005776Y026836D01*
X005804Y026878D01*
X005835Y026918D01*
X005869Y026955D01*
X005906Y026990D01*
X005945Y027021D01*
X005986Y027050D01*
X006030Y027075D01*
X006076Y027097D01*
X006123Y027115D01*
X006171Y027129D01*
X006220Y027140D01*
X006270Y027147D01*
X006320Y027150D01*
X006371Y027149D01*
X006421Y027144D01*
X006471Y027135D01*
X006519Y027123D01*
X006567Y027106D01*
X006613Y027086D01*
X006658Y027063D01*
X006701Y027036D01*
X006741Y027006D01*
X006779Y026973D01*
X006814Y026937D01*
X006847Y026898D01*
X006876Y026857D01*
X006902Y026814D01*
X006925Y026769D01*
X006944Y026722D01*
X006959Y026674D01*
X006971Y026625D01*
X006979Y026575D01*
X006983Y026525D01*
X006983Y026475D01*
X006979Y026425D01*
X006971Y026375D01*
X006959Y026326D01*
X006944Y026278D01*
X006925Y026231D01*
X006902Y026186D01*
X006876Y026143D01*
X006847Y026102D01*
X006814Y026063D01*
X006779Y026027D01*
X006741Y025994D01*
X006701Y025964D01*
X006658Y025937D01*
X006613Y025914D01*
X006567Y025894D01*
X006519Y025877D01*
X006471Y025865D01*
X006421Y025856D01*
X006371Y025851D01*
X006320Y025850D01*
X006270Y025853D01*
X006220Y025860D01*
X006171Y025871D01*
X006123Y025885D01*
X006076Y025903D01*
X006030Y025925D01*
X005986Y025950D01*
X005945Y025979D01*
X005906Y026010D01*
X005869Y026045D01*
X005835Y026082D01*
X005804Y026122D01*
X005776Y026164D01*
X005752Y026208D01*
X005731Y026254D01*
X005714Y026302D01*
X005701Y026350D01*
X005691Y026400D01*
X005685Y026450D01*
X005683Y026500D01*
M02*
