%
M48
M72
T01C0.0200
T02C0.0315
T03C0.0400
T04C0.1300
%
T01
X15733Y8900
X16333Y9000
X17333Y9000
X18533Y8200
X18833Y9000
X21433Y11250
X22833Y12500
X22333Y13950
X20333Y14500
X20033Y14000
X18483Y14000
X18183Y14500
X19333Y15500
X19333Y16500
X18333Y16500
X19333Y17500
X20333Y15500
X22333Y16000
X24333Y16000
X24833Y14500
X24833Y12500
X21333Y6000
X25333Y20000
X25333Y21000
X21333Y25000
X18983Y24250
X18333Y25500
X15833Y24500
X15833Y20250
X14633Y20200
X9833Y21000
T02
X8503Y21224
X8503Y20437
X8503Y19650
X8503Y18862
X8503Y18075
X8503Y17287
X8503Y22012
X8503Y22799
X8503Y23587
X8503Y24374
X17164Y24374
X17164Y23587
X17164Y22799
X17164Y22012
X17164Y21224
X17164Y20437
X17164Y19650
X17164Y18862
X17164Y18075
X17164Y17287
X23546Y9000
X25121Y9000
T03
X21333Y7500
X20333Y7500
X19333Y7500
X14333Y10500
X13333Y10500
X13333Y11500
X14333Y11500
X14333Y12500
X13333Y12500
X10333Y11500
X10333Y10500
T04
X6333Y6000
X25333Y6000
X25333Y26500
X6333Y26500
M30
