G75*
G70*
%OFA0B0*%
%FSLAX24Y24*%
%IPPOS*%
%LPD*%
%AMOC8*
5,1,8,0,0,1.08239X$1,22.5*
%
%ADD10R,0.0560X0.0310*%
%ADD11C,0.0800*%
%ADD12R,0.0493X0.0454*%
%ADD13OC8,0.0800*%
%ADD14C,0.1830*%
%ADD15R,0.0454X0.0493*%
%ADD16R,0.0375X0.0375*%
%ADD17R,0.0940X0.0540*%
%ADD18R,0.0926X0.1477*%
%ADD19R,0.0316X0.0847*%
%ADD20R,0.0930X0.0300*%
%ADD21C,0.0660*%
%ADD22C,0.1360*%
%ADD23C,0.0420*%
%ADD24C,0.0456*%
D10*
X023823Y017750D03*
X023823Y018250D03*
X023823Y018750D03*
X023823Y019250D03*
X023823Y019750D03*
X023823Y020250D03*
X023823Y020750D03*
X023823Y021250D03*
X023823Y021750D03*
X023823Y022250D03*
X027844Y022250D03*
X027844Y021750D03*
X027844Y021250D03*
X027844Y020750D03*
X027844Y020250D03*
X027844Y019750D03*
X027844Y019250D03*
X027844Y018750D03*
X027844Y018250D03*
X027844Y017750D03*
D11*
X028333Y016000D03*
X028333Y015000D03*
X028333Y014000D03*
X028333Y013000D03*
X028333Y012000D03*
X028333Y011000D03*
X028333Y010000D03*
X023723Y010220D03*
X021943Y010220D03*
X021943Y012780D03*
X023723Y012780D03*
X022333Y018000D03*
X021333Y018000D03*
X020333Y018000D03*
X017333Y007000D03*
X016333Y007000D03*
X015333Y007000D03*
D12*
X022499Y014000D03*
X023168Y014000D03*
X021668Y015500D03*
X020999Y015500D03*
D13*
X021333Y025500D03*
X020333Y025500D03*
X019333Y025500D03*
X019333Y026500D03*
X020333Y026500D03*
X021333Y026500D03*
D14*
X008227Y012500D03*
X007046Y010650D03*
X005865Y012500D03*
D15*
X016833Y016665D03*
X016833Y017335D03*
X017333Y021665D03*
X017333Y022335D03*
X019333Y022335D03*
X019333Y021665D03*
D16*
X016833Y015795D03*
X016833Y015205D03*
D17*
X015613Y013910D03*
X015613Y013000D03*
X015613Y012090D03*
X015613Y010910D03*
X015613Y010000D03*
X015613Y009090D03*
D18*
X018053Y010000D03*
X018053Y013000D03*
D19*
X013333Y013091D03*
X013333Y011909D03*
X013333Y010591D03*
X013333Y009409D03*
X010833Y009409D03*
X010833Y010591D03*
X010833Y011909D03*
X010833Y013091D03*
D20*
X017303Y019250D03*
X017303Y019750D03*
X017303Y020250D03*
X017303Y020750D03*
X019363Y020750D03*
X019363Y020250D03*
X019363Y019750D03*
X019363Y019250D03*
D21*
X014664Y019413D03*
X014664Y018626D03*
X014664Y020201D03*
X014664Y020988D03*
X014664Y021776D03*
X014664Y022563D03*
X014664Y023350D03*
X014664Y024138D03*
X014664Y024925D03*
X014664Y025713D03*
X006003Y025713D03*
X006003Y024925D03*
X006003Y024138D03*
X006003Y023350D03*
X006003Y022563D03*
X006003Y021776D03*
X006003Y020988D03*
X006003Y020201D03*
X006003Y019413D03*
X006003Y018626D03*
D22*
X004333Y006500D03*
X028333Y006500D03*
X028333Y031000D03*
X004333Y031000D03*
D23*
X016083Y020750D03*
X020583Y019750D03*
X020583Y021750D03*
X022333Y023500D03*
X024833Y024500D03*
X026333Y024500D03*
D24*
X018333Y014500D03*
M02*
