G75*
G70*
%OFA0B0*%
%FSLAX24Y24*%
%IPPOS*%
%LPD*%
%AMOC8*
5,1,8,0,0,1.08239X$1,22.5*
%
%ADD10R,0.0500X0.0250*%
%ADD11C,0.0740*%
%ADD12R,0.0433X0.0394*%
%ADD13OC8,0.0740*%
%ADD14C,0.1770*%
%ADD15R,0.0394X0.0433*%
%ADD16R,0.0315X0.0315*%
%ADD17R,0.0880X0.0480*%
%ADD18R,0.0866X0.1417*%
%ADD19R,0.0256X0.0787*%
%ADD20R,0.0870X0.0240*%
%ADD21C,0.0600*%
%ADD22C,0.0120*%
%ADD23C,0.0240*%
%ADD24C,0.0360*%
%ADD25C,0.0160*%
%ADD26C,0.0396*%
%ADD27C,0.0100*%
D10*
X023823Y017750D03*
X023823Y018250D03*
X023823Y018750D03*
X023823Y019250D03*
X023823Y019750D03*
X023823Y020250D03*
X023823Y020750D03*
X023823Y021250D03*
X023823Y021750D03*
X023823Y022250D03*
X027844Y022250D03*
X027844Y021750D03*
X027844Y021250D03*
X027844Y020750D03*
X027844Y020250D03*
X027844Y019750D03*
X027844Y019250D03*
X027844Y018750D03*
X027844Y018250D03*
X027844Y017750D03*
D11*
X028333Y016000D03*
X028333Y015000D03*
X028333Y014000D03*
X028333Y013000D03*
X028333Y012000D03*
X028333Y011000D03*
X028333Y010000D03*
X023723Y010220D03*
X021943Y010220D03*
X021943Y012780D03*
X023723Y012780D03*
X022333Y018000D03*
X021333Y018000D03*
X020333Y018000D03*
X017333Y007000D03*
X016333Y007000D03*
X015333Y007000D03*
D12*
X022499Y014000D03*
X023168Y014000D03*
X021668Y015500D03*
X020999Y015500D03*
D13*
X021333Y025500D03*
X020333Y025500D03*
X019333Y025500D03*
X019333Y026500D03*
X020333Y026500D03*
X021333Y026500D03*
D14*
X008227Y012500D03*
X007046Y010650D03*
X005865Y012500D03*
D15*
X016833Y016665D03*
X016833Y017335D03*
X017333Y021665D03*
X017333Y022335D03*
X019333Y022335D03*
X019333Y021665D03*
D16*
X016833Y015795D03*
X016833Y015205D03*
D17*
X015613Y013910D03*
X015613Y013000D03*
X015613Y012090D03*
X015613Y010910D03*
X015613Y010000D03*
X015613Y009090D03*
D18*
X018053Y010000D03*
X018053Y013000D03*
D19*
X013333Y013091D03*
X013333Y011909D03*
X013333Y010591D03*
X013333Y009409D03*
X010833Y009409D03*
X010833Y010591D03*
X010833Y011909D03*
X010833Y013091D03*
D20*
X017303Y019250D03*
X017303Y019750D03*
X017303Y020250D03*
X017303Y020750D03*
X019363Y020750D03*
X019363Y020250D03*
X019363Y019750D03*
X019363Y019250D03*
D21*
X014664Y019413D03*
X014664Y018626D03*
X014664Y020201D03*
X014664Y020988D03*
X014664Y021776D03*
X014664Y022563D03*
X014664Y023350D03*
X014664Y024138D03*
X014664Y024925D03*
X014664Y025713D03*
X006003Y025713D03*
X006003Y024925D03*
X006003Y024138D03*
X006003Y023350D03*
X006003Y022563D03*
X006003Y021776D03*
X006003Y020988D03*
X006003Y020201D03*
X006003Y019413D03*
X006003Y018626D03*
D22*
X003093Y005260D02*
X003093Y032110D01*
X030065Y032110D01*
X030065Y005260D01*
X003093Y005260D01*
X003093Y005356D02*
X030065Y005356D01*
X030065Y005474D02*
X003093Y005474D01*
X003093Y005593D02*
X004146Y005593D01*
X004152Y005590D02*
X004514Y005590D01*
X004849Y005729D01*
X005105Y005985D01*
X005243Y006319D01*
X005243Y006681D01*
X005105Y007015D01*
X004849Y007271D01*
X004514Y007410D01*
X004152Y007410D01*
X003818Y007271D01*
X003562Y007015D01*
X003423Y006681D01*
X003423Y006319D01*
X003562Y005985D01*
X003818Y005729D01*
X004152Y005590D01*
X003860Y005711D02*
X003093Y005711D01*
X003093Y005830D02*
X003717Y005830D01*
X003598Y005948D02*
X003093Y005948D01*
X003093Y006067D02*
X003528Y006067D01*
X003479Y006185D02*
X003093Y006185D01*
X003093Y006304D02*
X003430Y006304D01*
X003423Y006422D02*
X003093Y006422D01*
X003093Y006541D02*
X003423Y006541D01*
X003423Y006659D02*
X003093Y006659D01*
X003093Y006778D02*
X003463Y006778D01*
X003512Y006896D02*
X003093Y006896D01*
X003093Y007015D02*
X003561Y007015D01*
X003679Y007133D02*
X003093Y007133D01*
X003093Y007252D02*
X003798Y007252D01*
X004056Y007370D02*
X003093Y007370D01*
X003093Y007489D02*
X015125Y007489D01*
X015130Y007491D02*
X015056Y007453D01*
X014988Y007404D01*
X014929Y007345D01*
X014880Y007278D01*
X014842Y007203D01*
X014816Y007124D01*
X014803Y007042D01*
X014803Y007040D01*
X015293Y007040D01*
X015293Y006960D01*
X014803Y006960D01*
X014803Y006958D01*
X014816Y006876D01*
X014842Y006797D01*
X014880Y006722D01*
X014929Y006655D01*
X014988Y006596D01*
X015056Y006547D01*
X015130Y006509D01*
X015209Y006483D01*
X015292Y006470D01*
X015293Y006470D01*
X015293Y006960D01*
X015373Y006960D01*
X015373Y006470D01*
X015375Y006470D01*
X015457Y006483D01*
X015537Y006509D01*
X015611Y006547D01*
X015679Y006596D01*
X015738Y006655D01*
X015787Y006722D01*
X015825Y006797D01*
X015850Y006876D01*
X015851Y006883D01*
X015918Y006722D01*
X016056Y006585D01*
X016236Y006510D01*
X016431Y006510D01*
X016611Y006585D01*
X016749Y006722D01*
X016823Y006903D01*
X016823Y007097D01*
X016749Y007278D01*
X016611Y007415D01*
X016535Y007447D01*
X016908Y007820D01*
X017908Y007820D01*
X018408Y008320D01*
X018513Y008425D01*
X018513Y009171D01*
X018536Y009171D01*
X018606Y009242D01*
X018606Y009820D01*
X018908Y009820D01*
X019408Y010320D01*
X019513Y010425D01*
X019513Y015320D01*
X020662Y015320D01*
X020662Y015253D01*
X020732Y015183D01*
X021265Y015183D01*
X021333Y015252D01*
X021402Y015183D01*
X021488Y015183D01*
X021488Y012981D01*
X021494Y012975D01*
X021453Y012877D01*
X021453Y012683D01*
X021528Y012502D01*
X021666Y012365D01*
X021846Y012290D01*
X022041Y012290D01*
X022221Y012365D01*
X022359Y012502D01*
X022433Y012683D01*
X022433Y012877D01*
X022359Y013058D01*
X022221Y013195D01*
X022041Y013270D01*
X021848Y013270D01*
X021848Y013820D01*
X022162Y013820D01*
X022162Y013753D01*
X022232Y013683D01*
X022765Y013683D01*
X022810Y013728D01*
X022823Y013705D01*
X022853Y013675D01*
X022890Y013654D01*
X022930Y013643D01*
X023130Y013643D01*
X023130Y013962D01*
X023206Y013962D01*
X023206Y013643D01*
X023406Y013643D01*
X023446Y013654D01*
X023483Y013675D01*
X023513Y013705D01*
X023534Y013741D01*
X023545Y013782D01*
X023545Y013962D01*
X023206Y013962D01*
X023206Y014038D01*
X023545Y014038D01*
X023545Y014218D01*
X023534Y014259D01*
X023513Y014295D01*
X023483Y014325D01*
X023446Y014346D01*
X023406Y014357D01*
X023206Y014357D01*
X023206Y014038D01*
X023130Y014038D01*
X023130Y014357D01*
X022930Y014357D01*
X022890Y014346D01*
X022853Y014325D01*
X022823Y014295D01*
X022810Y014272D01*
X022765Y014317D01*
X022232Y014317D01*
X022162Y014247D01*
X022162Y014180D01*
X021848Y014180D01*
X021848Y015183D01*
X021934Y015183D01*
X022005Y015253D01*
X022005Y015320D01*
X023908Y015320D01*
X024908Y016320D01*
X025013Y016425D01*
X025013Y021825D01*
X024513Y022325D01*
X024408Y022430D01*
X024187Y022430D01*
X024122Y022495D01*
X023523Y022495D01*
X023458Y022430D01*
X022658Y022430D01*
X022513Y022575D01*
X022513Y023256D01*
X022588Y023330D01*
X022633Y023440D01*
X022633Y023560D01*
X022588Y023670D01*
X022503Y023754D01*
X022393Y023800D01*
X022274Y023800D01*
X022163Y023754D01*
X022079Y023670D01*
X022033Y023560D01*
X022033Y023440D01*
X022079Y023330D01*
X022153Y023256D01*
X022153Y022425D01*
X022259Y022320D01*
X022509Y022070D01*
X023458Y022070D01*
X023523Y022005D01*
X024122Y022005D01*
X024187Y022070D01*
X024259Y022070D01*
X024653Y021675D01*
X024653Y016575D01*
X023759Y015680D01*
X022005Y015680D01*
X022005Y015747D01*
X021934Y015817D01*
X021402Y015817D01*
X021333Y015748D01*
X021265Y015817D01*
X020732Y015817D01*
X020662Y015747D01*
X020662Y015680D01*
X019513Y015680D01*
X019513Y015744D01*
X017923Y017335D01*
X018408Y017820D01*
X018513Y017925D01*
X018513Y020425D01*
X018658Y020570D01*
X018819Y020570D01*
X018879Y020510D01*
X019848Y020510D01*
X019918Y020580D01*
X019918Y020920D01*
X019848Y020990D01*
X019513Y020990D01*
X019513Y021329D01*
X019580Y021329D01*
X019650Y021399D01*
X019650Y021932D01*
X019605Y021977D01*
X019628Y021990D01*
X019658Y022020D01*
X019679Y022056D01*
X019690Y022097D01*
X019690Y022296D01*
X019372Y022296D01*
X019372Y022373D01*
X019690Y022373D01*
X019690Y022572D01*
X019679Y022613D01*
X019658Y022649D01*
X019628Y022679D01*
X019592Y022700D01*
X019551Y022711D01*
X019372Y022711D01*
X019372Y022373D01*
X019295Y022373D01*
X019295Y022296D01*
X018976Y022296D01*
X018976Y022097D01*
X018987Y022056D01*
X019008Y022020D01*
X019038Y021990D01*
X019062Y021977D01*
X019016Y021932D01*
X019016Y021845D01*
X018743Y021845D01*
X018513Y022075D01*
X018513Y023925D01*
X018908Y024320D01*
X020408Y024320D01*
X021114Y025026D01*
X021130Y025010D01*
X021536Y025010D01*
X021823Y025297D01*
X021823Y025320D01*
X026759Y025320D01*
X027664Y024415D01*
X027664Y022495D01*
X027544Y022495D01*
X027474Y022425D01*
X027474Y022075D01*
X027544Y022005D01*
X028144Y022005D01*
X028214Y022075D01*
X028214Y022425D01*
X028144Y022495D01*
X028024Y022495D01*
X028024Y024564D01*
X027013Y025575D01*
X026908Y025680D01*
X021823Y025680D01*
X021823Y025703D01*
X021536Y025990D01*
X021130Y025990D01*
X020843Y025703D01*
X020843Y025297D01*
X020860Y025281D01*
X020259Y024680D01*
X018759Y024680D01*
X018653Y024575D01*
X018153Y024075D01*
X018153Y021925D01*
X018259Y021820D01*
X018593Y021485D01*
X019016Y021485D01*
X019016Y021399D01*
X019087Y021329D01*
X019153Y021329D01*
X019153Y020990D01*
X018879Y020990D01*
X018819Y020930D01*
X018509Y020930D01*
X018403Y020825D01*
X018153Y020575D01*
X018153Y018075D01*
X017593Y017515D01*
X017150Y017515D01*
X017150Y017601D01*
X017080Y017671D01*
X016587Y017671D01*
X016516Y017601D01*
X016516Y017068D01*
X016585Y017000D01*
X016516Y016932D01*
X016516Y016399D01*
X016587Y016329D01*
X016653Y016329D01*
X016653Y016073D01*
X016626Y016073D01*
X016556Y016002D01*
X016556Y015588D01*
X016626Y015518D01*
X016638Y015518D01*
X016614Y015511D01*
X016578Y015490D01*
X016548Y015460D01*
X016527Y015424D01*
X016516Y015383D01*
X016516Y015223D01*
X016815Y015223D01*
X016815Y015186D01*
X016852Y015186D01*
X016852Y014887D01*
X017012Y014887D01*
X017053Y014898D01*
X017089Y014919D01*
X017119Y014949D01*
X017140Y014985D01*
X017151Y015026D01*
X017151Y015186D01*
X016852Y015186D01*
X016852Y015223D01*
X017151Y015223D01*
X017151Y015383D01*
X017140Y015424D01*
X017119Y015460D01*
X017089Y015490D01*
X017053Y015511D01*
X017028Y015518D01*
X017041Y015518D01*
X017111Y015588D01*
X017111Y016002D01*
X017041Y016073D01*
X017013Y016073D01*
X017013Y016329D01*
X017080Y016329D01*
X017150Y016399D01*
X017150Y016932D01*
X017082Y017000D01*
X017150Y017068D01*
X017150Y017155D01*
X017593Y017155D01*
X019153Y015595D01*
X019153Y010575D01*
X018759Y010180D01*
X018606Y010180D01*
X018606Y010758D01*
X018536Y010829D01*
X017571Y010829D01*
X017500Y010758D01*
X017500Y010240D01*
X016173Y010240D01*
X016173Y010290D01*
X016103Y010360D01*
X015124Y010360D01*
X015053Y010290D01*
X015053Y010240D01*
X014286Y010240D01*
X014197Y010203D01*
X013734Y009740D01*
X013581Y009740D01*
X013581Y009853D01*
X013511Y009923D01*
X013156Y009923D01*
X013085Y009853D01*
X013085Y008966D01*
X013156Y008896D01*
X013511Y008896D01*
X013581Y008966D01*
X013581Y009260D01*
X013881Y009260D01*
X013969Y009297D01*
X014037Y009364D01*
X014433Y009760D01*
X015053Y009760D01*
X015053Y009710D01*
X015124Y009640D01*
X016103Y009640D01*
X016173Y009710D01*
X016173Y009760D01*
X017500Y009760D01*
X017500Y009242D01*
X017571Y009171D01*
X018153Y009171D01*
X018153Y008575D01*
X017759Y008180D01*
X016759Y008180D01*
X016653Y008075D01*
X016153Y007575D01*
X016153Y007456D01*
X016056Y007415D01*
X015918Y007278D01*
X015851Y007117D01*
X015850Y007124D01*
X015825Y007203D01*
X015787Y007278D01*
X015738Y007345D01*
X015679Y007404D01*
X015611Y007453D01*
X015537Y007491D01*
X015457Y007517D01*
X015375Y007530D01*
X015373Y007530D01*
X015373Y007040D01*
X015293Y007040D01*
X015293Y007530D01*
X015292Y007530D01*
X015209Y007517D01*
X015130Y007491D01*
X015293Y007489D02*
X015373Y007489D01*
X015373Y007370D02*
X015293Y007370D01*
X015293Y007252D02*
X015373Y007252D01*
X015373Y007133D02*
X015293Y007133D01*
X015293Y007015D02*
X005105Y007015D01*
X005154Y006896D02*
X014813Y006896D01*
X014852Y006778D02*
X005203Y006778D01*
X005243Y006659D02*
X014926Y006659D01*
X015068Y006541D02*
X005243Y006541D01*
X005243Y006422D02*
X027423Y006422D01*
X027423Y006319D02*
X027562Y005985D01*
X027818Y005729D01*
X028152Y005590D01*
X028514Y005590D01*
X028849Y005729D01*
X029105Y005985D01*
X029243Y006319D01*
X029243Y006681D01*
X029105Y007015D01*
X028849Y007271D01*
X028514Y007410D01*
X028152Y007410D01*
X027818Y007271D01*
X027562Y007015D01*
X027423Y006681D01*
X027423Y006319D01*
X027430Y006304D02*
X005237Y006304D01*
X005188Y006185D02*
X027479Y006185D01*
X027528Y006067D02*
X005139Y006067D01*
X005068Y005948D02*
X027598Y005948D01*
X027717Y005830D02*
X004950Y005830D01*
X004806Y005711D02*
X027860Y005711D01*
X028146Y005593D02*
X004520Y005593D01*
X004987Y007133D02*
X014819Y007133D01*
X014867Y007252D02*
X004869Y007252D01*
X004611Y007370D02*
X014954Y007370D01*
X015293Y006896D02*
X015373Y006896D01*
X015373Y006778D02*
X015293Y006778D01*
X015293Y006659D02*
X015373Y006659D01*
X015373Y006541D02*
X015293Y006541D01*
X015599Y006541D02*
X016162Y006541D01*
X015981Y006659D02*
X015741Y006659D01*
X015815Y006778D02*
X015895Y006778D01*
X015858Y007133D02*
X015847Y007133D01*
X015800Y007252D02*
X015907Y007252D01*
X016010Y007370D02*
X015713Y007370D01*
X015542Y007489D02*
X016153Y007489D01*
X016186Y007607D02*
X003093Y007607D01*
X003093Y007726D02*
X016304Y007726D01*
X016423Y007844D02*
X003093Y007844D01*
X003093Y007963D02*
X016541Y007963D01*
X016660Y008081D02*
X003093Y008081D01*
X003093Y008200D02*
X017778Y008200D01*
X017897Y008318D02*
X014991Y008318D01*
X014969Y008297D02*
X015037Y008364D01*
X015403Y008730D01*
X016103Y008730D01*
X016173Y008800D01*
X016173Y009380D01*
X016103Y009450D01*
X015124Y009450D01*
X015053Y009380D01*
X015053Y009059D01*
X014734Y008740D01*
X011842Y008740D01*
X011081Y009501D01*
X011081Y009853D01*
X011011Y009923D01*
X010656Y009923D01*
X010585Y009853D01*
X010585Y009649D01*
X010023Y009649D01*
X009573Y010099D01*
X009573Y011760D01*
X010585Y011760D01*
X010585Y011466D01*
X010656Y011396D01*
X011008Y011396D01*
X011357Y011047D01*
X011445Y011010D01*
X013047Y011010D01*
X013045Y011005D01*
X013045Y010595D01*
X013329Y010595D01*
X013329Y010587D01*
X013045Y010587D01*
X013045Y010176D01*
X013056Y010135D01*
X013077Y010099D01*
X013107Y010069D01*
X013144Y010048D01*
X013184Y010037D01*
X013329Y010037D01*
X013329Y010587D01*
X013337Y010587D01*
X013337Y010595D01*
X013621Y010595D01*
X013621Y011005D01*
X013620Y011010D01*
X014381Y011010D01*
X014469Y011047D01*
X014537Y011114D01*
X014537Y011114D01*
X015153Y011730D01*
X016103Y011730D01*
X016173Y011800D01*
X016173Y012380D01*
X016103Y012450D01*
X015124Y012450D01*
X015053Y012380D01*
X015053Y012300D01*
X015037Y012293D01*
X014970Y012226D01*
X014234Y011490D01*
X013581Y011490D01*
X013581Y011760D01*
X013881Y011760D01*
X013969Y011797D01*
X014037Y011864D01*
X014933Y012760D01*
X015053Y012760D01*
X015053Y012710D01*
X015124Y012640D01*
X016103Y012640D01*
X016173Y012710D01*
X016173Y012760D01*
X017500Y012760D01*
X017500Y012242D01*
X017571Y012171D01*
X018536Y012171D01*
X018606Y012242D01*
X018606Y013758D01*
X018536Y013829D01*
X018253Y013829D01*
X018253Y014137D01*
X018298Y014182D01*
X018397Y014182D01*
X018514Y014230D01*
X018603Y014320D01*
X018651Y014437D01*
X018651Y014563D01*
X018603Y014680D01*
X018514Y014770D01*
X018397Y014818D01*
X018270Y014818D01*
X018153Y014770D01*
X018064Y014680D01*
X018015Y014563D01*
X018015Y014465D01*
X017853Y014303D01*
X017853Y013829D01*
X017571Y013829D01*
X017500Y013758D01*
X017500Y013240D01*
X016173Y013240D01*
X016173Y013290D01*
X016103Y013360D01*
X015124Y013360D01*
X015053Y013290D01*
X015053Y013240D01*
X014933Y013240D01*
X014904Y013269D01*
X014904Y018272D01*
X015020Y018388D01*
X015084Y018542D01*
X015084Y018710D01*
X015020Y018864D01*
X014902Y018982D01*
X014811Y019020D01*
X014902Y019057D01*
X015020Y019175D01*
X015044Y019233D01*
X016071Y019233D01*
X016408Y019570D01*
X016759Y019570D01*
X016809Y019520D01*
X016807Y019519D01*
X016770Y019498D01*
X016740Y019468D01*
X016719Y019432D01*
X016708Y019391D01*
X016708Y019250D01*
X016708Y019109D01*
X016719Y019068D01*
X016740Y019032D01*
X016770Y019002D01*
X016807Y018981D01*
X016847Y018970D01*
X017303Y018970D01*
X017303Y019250D01*
X016708Y019250D01*
X017303Y019250D01*
X017303Y019250D01*
X017303Y019250D01*
X017303Y018970D01*
X017759Y018970D01*
X017800Y018981D01*
X017837Y019002D01*
X017866Y019032D01*
X017887Y019068D01*
X017898Y019109D01*
X017898Y019250D01*
X017898Y019391D01*
X017887Y019432D01*
X017866Y019468D01*
X017837Y019498D01*
X017800Y019519D01*
X017798Y019520D01*
X017858Y019580D01*
X017858Y019920D01*
X017788Y019990D01*
X016819Y019990D01*
X016759Y019930D01*
X016259Y019930D01*
X016153Y019825D01*
X015922Y019593D01*
X015044Y019593D01*
X015020Y019651D01*
X014902Y019769D01*
X014811Y019807D01*
X014902Y019845D01*
X015020Y019963D01*
X015044Y020021D01*
X016808Y020021D01*
X016819Y020010D01*
X017788Y020010D01*
X017858Y020080D01*
X017858Y020420D01*
X017788Y020490D01*
X016819Y020490D01*
X016748Y020420D01*
X016748Y020381D01*
X015044Y020381D01*
X015020Y020439D01*
X014902Y020557D01*
X014811Y020594D01*
X014902Y020632D01*
X015020Y020750D01*
X015084Y020905D01*
X015084Y021072D01*
X015020Y021226D01*
X014902Y021344D01*
X014811Y021382D01*
X014902Y021420D01*
X015020Y021538D01*
X015084Y021692D01*
X015084Y021859D01*
X015020Y022014D01*
X014902Y022132D01*
X014811Y022169D01*
X014902Y022207D01*
X015020Y022325D01*
X015084Y022479D01*
X015084Y022647D01*
X015020Y022801D01*
X014902Y022919D01*
X014811Y022957D01*
X014902Y022994D01*
X015020Y023112D01*
X015084Y023267D01*
X015084Y023434D01*
X015020Y023588D01*
X014902Y023706D01*
X014811Y023744D01*
X014902Y023782D01*
X015020Y023900D01*
X015084Y024054D01*
X015084Y024221D01*
X015020Y024376D01*
X014902Y024494D01*
X014811Y024531D01*
X014902Y024569D01*
X015020Y024687D01*
X015084Y024842D01*
X015084Y025009D01*
X015020Y025163D01*
X014902Y025281D01*
X014863Y025298D01*
X014905Y025319D01*
X014964Y025362D01*
X015015Y025413D01*
X015057Y025472D01*
X015090Y025536D01*
X015113Y025605D01*
X015124Y025676D01*
X015124Y025694D01*
X014683Y025694D01*
X014683Y025731D01*
X015124Y025731D01*
X015124Y025749D01*
X015113Y025820D01*
X015090Y025889D01*
X015057Y025954D01*
X015015Y026012D01*
X014964Y026063D01*
X014905Y026106D01*
X014841Y026139D01*
X014772Y026161D01*
X014700Y026173D01*
X014683Y026173D01*
X014683Y025731D01*
X014645Y025731D01*
X014645Y025694D01*
X014204Y025694D01*
X014204Y025676D01*
X014215Y025605D01*
X014238Y025536D01*
X014271Y025472D01*
X014313Y025413D01*
X014364Y025362D01*
X014423Y025319D01*
X014465Y025298D01*
X014426Y025281D01*
X014308Y025163D01*
X014244Y025009D01*
X014244Y024842D01*
X014308Y024687D01*
X014426Y024569D01*
X014517Y024531D01*
X014426Y024494D01*
X014308Y024376D01*
X014244Y024221D01*
X014244Y024054D01*
X014308Y023900D01*
X014426Y023782D01*
X014517Y023744D01*
X014426Y023706D01*
X014308Y023588D01*
X014244Y023434D01*
X014244Y023267D01*
X014308Y023112D01*
X014426Y022994D01*
X014517Y022957D01*
X014426Y022919D01*
X014308Y022801D01*
X014244Y022647D01*
X014244Y022479D01*
X014308Y022325D01*
X014426Y022207D01*
X014517Y022169D01*
X014426Y022132D01*
X014308Y022014D01*
X014244Y021859D01*
X014244Y021692D01*
X014308Y021538D01*
X014426Y021420D01*
X014517Y021382D01*
X014426Y021344D01*
X014308Y021226D01*
X014244Y021072D01*
X014244Y020905D01*
X014308Y020750D01*
X014426Y020632D01*
X014517Y020594D01*
X014426Y020557D01*
X014308Y020439D01*
X014244Y020284D01*
X014244Y020117D01*
X014308Y019963D01*
X014426Y019845D01*
X014517Y019807D01*
X014426Y019769D01*
X014308Y019651D01*
X014244Y019497D01*
X014244Y019330D01*
X014308Y019175D01*
X014426Y019057D01*
X014517Y019020D01*
X014426Y018982D01*
X014308Y018864D01*
X014244Y018710D01*
X014244Y018542D01*
X014308Y018388D01*
X014424Y018272D01*
X006243Y018272D01*
X006241Y018270D02*
X006359Y018388D01*
X006423Y018542D01*
X006423Y018710D01*
X006359Y018864D01*
X006241Y018982D01*
X006150Y019020D01*
X006241Y019057D01*
X006359Y019175D01*
X006423Y019330D01*
X006423Y019497D01*
X006359Y019651D01*
X006241Y019769D01*
X006150Y019807D01*
X006241Y019845D01*
X006359Y019963D01*
X006423Y020117D01*
X006423Y020284D01*
X006359Y020439D01*
X006241Y020557D01*
X006150Y020594D01*
X006241Y020632D01*
X006359Y020750D01*
X006423Y020905D01*
X006423Y021072D01*
X006359Y021226D01*
X006241Y021344D01*
X006150Y021382D01*
X006241Y021420D01*
X006359Y021538D01*
X006423Y021692D01*
X006423Y021859D01*
X006359Y022014D01*
X006241Y022132D01*
X006150Y022169D01*
X006241Y022207D01*
X006359Y022325D01*
X006423Y022479D01*
X006423Y022647D01*
X006359Y022801D01*
X006241Y022919D01*
X006150Y022957D01*
X006241Y022994D01*
X006359Y023112D01*
X006423Y023267D01*
X006423Y023434D01*
X006359Y023588D01*
X006241Y023706D01*
X006150Y023744D01*
X006241Y023782D01*
X006359Y023900D01*
X006423Y024054D01*
X006423Y024221D01*
X006359Y024376D01*
X006241Y024494D01*
X006150Y024531D01*
X006241Y024569D01*
X006359Y024687D01*
X006423Y024842D01*
X006423Y025009D01*
X006359Y025163D01*
X006241Y025281D01*
X006150Y025319D01*
X006241Y025357D01*
X006359Y025475D01*
X006423Y025629D01*
X006423Y025796D01*
X006359Y025951D01*
X006241Y026069D01*
X006086Y026133D01*
X005919Y026133D01*
X005765Y026069D01*
X005647Y025951D01*
X005583Y025796D01*
X005583Y025629D01*
X005647Y025475D01*
X005765Y025357D01*
X005856Y025319D01*
X005765Y025281D01*
X005647Y025163D01*
X005583Y025009D01*
X005583Y024842D01*
X005647Y024687D01*
X005765Y024569D01*
X005856Y024531D01*
X005765Y024494D01*
X005647Y024376D01*
X005583Y024221D01*
X005583Y024054D01*
X005647Y023900D01*
X005765Y023782D01*
X005856Y023744D01*
X005765Y023706D01*
X005647Y023588D01*
X005583Y023434D01*
X005583Y023267D01*
X005647Y023112D01*
X005765Y022994D01*
X005856Y022957D01*
X005765Y022919D01*
X005647Y022801D01*
X005583Y022647D01*
X005583Y022479D01*
X005647Y022325D01*
X005765Y022207D01*
X005856Y022169D01*
X005765Y022132D01*
X005647Y022014D01*
X005583Y021859D01*
X005583Y021692D01*
X005647Y021538D01*
X005765Y021420D01*
X005856Y021382D01*
X005765Y021344D01*
X005647Y021226D01*
X005583Y021072D01*
X005583Y020905D01*
X005647Y020750D01*
X005765Y020632D01*
X005856Y020594D01*
X005765Y020557D01*
X005647Y020439D01*
X005583Y020284D01*
X005583Y020117D01*
X005647Y019963D01*
X005765Y019845D01*
X005856Y019807D01*
X005765Y019769D01*
X005647Y019651D01*
X005583Y019497D01*
X005583Y019330D01*
X005647Y019175D01*
X005765Y019057D01*
X005856Y019020D01*
X005765Y018982D01*
X005647Y018864D01*
X005583Y018710D01*
X005583Y018542D01*
X005647Y018388D01*
X005765Y018270D01*
X005919Y018206D01*
X006086Y018206D01*
X006241Y018270D01*
X006360Y018391D02*
X014307Y018391D01*
X014258Y018509D02*
X006409Y018509D01*
X006423Y018628D02*
X014244Y018628D01*
X014259Y018746D02*
X006408Y018746D01*
X006358Y018865D02*
X014309Y018865D01*
X014429Y018983D02*
X006238Y018983D01*
X006285Y019102D02*
X014382Y019102D01*
X014290Y019220D02*
X006377Y019220D01*
X006423Y019339D02*
X014244Y019339D01*
X014244Y019457D02*
X006423Y019457D01*
X006390Y019576D02*
X014277Y019576D01*
X014351Y019694D02*
X006316Y019694D01*
X006163Y019813D02*
X014504Y019813D01*
X014340Y019931D02*
X006327Y019931D01*
X006395Y020050D02*
X014272Y020050D01*
X014244Y020168D02*
X006423Y020168D01*
X006422Y020287D02*
X014245Y020287D01*
X014294Y020405D02*
X006373Y020405D01*
X006274Y020524D02*
X014393Y020524D01*
X014416Y020642D02*
X006250Y020642D01*
X006363Y020761D02*
X014304Y020761D01*
X014255Y020879D02*
X006412Y020879D01*
X006423Y020998D02*
X014244Y020998D01*
X014262Y021116D02*
X006404Y021116D01*
X006350Y021235D02*
X014316Y021235D01*
X014447Y021353D02*
X006219Y021353D01*
X006293Y021472D02*
X014374Y021472D01*
X014286Y021590D02*
X006380Y021590D01*
X006423Y021709D02*
X014244Y021709D01*
X014244Y021827D02*
X006423Y021827D01*
X006387Y021946D02*
X014280Y021946D01*
X014359Y022064D02*
X006308Y022064D01*
X006182Y022183D02*
X014485Y022183D01*
X014332Y022301D02*
X006335Y022301D01*
X006398Y022420D02*
X014269Y022420D01*
X014244Y022538D02*
X006423Y022538D01*
X006418Y022657D02*
X014248Y022657D01*
X014297Y022775D02*
X006369Y022775D01*
X006266Y022894D02*
X014401Y022894D01*
X014408Y023012D02*
X006258Y023012D01*
X006366Y023131D02*
X014301Y023131D01*
X014251Y023249D02*
X006415Y023249D01*
X006423Y023368D02*
X014244Y023368D01*
X014266Y023486D02*
X006401Y023486D01*
X006342Y023605D02*
X014324Y023605D01*
X014466Y023723D02*
X006200Y023723D01*
X006300Y023842D02*
X014366Y023842D01*
X014283Y023960D02*
X006384Y023960D01*
X006423Y024079D02*
X014244Y024079D01*
X014244Y024197D02*
X006423Y024197D01*
X006384Y024316D02*
X014283Y024316D01*
X014366Y024434D02*
X006300Y024434D01*
X006200Y024553D02*
X014466Y024553D01*
X014324Y024671D02*
X006342Y024671D01*
X006401Y024790D02*
X014266Y024790D01*
X014244Y024908D02*
X006423Y024908D01*
X006415Y025027D02*
X014251Y025027D01*
X014301Y025145D02*
X006366Y025145D01*
X006258Y025264D02*
X014408Y025264D01*
X014344Y025382D02*
X006266Y025382D01*
X006369Y025501D02*
X014256Y025501D01*
X014213Y025619D02*
X006418Y025619D01*
X006423Y025738D02*
X014204Y025738D01*
X014204Y025731D02*
X014645Y025731D01*
X014645Y026173D01*
X014628Y026173D01*
X014556Y026161D01*
X014487Y026139D01*
X014423Y026106D01*
X014364Y026063D01*
X014313Y026012D01*
X014271Y025954D01*
X014238Y025889D01*
X014215Y025820D01*
X014204Y025749D01*
X014204Y025731D01*
X014227Y025856D02*
X006398Y025856D01*
X006335Y025975D02*
X014286Y025975D01*
X014405Y026093D02*
X006182Y026093D01*
X005824Y026093D02*
X003093Y026093D01*
X003093Y025975D02*
X005671Y025975D01*
X005607Y025856D02*
X003093Y025856D01*
X003093Y025738D02*
X005583Y025738D01*
X005587Y025619D02*
X003093Y025619D01*
X003093Y025501D02*
X005636Y025501D01*
X005739Y025382D02*
X003093Y025382D01*
X003093Y025264D02*
X005747Y025264D01*
X005639Y025145D02*
X003093Y025145D01*
X003093Y025027D02*
X005590Y025027D01*
X005583Y024908D02*
X003093Y024908D01*
X003093Y024790D02*
X005604Y024790D01*
X005663Y024671D02*
X003093Y024671D01*
X003093Y024553D02*
X005805Y024553D01*
X005705Y024434D02*
X003093Y024434D01*
X003093Y024316D02*
X005622Y024316D01*
X005583Y024197D02*
X003093Y024197D01*
X003093Y024079D02*
X005583Y024079D01*
X005622Y023960D02*
X003093Y023960D01*
X003093Y023842D02*
X005705Y023842D01*
X005805Y023723D02*
X003093Y023723D01*
X003093Y023605D02*
X005663Y023605D01*
X005604Y023486D02*
X003093Y023486D01*
X003093Y023368D02*
X005583Y023368D01*
X005590Y023249D02*
X003093Y023249D01*
X003093Y023131D02*
X005639Y023131D01*
X005747Y023012D02*
X003093Y023012D01*
X003093Y022894D02*
X005739Y022894D01*
X005636Y022775D02*
X003093Y022775D01*
X003093Y022657D02*
X005587Y022657D01*
X005583Y022538D02*
X003093Y022538D01*
X003093Y022420D02*
X005607Y022420D01*
X005671Y022301D02*
X003093Y022301D01*
X003093Y022183D02*
X005824Y022183D01*
X005697Y022064D02*
X003093Y022064D01*
X003093Y021946D02*
X005618Y021946D01*
X005583Y021827D02*
X003093Y021827D01*
X003093Y021709D02*
X005583Y021709D01*
X005625Y021590D02*
X003093Y021590D01*
X003093Y021472D02*
X005713Y021472D01*
X005786Y021353D02*
X003093Y021353D01*
X003093Y021235D02*
X005655Y021235D01*
X005601Y021116D02*
X003093Y021116D01*
X003093Y020998D02*
X005583Y020998D01*
X005593Y020879D02*
X003093Y020879D01*
X003093Y020761D02*
X005642Y020761D01*
X005755Y020642D02*
X003093Y020642D01*
X003093Y020524D02*
X005731Y020524D01*
X005633Y020405D02*
X003093Y020405D01*
X003093Y020287D02*
X005584Y020287D01*
X005583Y020168D02*
X003093Y020168D01*
X003093Y020050D02*
X005611Y020050D01*
X005678Y019931D02*
X003093Y019931D01*
X003093Y019813D02*
X005842Y019813D01*
X005689Y019694D02*
X003093Y019694D01*
X003093Y019576D02*
X005615Y019576D01*
X005583Y019457D02*
X003093Y019457D01*
X003093Y019339D02*
X005583Y019339D01*
X005628Y019220D02*
X003093Y019220D01*
X003093Y019102D02*
X005721Y019102D01*
X005767Y018983D02*
X003093Y018983D01*
X003093Y018865D02*
X005647Y018865D01*
X005598Y018746D02*
X003093Y018746D01*
X003093Y018628D02*
X005583Y018628D01*
X005596Y018509D02*
X003093Y018509D01*
X003093Y018391D02*
X005646Y018391D01*
X005763Y018272D02*
X003093Y018272D01*
X003093Y018154D02*
X014424Y018154D01*
X014424Y018272D02*
X014424Y013122D01*
X014461Y013033D01*
X014494Y013000D01*
X013734Y012240D01*
X013581Y012240D01*
X013581Y012353D01*
X013511Y012423D01*
X013156Y012423D01*
X013085Y012353D01*
X013085Y011490D01*
X011592Y011490D01*
X011081Y012001D01*
X011081Y012353D01*
X011011Y012423D01*
X010656Y012423D01*
X010585Y012353D01*
X010585Y012240D01*
X009433Y012240D01*
X009232Y012441D01*
X009232Y012632D01*
X009164Y012888D01*
X009031Y013117D01*
X008844Y013304D01*
X008615Y013437D01*
X008359Y013505D01*
X008095Y013505D01*
X007839Y013437D01*
X007610Y013304D01*
X007423Y013117D01*
X007291Y012888D01*
X007222Y012632D01*
X007222Y012368D01*
X007291Y012112D01*
X007423Y011883D01*
X007610Y011696D01*
X007839Y011563D01*
X008095Y011495D01*
X008359Y011495D01*
X008615Y011563D01*
X008844Y011696D01*
X009031Y011883D01*
X009060Y011933D01*
X009093Y011901D01*
X009093Y009952D01*
X009130Y009864D01*
X009197Y009797D01*
X009788Y009206D01*
X009876Y009169D01*
X010585Y009169D01*
X010585Y008966D01*
X010656Y008896D01*
X011008Y008896D01*
X011607Y008297D01*
X011695Y008260D01*
X014881Y008260D01*
X014969Y008297D01*
X015109Y008437D02*
X018015Y008437D01*
X018134Y008555D02*
X015228Y008555D01*
X015346Y008674D02*
X018153Y008674D01*
X018153Y008792D02*
X016165Y008792D01*
X016173Y008911D02*
X018153Y008911D01*
X018153Y009029D02*
X016173Y009029D01*
X016173Y009148D02*
X018153Y009148D01*
X018513Y009148D02*
X025726Y009148D01*
X025845Y009266D02*
X018606Y009266D01*
X018606Y009385D02*
X025963Y009385D01*
X026082Y009503D02*
X018606Y009503D01*
X018606Y009622D02*
X026153Y009622D01*
X026153Y009575D02*
X023759Y007180D01*
X017789Y007180D01*
X017749Y007278D01*
X017611Y007415D01*
X017431Y007490D01*
X017236Y007490D01*
X017056Y007415D01*
X016918Y007278D01*
X016843Y007097D01*
X016843Y006903D01*
X016918Y006722D01*
X017056Y006585D01*
X017236Y006510D01*
X017431Y006510D01*
X017611Y006585D01*
X017749Y006722D01*
X017789Y006820D01*
X023908Y006820D01*
X026513Y009425D01*
X026513Y013830D01*
X027873Y013830D01*
X027918Y013722D01*
X028056Y013585D01*
X028236Y013510D01*
X028431Y013510D01*
X028611Y013585D01*
X028749Y013722D01*
X028823Y013903D01*
X028823Y014097D01*
X028749Y014278D01*
X028611Y014415D01*
X028431Y014490D01*
X028236Y014490D01*
X028056Y014415D01*
X027918Y014278D01*
X027873Y014170D01*
X026513Y014170D01*
X026513Y015925D01*
X026908Y016320D01*
X027013Y016425D01*
X027013Y017925D01*
X027158Y018070D01*
X027479Y018070D01*
X027544Y018005D01*
X028144Y018005D01*
X028214Y018075D01*
X028214Y018425D01*
X028144Y018495D01*
X027544Y018495D01*
X027479Y018430D01*
X027009Y018430D01*
X026903Y018325D01*
X026653Y018075D01*
X026653Y016575D01*
X026153Y016075D01*
X026153Y009575D01*
X026153Y009740D02*
X023845Y009740D01*
X023821Y009730D02*
X024001Y009805D01*
X024139Y009942D01*
X024213Y010123D01*
X024213Y010317D01*
X024139Y010498D01*
X024001Y010635D01*
X023821Y010710D01*
X023626Y010710D01*
X023446Y010635D01*
X023308Y010498D01*
X023233Y010317D01*
X023233Y010123D01*
X023308Y009942D01*
X023446Y009805D01*
X023626Y009730D01*
X023821Y009730D01*
X023602Y009740D02*
X022065Y009740D01*
X022041Y009730D02*
X022221Y009805D01*
X022359Y009942D01*
X022433Y010123D01*
X022433Y010317D01*
X022359Y010498D01*
X022221Y010635D01*
X022041Y010710D01*
X021846Y010710D01*
X021666Y010635D01*
X021528Y010498D01*
X021453Y010317D01*
X021453Y010123D01*
X021528Y009942D01*
X021666Y009805D01*
X021846Y009730D01*
X022041Y009730D01*
X021822Y009740D02*
X018606Y009740D01*
X018833Y010000D02*
X018333Y010000D01*
X018333Y008500D01*
X017833Y008000D01*
X016833Y008000D01*
X016333Y007500D01*
X016333Y007000D01*
X016685Y006659D02*
X016981Y006659D01*
X016895Y006778D02*
X016772Y006778D01*
X016821Y006896D02*
X016846Y006896D01*
X016843Y007015D02*
X016823Y007015D01*
X016809Y007133D02*
X016858Y007133D01*
X016907Y007252D02*
X016760Y007252D01*
X016656Y007370D02*
X017010Y007370D01*
X017232Y007489D02*
X016576Y007489D01*
X016695Y007607D02*
X024186Y007607D01*
X024304Y007726D02*
X016813Y007726D01*
X017434Y007489D02*
X024067Y007489D01*
X023949Y007370D02*
X017656Y007370D01*
X017760Y007252D02*
X023830Y007252D01*
X023833Y007000D02*
X026333Y009500D01*
X026333Y014000D01*
X026333Y016000D01*
X026833Y016500D01*
X026833Y018000D01*
X027083Y018250D01*
X027844Y018250D01*
X028214Y018272D02*
X028913Y018272D01*
X028913Y018154D02*
X028214Y018154D01*
X028174Y018035D02*
X028913Y018035D01*
X028913Y017917D02*
X028214Y017917D01*
X028214Y017925D02*
X028144Y017995D01*
X027544Y017995D01*
X027474Y017925D01*
X027474Y017575D01*
X027544Y017505D01*
X028144Y017505D01*
X028214Y017575D01*
X028214Y017925D01*
X028214Y017798D02*
X028913Y017798D01*
X028913Y017680D02*
X028214Y017680D01*
X028200Y017561D02*
X028913Y017561D01*
X028913Y017443D02*
X027013Y017443D01*
X027013Y017561D02*
X027488Y017561D01*
X027474Y017680D02*
X027013Y017680D01*
X027013Y017798D02*
X027474Y017798D01*
X027474Y017917D02*
X027013Y017917D01*
X027123Y018035D02*
X027514Y018035D01*
X027544Y018505D02*
X028144Y018505D01*
X028214Y018575D01*
X028214Y018580D01*
X028763Y018580D01*
X028913Y018430D01*
X028913Y013320D01*
X028784Y013191D01*
X028749Y013278D01*
X028611Y013415D01*
X028431Y013490D01*
X028236Y013490D01*
X028056Y013415D01*
X027918Y013278D01*
X027843Y013097D01*
X027843Y012903D01*
X027918Y012722D01*
X028056Y012585D01*
X028236Y012510D01*
X028431Y012510D01*
X028611Y012585D01*
X028749Y012722D01*
X028793Y012830D01*
X028904Y012830D01*
X029003Y012930D01*
X029163Y013090D01*
X029163Y012320D01*
X029013Y012170D01*
X028793Y012170D01*
X028749Y012278D01*
X028611Y012415D01*
X028431Y012490D01*
X028236Y012490D01*
X028056Y012415D01*
X027918Y012278D01*
X027843Y012097D01*
X027843Y011903D01*
X027918Y011722D01*
X028056Y011585D01*
X028236Y011510D01*
X028431Y011510D01*
X028611Y011585D01*
X028749Y011722D01*
X028793Y011830D01*
X029154Y011830D01*
X029253Y011930D01*
X029413Y012090D01*
X029413Y011320D01*
X029263Y011170D01*
X028793Y011170D01*
X028749Y011278D01*
X028611Y011415D01*
X028431Y011490D01*
X028236Y011490D01*
X028056Y011415D01*
X027918Y011278D01*
X027843Y011097D01*
X027843Y010903D01*
X027918Y010722D01*
X028056Y010585D01*
X028236Y010510D01*
X028431Y010510D01*
X028611Y010585D01*
X028749Y010722D01*
X028793Y010830D01*
X029404Y010830D01*
X029503Y010930D01*
X029663Y011090D01*
X029663Y010570D01*
X029263Y010170D01*
X028793Y010170D01*
X028749Y010278D01*
X028611Y010415D01*
X028431Y010490D01*
X028236Y010490D01*
X028056Y010415D01*
X027918Y010278D01*
X027843Y010097D01*
X027843Y009903D01*
X027918Y009722D01*
X028056Y009585D01*
X028236Y009510D01*
X028431Y009510D01*
X028611Y009585D01*
X028749Y009722D01*
X028793Y009830D01*
X029404Y009830D01*
X029503Y009930D01*
X030003Y010430D01*
X030003Y020070D01*
X029904Y020170D01*
X029654Y020420D01*
X028214Y020420D01*
X028214Y020425D01*
X028144Y020495D01*
X027544Y020495D01*
X027474Y020425D01*
X027474Y020075D01*
X027544Y020005D01*
X028144Y020005D01*
X028214Y020075D01*
X028214Y020080D01*
X029513Y020080D01*
X029663Y019930D01*
X029663Y019660D01*
X029654Y019670D01*
X029404Y019920D01*
X028214Y019920D01*
X028214Y019925D01*
X028144Y019995D01*
X027544Y019995D01*
X027474Y019925D01*
X027474Y019575D01*
X027544Y019505D01*
X028144Y019505D01*
X028214Y019575D01*
X028214Y019580D01*
X029263Y019580D01*
X029413Y019430D01*
X029413Y019160D01*
X029404Y019170D01*
X029154Y019420D01*
X028214Y019420D01*
X028214Y019425D01*
X028144Y019495D01*
X027544Y019495D01*
X027474Y019425D01*
X027474Y019075D01*
X027544Y019005D01*
X028144Y019005D01*
X028214Y019075D01*
X028214Y019080D01*
X029013Y019080D01*
X029163Y018930D01*
X029163Y018660D01*
X029154Y018670D01*
X028904Y018920D01*
X028214Y018920D01*
X028214Y018925D01*
X028144Y018995D01*
X027544Y018995D01*
X027474Y018925D01*
X027474Y018575D01*
X027544Y018505D01*
X027540Y018509D02*
X025013Y018509D01*
X025013Y018391D02*
X026969Y018391D01*
X026851Y018272D02*
X025013Y018272D01*
X025013Y018154D02*
X026732Y018154D01*
X026653Y018035D02*
X025013Y018035D01*
X025013Y017917D02*
X026653Y017917D01*
X026653Y017798D02*
X025013Y017798D01*
X025013Y017680D02*
X026653Y017680D01*
X026653Y017561D02*
X025013Y017561D01*
X025013Y017443D02*
X026653Y017443D01*
X026653Y017324D02*
X025013Y017324D01*
X025013Y017206D02*
X026653Y017206D01*
X026653Y017087D02*
X025013Y017087D01*
X025013Y016969D02*
X026653Y016969D01*
X026653Y016850D02*
X025013Y016850D01*
X025013Y016732D02*
X026653Y016732D01*
X026653Y016613D02*
X025013Y016613D01*
X025013Y016495D02*
X026573Y016495D01*
X026455Y016376D02*
X024964Y016376D01*
X024845Y016258D02*
X026336Y016258D01*
X026218Y016139D02*
X024727Y016139D01*
X024608Y016021D02*
X026153Y016021D01*
X026153Y015902D02*
X024490Y015902D01*
X024371Y015784D02*
X026153Y015784D01*
X026153Y015665D02*
X024253Y015665D01*
X024134Y015547D02*
X026153Y015547D01*
X026153Y015428D02*
X024016Y015428D01*
X023833Y015500D02*
X024833Y016500D01*
X024833Y021750D01*
X024333Y022250D01*
X023823Y022250D01*
X022583Y022250D01*
X022333Y022500D01*
X022333Y023500D01*
X022052Y023605D02*
X018513Y023605D01*
X018513Y023723D02*
X022132Y023723D01*
X022033Y023486D02*
X018513Y023486D01*
X018513Y023368D02*
X022063Y023368D01*
X022153Y023249D02*
X018513Y023249D01*
X018513Y023131D02*
X022153Y023131D01*
X022153Y023012D02*
X018513Y023012D01*
X018513Y022894D02*
X022153Y022894D01*
X022153Y022775D02*
X018513Y022775D01*
X018513Y022657D02*
X019016Y022657D01*
X019008Y022649D02*
X018987Y022613D01*
X018976Y022572D01*
X018976Y022373D01*
X019295Y022373D01*
X019295Y022711D01*
X019115Y022711D01*
X019075Y022700D01*
X019038Y022679D01*
X019008Y022649D01*
X018976Y022538D02*
X018513Y022538D01*
X018513Y022420D02*
X018976Y022420D01*
X018976Y022183D02*
X018513Y022183D01*
X018513Y022301D02*
X019295Y022301D01*
X019372Y022301D02*
X022278Y022301D01*
X022396Y022183D02*
X019690Y022183D01*
X019681Y022064D02*
X023464Y022064D01*
X023523Y021995D02*
X023458Y021930D01*
X020828Y021930D01*
X020753Y022004D01*
X020643Y022050D01*
X020524Y022050D01*
X020413Y022004D01*
X020329Y021920D01*
X020283Y021810D01*
X020283Y021690D01*
X020329Y021580D01*
X020413Y021496D01*
X020524Y021450D01*
X020643Y021450D01*
X020753Y021496D01*
X020828Y021570D01*
X023458Y021570D01*
X023523Y021505D01*
X024122Y021505D01*
X024193Y021575D01*
X024193Y021925D01*
X024122Y021995D01*
X023523Y021995D01*
X023473Y021946D02*
X020812Y021946D01*
X020583Y021750D02*
X023823Y021750D01*
X024193Y021709D02*
X024620Y021709D01*
X024653Y021590D02*
X024193Y021590D01*
X024122Y021495D02*
X023523Y021495D01*
X023458Y021430D01*
X023009Y021430D01*
X022903Y021325D01*
X022009Y020430D01*
X019908Y020430D01*
X019848Y020490D01*
X018879Y020490D01*
X018808Y020420D01*
X018808Y020080D01*
X018879Y020010D01*
X019848Y020010D01*
X019908Y020070D01*
X022149Y020070D01*
X021759Y019680D01*
X021259Y019680D01*
X020759Y019180D01*
X020653Y019075D01*
X020653Y018575D01*
X020528Y018450D01*
X020431Y018490D01*
X020236Y018490D01*
X020056Y018415D01*
X019918Y018278D01*
X019843Y018097D01*
X019843Y017903D01*
X019918Y017722D01*
X020056Y017585D01*
X020236Y017510D01*
X020431Y017510D01*
X020611Y017585D01*
X020749Y017722D01*
X020815Y017883D01*
X020816Y017876D01*
X020842Y017797D01*
X020880Y017722D01*
X020929Y017655D01*
X020988Y017596D01*
X021056Y017547D01*
X021130Y017509D01*
X021209Y017483D01*
X021292Y017470D01*
X021315Y017470D01*
X021315Y017981D01*
X021352Y017981D01*
X021352Y017470D01*
X021375Y017470D01*
X021457Y017483D01*
X021537Y017509D01*
X021611Y017547D01*
X021679Y017596D01*
X021738Y017655D01*
X021787Y017722D01*
X021825Y017797D01*
X021850Y017876D01*
X021851Y017883D01*
X021918Y017722D01*
X022056Y017585D01*
X022236Y017510D01*
X022431Y017510D01*
X022611Y017585D01*
X022749Y017722D01*
X022823Y017903D01*
X022823Y018097D01*
X022749Y018278D01*
X022611Y018415D01*
X022513Y018456D01*
X022513Y019425D01*
X023158Y020070D01*
X023458Y020070D01*
X023523Y020005D01*
X024122Y020005D01*
X024193Y020075D01*
X024193Y020425D01*
X024122Y020495D01*
X023523Y020495D01*
X023458Y020430D01*
X023018Y020430D01*
X023158Y020570D01*
X023458Y020570D01*
X023523Y020505D01*
X024122Y020505D01*
X024193Y020575D01*
X024193Y020925D01*
X024122Y020995D01*
X023523Y020995D01*
X023458Y020930D01*
X023018Y020930D01*
X023158Y021070D01*
X023458Y021070D01*
X023523Y021005D01*
X024122Y021005D01*
X024193Y021075D01*
X024193Y021425D01*
X024122Y021495D01*
X024146Y021472D02*
X024653Y021472D01*
X024653Y021353D02*
X024193Y021353D01*
X024193Y021235D02*
X024653Y021235D01*
X024653Y021116D02*
X024193Y021116D01*
X024193Y020879D02*
X024653Y020879D01*
X024653Y020761D02*
X024193Y020761D01*
X024193Y020642D02*
X024653Y020642D01*
X024653Y020524D02*
X024141Y020524D01*
X024193Y020405D02*
X024653Y020405D01*
X024653Y020287D02*
X024193Y020287D01*
X024193Y020168D02*
X024653Y020168D01*
X024653Y020050D02*
X024167Y020050D01*
X024122Y019995D02*
X023523Y019995D01*
X023453Y019925D01*
X023453Y019575D01*
X023523Y019505D01*
X024122Y019505D01*
X024193Y019575D01*
X024193Y019925D01*
X024122Y019995D01*
X024186Y019931D02*
X024653Y019931D01*
X024653Y019813D02*
X024193Y019813D01*
X024193Y019694D02*
X024653Y019694D01*
X024653Y019576D02*
X024193Y019576D01*
X024122Y019495D02*
X023523Y019495D01*
X023453Y019425D01*
X023453Y019075D01*
X023523Y019005D01*
X024122Y019005D01*
X024193Y019075D01*
X024193Y019425D01*
X024122Y019495D01*
X024160Y019457D02*
X024653Y019457D01*
X024653Y019339D02*
X024193Y019339D01*
X024193Y019220D02*
X024653Y019220D01*
X024653Y019102D02*
X024193Y019102D01*
X024122Y018995D02*
X023523Y018995D01*
X023453Y018925D01*
X023453Y018575D01*
X023523Y018505D01*
X024122Y018505D01*
X024193Y018575D01*
X024193Y018925D01*
X024122Y018995D01*
X024134Y018983D02*
X024653Y018983D01*
X024653Y018865D02*
X024193Y018865D01*
X024193Y018746D02*
X024653Y018746D01*
X024653Y018628D02*
X024193Y018628D01*
X024126Y018509D02*
X024653Y018509D01*
X024653Y018391D02*
X024193Y018391D01*
X024193Y018425D02*
X024122Y018495D01*
X023523Y018495D01*
X023453Y018425D01*
X023453Y018075D01*
X023506Y018022D01*
X023474Y018003D01*
X023444Y017973D01*
X023423Y017937D01*
X023413Y017896D01*
X023413Y017753D01*
X023820Y017753D01*
X023820Y017747D01*
X023825Y017747D01*
X023825Y017465D01*
X024094Y017465D01*
X024134Y017476D01*
X024171Y017497D01*
X024201Y017527D01*
X024222Y017563D01*
X024233Y017604D01*
X024233Y017747D01*
X023825Y017747D01*
X023825Y017753D01*
X024233Y017753D01*
X024233Y017896D01*
X024222Y017937D01*
X024201Y017973D01*
X024171Y018003D01*
X024139Y018022D01*
X024193Y018075D01*
X024193Y018425D01*
X024193Y018272D02*
X024653Y018272D01*
X024653Y018154D02*
X024193Y018154D01*
X024152Y018035D02*
X024653Y018035D01*
X024653Y017917D02*
X024227Y017917D01*
X024233Y017798D02*
X024653Y017798D01*
X024653Y017680D02*
X024233Y017680D01*
X024220Y017561D02*
X024653Y017561D01*
X024653Y017443D02*
X018030Y017443D01*
X017933Y017324D02*
X024653Y017324D01*
X024653Y017206D02*
X018052Y017206D01*
X018170Y017087D02*
X024653Y017087D01*
X024653Y016969D02*
X018289Y016969D01*
X018407Y016850D02*
X024653Y016850D01*
X024653Y016732D02*
X018526Y016732D01*
X018644Y016613D02*
X024653Y016613D01*
X024573Y016495D02*
X018763Y016495D01*
X018881Y016376D02*
X024455Y016376D01*
X024336Y016258D02*
X019000Y016258D01*
X019118Y016139D02*
X024218Y016139D01*
X024099Y016021D02*
X019237Y016021D01*
X019355Y015902D02*
X023981Y015902D01*
X023862Y015784D02*
X021968Y015784D01*
X021668Y015500D02*
X023833Y015500D01*
X023538Y014243D02*
X026153Y014243D01*
X026153Y014125D02*
X023545Y014125D01*
X023545Y013888D02*
X026153Y013888D01*
X026153Y014006D02*
X023206Y014006D01*
X023206Y013888D02*
X023130Y013888D01*
X023130Y013769D02*
X023206Y013769D01*
X023206Y013651D02*
X023130Y013651D01*
X022903Y013651D02*
X021848Y013651D01*
X021848Y013769D02*
X022162Y013769D01*
X021848Y013532D02*
X026153Y013532D01*
X026153Y013414D02*
X021848Y013414D01*
X021848Y013295D02*
X023593Y013295D01*
X023599Y013297D02*
X023520Y013271D01*
X023446Y013233D01*
X023378Y013184D01*
X023319Y013125D01*
X023270Y013058D01*
X022358Y013058D01*
X022408Y012940D02*
X023218Y012940D01*
X023206Y012904D02*
X023193Y012822D01*
X023193Y012820D01*
X023683Y012820D01*
X023683Y012740D01*
X023193Y012740D01*
X023193Y012738D01*
X023206Y012656D01*
X023232Y012577D01*
X023270Y012502D01*
X023319Y012435D01*
X023378Y012376D01*
X023446Y012327D01*
X023520Y012289D01*
X023599Y012263D01*
X023682Y012250D01*
X023683Y012250D01*
X023683Y012740D01*
X023763Y012740D01*
X023763Y012250D01*
X023765Y012250D01*
X023847Y012263D01*
X023927Y012289D01*
X024001Y012327D01*
X024069Y012376D01*
X024128Y012435D01*
X024177Y012502D01*
X024215Y012577D01*
X024240Y012656D01*
X024253Y012738D01*
X024253Y012740D01*
X023763Y012740D01*
X023763Y012820D01*
X023683Y012820D01*
X023683Y013310D01*
X023682Y013310D01*
X023599Y013297D01*
X023683Y013295D02*
X023763Y013295D01*
X023763Y013310D02*
X023763Y012820D01*
X024253Y012820D01*
X024253Y012822D01*
X024240Y012904D01*
X024215Y012983D01*
X024177Y013058D01*
X024128Y013125D01*
X024069Y013184D01*
X024001Y013233D01*
X023927Y013271D01*
X023847Y013297D01*
X023765Y013310D01*
X023763Y013310D01*
X023853Y013295D02*
X026153Y013295D01*
X026153Y013177D02*
X024076Y013177D01*
X024176Y013058D02*
X026153Y013058D01*
X026153Y012940D02*
X024229Y012940D01*
X024253Y012821D02*
X026153Y012821D01*
X026153Y012703D02*
X024248Y012703D01*
X024217Y012584D02*
X026153Y012584D01*
X026153Y012466D02*
X024150Y012466D01*
X024029Y012347D02*
X026153Y012347D01*
X026153Y012229D02*
X019513Y012229D01*
X019513Y012347D02*
X021708Y012347D01*
X021565Y012466D02*
X019513Y012466D01*
X019513Y012584D02*
X021494Y012584D01*
X021453Y012703D02*
X019513Y012703D01*
X019513Y012821D02*
X021453Y012821D01*
X021479Y012940D02*
X019513Y012940D01*
X019513Y013058D02*
X021488Y013058D01*
X021488Y013177D02*
X019513Y013177D01*
X019513Y013295D02*
X021488Y013295D01*
X021488Y013414D02*
X019513Y013414D01*
X019513Y013532D02*
X021488Y013532D01*
X021488Y013651D02*
X019513Y013651D01*
X019513Y013769D02*
X021488Y013769D01*
X021488Y013888D02*
X019513Y013888D01*
X019513Y014006D02*
X021488Y014006D01*
X021488Y014125D02*
X019513Y014125D01*
X019513Y014243D02*
X021488Y014243D01*
X021488Y014362D02*
X019513Y014362D01*
X019513Y014480D02*
X021488Y014480D01*
X021488Y014599D02*
X019513Y014599D01*
X019513Y014717D02*
X021488Y014717D01*
X021488Y014836D02*
X019513Y014836D01*
X019513Y014954D02*
X021488Y014954D01*
X021488Y015073D02*
X019513Y015073D01*
X019513Y015191D02*
X020725Y015191D01*
X020662Y015310D02*
X019513Y015310D01*
X019333Y015500D02*
X020999Y015500D01*
X021298Y015784D02*
X021368Y015784D01*
X021668Y015500D02*
X021668Y014000D01*
X022499Y014000D01*
X022162Y014243D02*
X021848Y014243D01*
X021848Y014362D02*
X026153Y014362D01*
X026153Y014480D02*
X021848Y014480D01*
X021848Y014599D02*
X026153Y014599D01*
X026153Y014717D02*
X021848Y014717D01*
X021848Y014836D02*
X026153Y014836D01*
X026153Y014954D02*
X021848Y014954D01*
X021848Y015073D02*
X026153Y015073D01*
X026153Y015191D02*
X021942Y015191D01*
X022005Y015310D02*
X026153Y015310D01*
X026513Y015310D02*
X027950Y015310D01*
X027918Y015278D02*
X027843Y015097D01*
X027843Y014903D01*
X027918Y014722D01*
X028056Y014585D01*
X028236Y014510D01*
X028431Y014510D01*
X028611Y014585D01*
X028749Y014722D01*
X028823Y014903D01*
X028823Y015097D01*
X028749Y015278D01*
X028611Y015415D01*
X028450Y015482D01*
X028457Y015483D01*
X028537Y015509D01*
X028611Y015547D01*
X028679Y015596D01*
X028738Y015655D01*
X028787Y015722D01*
X028825Y015797D01*
X028850Y015876D01*
X028863Y015958D01*
X028863Y015960D01*
X028373Y015960D01*
X028373Y016040D01*
X028293Y016040D01*
X028293Y015960D01*
X027803Y015960D01*
X027803Y015958D01*
X027816Y015876D01*
X027842Y015797D01*
X027880Y015722D01*
X027929Y015655D01*
X027988Y015596D01*
X028056Y015547D01*
X026513Y015547D01*
X026513Y015665D02*
X027922Y015665D01*
X027849Y015784D02*
X026513Y015784D01*
X026513Y015902D02*
X027812Y015902D01*
X027803Y016040D02*
X028293Y016040D01*
X028293Y016530D01*
X028292Y016530D01*
X028209Y016517D01*
X028130Y016491D01*
X028056Y016453D01*
X027988Y016404D01*
X027929Y016345D01*
X027880Y016278D01*
X027842Y016203D01*
X027816Y016124D01*
X027803Y016042D01*
X027803Y016040D01*
X027821Y016139D02*
X026727Y016139D01*
X026845Y016258D02*
X027870Y016258D01*
X027960Y016376D02*
X026964Y016376D01*
X027013Y016495D02*
X028140Y016495D01*
X028293Y016495D02*
X028373Y016495D01*
X028375Y016530D02*
X028373Y016530D01*
X028373Y016040D01*
X028863Y016040D01*
X028863Y016042D01*
X028850Y016124D01*
X028825Y016203D01*
X028787Y016278D01*
X028738Y016345D01*
X028679Y016404D01*
X028611Y016453D01*
X028537Y016491D01*
X028457Y016517D01*
X028375Y016530D01*
X028373Y016376D02*
X028293Y016376D01*
X028293Y016258D02*
X028373Y016258D01*
X028373Y016139D02*
X028293Y016139D01*
X028293Y016021D02*
X026608Y016021D01*
X027013Y016613D02*
X028913Y016613D01*
X028913Y016495D02*
X028526Y016495D01*
X028707Y016376D02*
X028913Y016376D01*
X028913Y016258D02*
X028797Y016258D01*
X028845Y016139D02*
X028913Y016139D01*
X028913Y016021D02*
X028373Y016021D01*
X028854Y015902D02*
X028913Y015902D01*
X028913Y015784D02*
X028818Y015784D01*
X028745Y015665D02*
X028913Y015665D01*
X028913Y015547D02*
X028611Y015547D01*
X028580Y015428D02*
X028913Y015428D01*
X028913Y015310D02*
X028717Y015310D01*
X028785Y015191D02*
X028913Y015191D01*
X028913Y015073D02*
X028823Y015073D01*
X028823Y014954D02*
X028913Y014954D01*
X028913Y014836D02*
X028796Y014836D01*
X028743Y014717D02*
X028913Y014717D01*
X028913Y014599D02*
X028625Y014599D01*
X028455Y014480D02*
X028913Y014480D01*
X028913Y014362D02*
X028665Y014362D01*
X028763Y014243D02*
X028913Y014243D01*
X028913Y014125D02*
X028812Y014125D01*
X028823Y014006D02*
X028913Y014006D01*
X028913Y013888D02*
X028817Y013888D01*
X028768Y013769D02*
X028913Y013769D01*
X028913Y013651D02*
X028677Y013651D01*
X028484Y013532D02*
X028913Y013532D01*
X028913Y013414D02*
X028613Y013414D01*
X028731Y013295D02*
X028888Y013295D01*
X029132Y013058D02*
X029163Y013058D01*
X029163Y012940D02*
X029013Y012940D01*
X029163Y012821D02*
X028790Y012821D01*
X028729Y012703D02*
X029163Y012703D01*
X029163Y012584D02*
X028609Y012584D01*
X028490Y012466D02*
X029163Y012466D01*
X029163Y012347D02*
X028679Y012347D01*
X028769Y012229D02*
X029071Y012229D01*
X029315Y011992D02*
X029413Y011992D01*
X029413Y011873D02*
X029197Y011873D01*
X029413Y011755D02*
X028762Y011755D01*
X028662Y011636D02*
X029413Y011636D01*
X029413Y011518D02*
X028449Y011518D01*
X028627Y011399D02*
X029413Y011399D01*
X029373Y011281D02*
X028746Y011281D01*
X028784Y010807D02*
X029663Y010807D01*
X029663Y010925D02*
X029499Y010925D01*
X029617Y011044D02*
X029663Y011044D01*
X030003Y011044D02*
X030065Y011044D01*
X030065Y011162D02*
X030003Y011162D01*
X030003Y011281D02*
X030065Y011281D01*
X030065Y011399D02*
X030003Y011399D01*
X030003Y011518D02*
X030065Y011518D01*
X030065Y011636D02*
X030003Y011636D01*
X030003Y011755D02*
X030065Y011755D01*
X030065Y011873D02*
X030003Y011873D01*
X030003Y011992D02*
X030065Y011992D01*
X030065Y012110D02*
X030003Y012110D01*
X030003Y012229D02*
X030065Y012229D01*
X030065Y012347D02*
X030003Y012347D01*
X030003Y012466D02*
X030065Y012466D01*
X030065Y012584D02*
X030003Y012584D01*
X030003Y012703D02*
X030065Y012703D01*
X030065Y012821D02*
X030003Y012821D01*
X030003Y012940D02*
X030065Y012940D01*
X030065Y013058D02*
X030003Y013058D01*
X030003Y013177D02*
X030065Y013177D01*
X030065Y013295D02*
X030003Y013295D01*
X030003Y013414D02*
X030065Y013414D01*
X030065Y013532D02*
X030003Y013532D01*
X030003Y013651D02*
X030065Y013651D01*
X030065Y013769D02*
X030003Y013769D01*
X030003Y013888D02*
X030065Y013888D01*
X030065Y014006D02*
X030003Y014006D01*
X030003Y014125D02*
X030065Y014125D01*
X030065Y014243D02*
X030003Y014243D01*
X030003Y014362D02*
X030065Y014362D01*
X030065Y014480D02*
X030003Y014480D01*
X030003Y014599D02*
X030065Y014599D01*
X030065Y014717D02*
X030003Y014717D01*
X030003Y014836D02*
X030065Y014836D01*
X030065Y014954D02*
X030003Y014954D01*
X030003Y015073D02*
X030065Y015073D01*
X030065Y015191D02*
X030003Y015191D01*
X030003Y015310D02*
X030065Y015310D01*
X030065Y015428D02*
X030003Y015428D01*
X030003Y015547D02*
X030065Y015547D01*
X030065Y015665D02*
X030003Y015665D01*
X030003Y015784D02*
X030065Y015784D01*
X030065Y015902D02*
X030003Y015902D01*
X030003Y016021D02*
X030065Y016021D01*
X030065Y016139D02*
X030003Y016139D01*
X030003Y016258D02*
X030065Y016258D01*
X030065Y016376D02*
X030003Y016376D01*
X030003Y016495D02*
X030065Y016495D01*
X030065Y016613D02*
X030003Y016613D01*
X030003Y016732D02*
X030065Y016732D01*
X030065Y016850D02*
X030003Y016850D01*
X030003Y016969D02*
X030065Y016969D01*
X030065Y017087D02*
X030003Y017087D01*
X030003Y017206D02*
X030065Y017206D01*
X030065Y017324D02*
X030003Y017324D01*
X030003Y017443D02*
X030065Y017443D01*
X030065Y017561D02*
X030003Y017561D01*
X030003Y017680D02*
X030065Y017680D01*
X030065Y017798D02*
X030003Y017798D01*
X030003Y017917D02*
X030065Y017917D01*
X030065Y018035D02*
X030003Y018035D01*
X030003Y018154D02*
X030065Y018154D01*
X030065Y018272D02*
X030003Y018272D01*
X030003Y018391D02*
X030065Y018391D01*
X030065Y018509D02*
X030003Y018509D01*
X030003Y018628D02*
X030065Y018628D01*
X030065Y018746D02*
X030003Y018746D01*
X030003Y018865D02*
X030065Y018865D01*
X030065Y018983D02*
X030003Y018983D01*
X030003Y019102D02*
X030065Y019102D01*
X030065Y019220D02*
X030003Y019220D01*
X030003Y019339D02*
X030065Y019339D01*
X030065Y019457D02*
X030003Y019457D01*
X030003Y019576D02*
X030065Y019576D01*
X030065Y019694D02*
X030003Y019694D01*
X030003Y019813D02*
X030065Y019813D01*
X030065Y019931D02*
X030003Y019931D01*
X030003Y020050D02*
X030065Y020050D01*
X030065Y020168D02*
X029906Y020168D01*
X029787Y020287D02*
X030065Y020287D01*
X030065Y020405D02*
X029669Y020405D01*
X029543Y020050D02*
X028188Y020050D01*
X028208Y019931D02*
X029662Y019931D01*
X029663Y019813D02*
X029511Y019813D01*
X029630Y019694D02*
X029663Y019694D01*
X029386Y019457D02*
X028182Y019457D01*
X028214Y019576D02*
X029267Y019576D01*
X029235Y019339D02*
X029413Y019339D01*
X029413Y019220D02*
X029354Y019220D01*
X029110Y018983D02*
X028156Y018983D01*
X028148Y018509D02*
X028834Y018509D01*
X028913Y018391D02*
X028214Y018391D01*
X027474Y018628D02*
X025013Y018628D01*
X025013Y018746D02*
X027474Y018746D01*
X027474Y018865D02*
X025013Y018865D01*
X025013Y018983D02*
X027532Y018983D01*
X027474Y019102D02*
X025013Y019102D01*
X025013Y019220D02*
X027474Y019220D01*
X027474Y019339D02*
X025013Y019339D01*
X025013Y019457D02*
X027506Y019457D01*
X027474Y019576D02*
X025013Y019576D01*
X025013Y019694D02*
X027474Y019694D01*
X027474Y019813D02*
X025013Y019813D01*
X025013Y019931D02*
X027480Y019931D01*
X027500Y020050D02*
X025013Y020050D01*
X025013Y020168D02*
X027474Y020168D01*
X027474Y020287D02*
X025013Y020287D01*
X025013Y020405D02*
X027474Y020405D01*
X027544Y020505D02*
X028144Y020505D01*
X028214Y020575D01*
X028214Y020925D01*
X028144Y020995D01*
X027544Y020995D01*
X027479Y020930D01*
X026658Y020930D01*
X026518Y021070D01*
X027479Y021070D01*
X027544Y021005D01*
X028144Y021005D01*
X028214Y021075D01*
X028214Y021425D01*
X028144Y021495D01*
X027544Y021495D01*
X027479Y021430D01*
X026658Y021430D01*
X026513Y021575D01*
X026513Y024256D01*
X026588Y024330D01*
X026633Y024440D01*
X026633Y024560D01*
X026588Y024670D01*
X026503Y024754D01*
X026393Y024800D01*
X026274Y024800D01*
X026163Y024754D01*
X026079Y024670D01*
X026033Y024560D01*
X026033Y024440D01*
X026079Y024330D01*
X026153Y024256D01*
X026153Y021435D01*
X026013Y021575D01*
X026013Y023575D01*
X025133Y024455D01*
X025133Y024560D01*
X025088Y024670D01*
X025003Y024754D01*
X024893Y024800D01*
X024774Y024800D01*
X024663Y024754D01*
X024579Y024670D01*
X024533Y024560D01*
X024533Y024440D01*
X024579Y024330D01*
X024663Y024246D01*
X024774Y024200D01*
X024879Y024200D01*
X025653Y023425D01*
X025653Y021425D01*
X025759Y021320D01*
X026509Y020570D01*
X027479Y020570D01*
X027544Y020505D01*
X027526Y020524D02*
X025013Y020524D01*
X025013Y020642D02*
X026437Y020642D01*
X026318Y020761D02*
X025013Y020761D01*
X025013Y020879D02*
X026200Y020879D01*
X026081Y020998D02*
X025013Y020998D01*
X025013Y021116D02*
X025963Y021116D01*
X025844Y021235D02*
X025013Y021235D01*
X025013Y021353D02*
X025726Y021353D01*
X025653Y021472D02*
X025013Y021472D01*
X025013Y021590D02*
X025653Y021590D01*
X025653Y021709D02*
X025013Y021709D01*
X025011Y021827D02*
X025653Y021827D01*
X025653Y021946D02*
X024892Y021946D01*
X024774Y022064D02*
X025653Y022064D01*
X025653Y022183D02*
X024655Y022183D01*
X024537Y022301D02*
X025653Y022301D01*
X025653Y022420D02*
X024418Y022420D01*
X024265Y022064D02*
X024181Y022064D01*
X024172Y021946D02*
X024383Y021946D01*
X024502Y021827D02*
X024193Y021827D01*
X023823Y021250D02*
X023083Y021250D01*
X022083Y020250D01*
X019363Y020250D01*
X019363Y020750D02*
X018583Y020750D01*
X018333Y020500D01*
X018333Y018000D01*
X017668Y017335D01*
X019333Y015669D01*
X019333Y015500D01*
X019333Y010500D01*
X018833Y010000D01*
X018946Y009859D02*
X021612Y009859D01*
X021514Y009977D02*
X019065Y009977D01*
X019183Y010096D02*
X021465Y010096D01*
X021453Y010214D02*
X019302Y010214D01*
X019420Y010333D02*
X021460Y010333D01*
X021509Y010451D02*
X019513Y010451D01*
X019513Y010570D02*
X021600Y010570D01*
X021793Y010688D02*
X019513Y010688D01*
X019513Y010807D02*
X026153Y010807D01*
X026153Y010925D02*
X019513Y010925D01*
X019513Y011044D02*
X026153Y011044D01*
X026153Y011162D02*
X019513Y011162D01*
X019513Y011281D02*
X026153Y011281D01*
X026153Y011399D02*
X019513Y011399D01*
X019513Y011518D02*
X026153Y011518D01*
X026153Y011636D02*
X019513Y011636D01*
X019513Y011755D02*
X026153Y011755D01*
X026153Y011873D02*
X019513Y011873D01*
X019513Y011992D02*
X026153Y011992D01*
X026153Y012110D02*
X019513Y012110D01*
X019153Y012110D02*
X016173Y012110D01*
X016173Y011992D02*
X019153Y011992D01*
X019153Y011873D02*
X016173Y011873D01*
X016128Y011755D02*
X019153Y011755D01*
X019153Y011636D02*
X015059Y011636D01*
X014940Y011518D02*
X019153Y011518D01*
X019153Y011399D02*
X014822Y011399D01*
X014703Y011281D02*
X015079Y011281D01*
X015075Y011278D02*
X015045Y011248D01*
X015024Y011212D01*
X015013Y011171D01*
X015013Y010970D01*
X015553Y010970D01*
X015553Y010850D01*
X015013Y010850D01*
X015013Y010649D01*
X015024Y010608D01*
X015045Y010572D01*
X015075Y010542D01*
X015112Y010521D01*
X015152Y010510D01*
X015553Y010510D01*
X015553Y010850D01*
X015673Y010850D01*
X015673Y010510D01*
X016074Y010510D01*
X016115Y010521D01*
X016152Y010542D01*
X016181Y010572D01*
X016202Y010608D01*
X016213Y010649D01*
X016213Y010850D01*
X015673Y010850D01*
X015673Y010970D01*
X015553Y010970D01*
X015553Y011310D01*
X015152Y011310D01*
X015112Y011299D01*
X015075Y011278D01*
X015013Y011162D02*
X014585Y011162D01*
X014462Y011044D02*
X015013Y011044D01*
X015013Y010807D02*
X013621Y010807D01*
X013621Y010925D02*
X015553Y010925D01*
X015553Y010807D02*
X015673Y010807D01*
X015673Y010925D02*
X019153Y010925D01*
X019153Y010807D02*
X018558Y010807D01*
X018606Y010688D02*
X019153Y010688D01*
X019148Y010570D02*
X018606Y010570D01*
X018606Y010451D02*
X019030Y010451D01*
X018911Y010333D02*
X018606Y010333D01*
X018606Y010214D02*
X018793Y010214D01*
X018333Y010000D02*
X018053Y010000D01*
X017500Y009740D02*
X016173Y009740D01*
X016169Y009385D02*
X017500Y009385D01*
X017500Y009503D02*
X014176Y009503D01*
X014294Y009622D02*
X017500Y009622D01*
X017500Y009266D02*
X016173Y009266D01*
X016131Y010333D02*
X017500Y010333D01*
X017500Y010451D02*
X013621Y010451D01*
X013621Y010333D02*
X015096Y010333D01*
X015048Y010570D02*
X013621Y010570D01*
X013621Y010587D02*
X013337Y010587D01*
X013337Y010037D01*
X013482Y010037D01*
X013523Y010048D01*
X013560Y010069D01*
X013589Y010099D01*
X013610Y010135D01*
X013621Y010176D01*
X013621Y010587D01*
X013621Y010688D02*
X015013Y010688D01*
X015553Y010688D02*
X015673Y010688D01*
X015673Y010570D02*
X015553Y010570D01*
X015673Y010970D02*
X016213Y010970D01*
X016213Y011171D01*
X016202Y011212D01*
X016181Y011248D01*
X016152Y011278D01*
X016115Y011299D01*
X016074Y011310D01*
X015673Y011310D01*
X015673Y010970D01*
X015673Y011044D02*
X015553Y011044D01*
X015553Y011162D02*
X015673Y011162D01*
X015673Y011281D02*
X015553Y011281D01*
X016147Y011281D02*
X019153Y011281D01*
X019153Y011162D02*
X016213Y011162D01*
X016213Y011044D02*
X019153Y011044D01*
X019153Y012229D02*
X018593Y012229D01*
X018606Y012347D02*
X019153Y012347D01*
X019153Y012466D02*
X018606Y012466D01*
X018606Y012584D02*
X019153Y012584D01*
X019153Y012703D02*
X018606Y012703D01*
X018606Y012821D02*
X019153Y012821D01*
X019153Y012940D02*
X018606Y012940D01*
X018606Y013058D02*
X019153Y013058D01*
X019153Y013177D02*
X018606Y013177D01*
X018606Y013295D02*
X019153Y013295D01*
X019153Y013414D02*
X018606Y013414D01*
X018606Y013532D02*
X019153Y013532D01*
X019153Y013651D02*
X018606Y013651D01*
X018596Y013769D02*
X019153Y013769D01*
X019153Y013888D02*
X018253Y013888D01*
X018253Y014006D02*
X019153Y014006D01*
X019153Y014125D02*
X018253Y014125D01*
X018526Y014243D02*
X019153Y014243D01*
X019153Y014362D02*
X018620Y014362D01*
X018651Y014480D02*
X019153Y014480D01*
X019153Y014599D02*
X018637Y014599D01*
X018566Y014717D02*
X019153Y014717D01*
X019153Y014836D02*
X014904Y014836D01*
X014904Y014954D02*
X016545Y014954D01*
X016548Y014949D02*
X016578Y014919D01*
X016614Y014898D01*
X016655Y014887D01*
X016815Y014887D01*
X016815Y015186D01*
X016516Y015186D01*
X016516Y015026D01*
X016527Y014985D01*
X016548Y014949D01*
X016516Y015073D02*
X014904Y015073D01*
X014904Y015191D02*
X016815Y015191D01*
X016852Y015191D02*
X019153Y015191D01*
X019153Y015073D02*
X017151Y015073D01*
X017122Y014954D02*
X019153Y014954D01*
X019153Y015310D02*
X017151Y015310D01*
X017138Y015428D02*
X019153Y015428D01*
X019153Y015547D02*
X017069Y015547D01*
X017111Y015665D02*
X019083Y015665D01*
X018965Y015784D02*
X017111Y015784D01*
X017111Y015902D02*
X018846Y015902D01*
X018728Y016021D02*
X017093Y016021D01*
X017013Y016139D02*
X018609Y016139D01*
X018491Y016258D02*
X017013Y016258D01*
X017127Y016376D02*
X018372Y016376D01*
X018254Y016495D02*
X017150Y016495D01*
X017150Y016613D02*
X018135Y016613D01*
X018017Y016732D02*
X017150Y016732D01*
X017150Y016850D02*
X017898Y016850D01*
X017780Y016969D02*
X017113Y016969D01*
X017150Y017087D02*
X017661Y017087D01*
X017668Y017335D02*
X016833Y017335D01*
X016516Y017324D02*
X014904Y017324D01*
X014904Y017206D02*
X016516Y017206D01*
X016516Y017087D02*
X014904Y017087D01*
X014904Y016969D02*
X016553Y016969D01*
X016516Y016850D02*
X014904Y016850D01*
X014904Y016732D02*
X016516Y016732D01*
X016516Y016613D02*
X014904Y016613D01*
X014904Y016495D02*
X016516Y016495D01*
X016540Y016376D02*
X014904Y016376D01*
X014904Y016258D02*
X016653Y016258D01*
X016653Y016139D02*
X014904Y016139D01*
X014904Y016021D02*
X016574Y016021D01*
X016556Y015902D02*
X014904Y015902D01*
X014904Y015784D02*
X016556Y015784D01*
X016556Y015665D02*
X014904Y015665D01*
X014904Y015547D02*
X016597Y015547D01*
X016529Y015428D02*
X014904Y015428D01*
X014904Y015310D02*
X016516Y015310D01*
X016815Y015073D02*
X016852Y015073D01*
X016852Y014954D02*
X016815Y014954D01*
X016152Y014278D02*
X016115Y014299D01*
X016074Y014310D01*
X015673Y014310D01*
X015673Y013970D01*
X015553Y013970D01*
X015553Y013850D01*
X015013Y013850D01*
X015013Y013649D01*
X015024Y013608D01*
X015045Y013572D01*
X015075Y013542D01*
X015112Y013521D01*
X015152Y013510D01*
X015553Y013510D01*
X015553Y013850D01*
X015673Y013850D01*
X015673Y013510D01*
X016074Y013510D01*
X016115Y013521D01*
X016152Y013542D01*
X016181Y013572D01*
X016202Y013608D01*
X016213Y013649D01*
X016213Y013850D01*
X015673Y013850D01*
X015673Y013970D01*
X016213Y013970D01*
X016213Y014171D01*
X016202Y014212D01*
X016181Y014248D01*
X016152Y014278D01*
X016184Y014243D02*
X017853Y014243D01*
X017853Y014125D02*
X016213Y014125D01*
X016213Y014006D02*
X017853Y014006D01*
X017853Y013888D02*
X015673Y013888D01*
X015673Y014006D02*
X015553Y014006D01*
X015553Y013970D02*
X015553Y014310D01*
X015152Y014310D01*
X015112Y014299D01*
X015075Y014278D01*
X015045Y014248D01*
X015024Y014212D01*
X015013Y014171D01*
X015013Y013970D01*
X015553Y013970D01*
X015553Y013888D02*
X014904Y013888D01*
X014904Y014006D02*
X015013Y014006D01*
X015013Y014125D02*
X014904Y014125D01*
X014904Y014243D02*
X015042Y014243D01*
X014904Y014362D02*
X017912Y014362D01*
X018015Y014480D02*
X014904Y014480D01*
X014904Y014599D02*
X018030Y014599D01*
X018100Y014717D02*
X014904Y014717D01*
X014424Y014717D02*
X003093Y014717D01*
X003093Y014599D02*
X014424Y014599D01*
X014424Y014480D02*
X003093Y014480D01*
X003093Y014362D02*
X014424Y014362D01*
X014424Y014243D02*
X003093Y014243D01*
X003093Y014125D02*
X014424Y014125D01*
X014424Y014006D02*
X003093Y014006D01*
X003093Y013888D02*
X014424Y013888D01*
X014424Y013769D02*
X003093Y013769D01*
X003093Y013651D02*
X014424Y013651D01*
X014424Y013532D02*
X013614Y013532D01*
X013610Y013546D02*
X013589Y013582D01*
X013560Y013612D01*
X013523Y013633D01*
X013482Y013644D01*
X013337Y013644D01*
X013337Y013095D01*
X013329Y013095D01*
X013329Y013644D01*
X013184Y013644D01*
X013144Y013633D01*
X013107Y013612D01*
X013077Y013582D01*
X013056Y013546D01*
X013045Y013505D01*
X013045Y013095D01*
X013329Y013095D01*
X013329Y013087D01*
X013045Y013087D01*
X013045Y012676D01*
X013056Y012635D01*
X013077Y012599D01*
X013107Y012569D01*
X013144Y012548D01*
X013184Y012537D01*
X013329Y012537D01*
X013329Y013087D01*
X013337Y013087D01*
X013337Y013095D01*
X013621Y013095D01*
X013621Y013505D01*
X013610Y013546D01*
X013621Y013414D02*
X014424Y013414D01*
X014424Y013295D02*
X013621Y013295D01*
X013621Y013177D02*
X014424Y013177D01*
X014450Y013058D02*
X013621Y013058D01*
X013621Y013087D02*
X013337Y013087D01*
X013337Y012537D01*
X013482Y012537D01*
X013523Y012548D01*
X013560Y012569D01*
X013589Y012599D01*
X013610Y012635D01*
X013621Y012676D01*
X013621Y013087D01*
X013621Y012940D02*
X014433Y012940D01*
X014315Y012821D02*
X013621Y012821D01*
X013621Y012703D02*
X014196Y012703D01*
X014078Y012584D02*
X013575Y012584D01*
X013581Y012347D02*
X013841Y012347D01*
X013959Y012466D02*
X009232Y012466D01*
X009232Y012584D02*
X010592Y012584D01*
X010577Y012599D02*
X010607Y012569D01*
X010644Y012548D01*
X010684Y012537D01*
X010829Y012537D01*
X010829Y013087D01*
X010545Y013087D01*
X010545Y012676D01*
X010556Y012635D01*
X010577Y012599D01*
X010545Y012703D02*
X009213Y012703D01*
X009181Y012821D02*
X010545Y012821D01*
X010545Y012940D02*
X009134Y012940D01*
X009065Y013058D02*
X010545Y013058D01*
X010545Y013095D02*
X010829Y013095D01*
X010829Y013644D01*
X010684Y013644D01*
X010644Y013633D01*
X010607Y013612D01*
X010577Y013582D01*
X010556Y013546D01*
X010545Y013505D01*
X010545Y013095D01*
X010545Y013177D02*
X008972Y013177D01*
X008853Y013295D02*
X010545Y013295D01*
X010545Y013414D02*
X008655Y013414D01*
X007799Y013414D02*
X006375Y013414D01*
X006371Y013416D02*
X006265Y013467D01*
X006155Y013506D01*
X006040Y013532D01*
X005925Y013545D01*
X005925Y012560D01*
X006910Y012560D01*
X006897Y012675D01*
X006871Y012790D01*
X006832Y012901D01*
X006781Y013006D01*
X006718Y013106D01*
X006645Y013197D01*
X006562Y013280D01*
X006470Y013354D01*
X006371Y013416D01*
X006544Y013295D02*
X007601Y013295D01*
X007482Y013177D02*
X006662Y013177D01*
X006748Y013058D02*
X007389Y013058D01*
X007320Y012940D02*
X006813Y012940D01*
X006860Y012821D02*
X007273Y012821D01*
X007241Y012703D02*
X006890Y012703D01*
X006907Y012584D02*
X007222Y012584D01*
X007222Y012466D02*
X005925Y012466D01*
X005925Y012440D02*
X005925Y012560D01*
X005805Y012560D01*
X005805Y013545D01*
X005690Y013532D01*
X005575Y013506D01*
X005464Y013467D01*
X005359Y013416D01*
X005259Y013354D01*
X005167Y013280D01*
X005084Y013197D01*
X005011Y013106D01*
X004949Y013006D01*
X004898Y012901D01*
X004859Y012790D01*
X004833Y012675D01*
X004820Y012560D01*
X005805Y012560D01*
X005805Y012440D01*
X005925Y012440D01*
X006910Y012440D01*
X006897Y012325D01*
X006871Y012210D01*
X006832Y012099D01*
X006781Y011994D01*
X006718Y011894D01*
X006645Y011803D01*
X006562Y011720D01*
X006470Y011646D01*
X006371Y011584D01*
X006265Y011533D01*
X006155Y011494D01*
X006040Y011468D01*
X005925Y011455D01*
X005925Y012440D01*
X005925Y012347D02*
X005805Y012347D01*
X005805Y012440D02*
X005805Y011455D01*
X005690Y011468D01*
X005575Y011494D01*
X005464Y011533D01*
X005359Y011584D01*
X005259Y011646D01*
X005167Y011720D01*
X005084Y011803D01*
X005011Y011894D01*
X004949Y011994D01*
X004898Y012099D01*
X004859Y012210D01*
X004833Y012325D01*
X004820Y012440D01*
X005805Y012440D01*
X005805Y012466D02*
X003093Y012466D01*
X003093Y012584D02*
X004823Y012584D01*
X004839Y012703D02*
X003093Y012703D01*
X003093Y012821D02*
X004870Y012821D01*
X004917Y012940D02*
X003093Y012940D01*
X003093Y013058D02*
X004981Y013058D01*
X005068Y013177D02*
X003093Y013177D01*
X003093Y013295D02*
X005186Y013295D01*
X005355Y013414D02*
X003093Y013414D01*
X003093Y013532D02*
X005691Y013532D01*
X005805Y013532D02*
X005925Y013532D01*
X006039Y013532D02*
X010553Y013532D01*
X010829Y013532D02*
X010837Y013532D01*
X010837Y013644D02*
X010837Y013095D01*
X010829Y013095D01*
X010829Y013087D01*
X010837Y013087D01*
X010837Y013095D01*
X011121Y013095D01*
X011121Y013505D01*
X011110Y013546D01*
X011089Y013582D01*
X011060Y013612D01*
X011023Y013633D01*
X010982Y013644D01*
X010837Y013644D01*
X010829Y013414D02*
X010837Y013414D01*
X010829Y013295D02*
X010837Y013295D01*
X010829Y013177D02*
X010837Y013177D01*
X010837Y013087D02*
X011121Y013087D01*
X011121Y012676D01*
X011110Y012635D01*
X011089Y012599D01*
X011060Y012569D01*
X011023Y012548D01*
X010982Y012537D01*
X010837Y012537D01*
X010837Y013087D01*
X010837Y013058D02*
X010829Y013058D01*
X010829Y012940D02*
X010837Y012940D01*
X010829Y012821D02*
X010837Y012821D01*
X010829Y012703D02*
X010837Y012703D01*
X010829Y012584D02*
X010837Y012584D01*
X011075Y012584D02*
X013092Y012584D01*
X013045Y012703D02*
X011121Y012703D01*
X011121Y012821D02*
X013045Y012821D01*
X013045Y012940D02*
X011121Y012940D01*
X011121Y013058D02*
X013045Y013058D01*
X013045Y013177D02*
X011121Y013177D01*
X011121Y013295D02*
X013045Y013295D01*
X013045Y013414D02*
X011121Y013414D01*
X011114Y013532D02*
X013053Y013532D01*
X013329Y013532D02*
X013337Y013532D01*
X013329Y013414D02*
X013337Y013414D01*
X013329Y013295D02*
X013337Y013295D01*
X013329Y013177D02*
X013337Y013177D01*
X013329Y013058D02*
X013337Y013058D01*
X013329Y012940D02*
X013337Y012940D01*
X013329Y012821D02*
X013337Y012821D01*
X013329Y012703D02*
X013337Y012703D01*
X013329Y012584D02*
X013337Y012584D01*
X013085Y012347D02*
X011081Y012347D01*
X011081Y012229D02*
X013085Y012229D01*
X013085Y012110D02*
X011081Y012110D01*
X011091Y011992D02*
X013085Y011992D01*
X013085Y011873D02*
X011209Y011873D01*
X011328Y011755D02*
X013085Y011755D01*
X013085Y011636D02*
X011446Y011636D01*
X011565Y011518D02*
X013085Y011518D01*
X013581Y011518D02*
X014261Y011518D01*
X014380Y011636D02*
X013581Y011636D01*
X013581Y011755D02*
X014498Y011755D01*
X014617Y011873D02*
X014046Y011873D01*
X014164Y011992D02*
X014735Y011992D01*
X014854Y012110D02*
X014283Y012110D01*
X014401Y012229D02*
X014972Y012229D01*
X014970Y012226D02*
X014970Y012226D01*
X015053Y012347D02*
X014520Y012347D01*
X014638Y012466D02*
X017500Y012466D01*
X017500Y012584D02*
X014757Y012584D01*
X014875Y012703D02*
X015061Y012703D01*
X015059Y013295D02*
X014904Y013295D01*
X014904Y013414D02*
X017500Y013414D01*
X017500Y013532D02*
X016134Y013532D01*
X016213Y013651D02*
X017500Y013651D01*
X017511Y013769D02*
X016213Y013769D01*
X015673Y013769D02*
X015553Y013769D01*
X015553Y013651D02*
X015673Y013651D01*
X015673Y013532D02*
X015553Y013532D01*
X015092Y013532D02*
X014904Y013532D01*
X014904Y013651D02*
X015013Y013651D01*
X015013Y013769D02*
X014904Y013769D01*
X015553Y014125D02*
X015673Y014125D01*
X015673Y014243D02*
X015553Y014243D01*
X016168Y013295D02*
X017500Y013295D01*
X017500Y012703D02*
X016166Y012703D01*
X016173Y012347D02*
X017500Y012347D01*
X017513Y012229D02*
X016173Y012229D01*
X016213Y010807D02*
X017548Y010807D01*
X017500Y010688D02*
X016213Y010688D01*
X016179Y010570D02*
X017500Y010570D01*
X018513Y009029D02*
X025608Y009029D01*
X025489Y008911D02*
X018513Y008911D01*
X018513Y008792D02*
X025371Y008792D01*
X025252Y008674D02*
X018513Y008674D01*
X018513Y008555D02*
X025134Y008555D01*
X025015Y008437D02*
X018513Y008437D01*
X018406Y008318D02*
X024897Y008318D01*
X024778Y008200D02*
X018287Y008200D01*
X018169Y008081D02*
X024660Y008081D01*
X024541Y007963D02*
X018050Y007963D01*
X017932Y007844D02*
X024423Y007844D01*
X024695Y007607D02*
X030065Y007607D01*
X030065Y007489D02*
X024576Y007489D01*
X024458Y007370D02*
X028056Y007370D01*
X027798Y007252D02*
X024339Y007252D01*
X024221Y007133D02*
X027679Y007133D01*
X027561Y007015D02*
X024102Y007015D01*
X023984Y006896D02*
X027512Y006896D01*
X027463Y006778D02*
X017772Y006778D01*
X017685Y006659D02*
X027423Y006659D01*
X027423Y006541D02*
X017504Y006541D01*
X017162Y006541D02*
X016504Y006541D01*
X017333Y007000D02*
X023833Y007000D01*
X024813Y007726D02*
X030065Y007726D01*
X030065Y007844D02*
X024932Y007844D01*
X025050Y007963D02*
X030065Y007963D01*
X030065Y008081D02*
X025169Y008081D01*
X025287Y008200D02*
X030065Y008200D01*
X030065Y008318D02*
X025406Y008318D01*
X025524Y008437D02*
X030065Y008437D01*
X030065Y008555D02*
X025643Y008555D01*
X025761Y008674D02*
X030065Y008674D01*
X030065Y008792D02*
X025880Y008792D01*
X025998Y008911D02*
X030065Y008911D01*
X030065Y009029D02*
X026117Y009029D01*
X026235Y009148D02*
X030065Y009148D01*
X030065Y009266D02*
X026354Y009266D01*
X026472Y009385D02*
X030065Y009385D01*
X030065Y009503D02*
X026513Y009503D01*
X026513Y009622D02*
X028019Y009622D01*
X027911Y009740D02*
X026513Y009740D01*
X026513Y009859D02*
X027862Y009859D01*
X027843Y009977D02*
X026513Y009977D01*
X026513Y010096D02*
X027843Y010096D01*
X027892Y010214D02*
X026513Y010214D01*
X026513Y010333D02*
X027973Y010333D01*
X028142Y010451D02*
X026513Y010451D01*
X026513Y010570D02*
X028092Y010570D01*
X027952Y010688D02*
X026513Y010688D01*
X026513Y010807D02*
X027883Y010807D01*
X027843Y010925D02*
X026513Y010925D01*
X026513Y011044D02*
X027843Y011044D01*
X027870Y011162D02*
X026513Y011162D01*
X026513Y011281D02*
X027921Y011281D01*
X028039Y011399D02*
X026513Y011399D01*
X026513Y011518D02*
X028218Y011518D01*
X028004Y011636D02*
X026513Y011636D01*
X026513Y011755D02*
X027905Y011755D01*
X027856Y011873D02*
X026513Y011873D01*
X026513Y011992D02*
X027843Y011992D01*
X027849Y012110D02*
X026513Y012110D01*
X026513Y012229D02*
X027898Y012229D01*
X027987Y012347D02*
X026513Y012347D01*
X026513Y012466D02*
X028177Y012466D01*
X028057Y012584D02*
X026513Y012584D01*
X026513Y012703D02*
X027938Y012703D01*
X027877Y012821D02*
X026513Y012821D01*
X026513Y012940D02*
X027843Y012940D01*
X027843Y013058D02*
X026513Y013058D01*
X026513Y013177D02*
X027876Y013177D01*
X027935Y013295D02*
X026513Y013295D01*
X026513Y013414D02*
X028054Y013414D01*
X028183Y013532D02*
X026513Y013532D01*
X026513Y013651D02*
X027990Y013651D01*
X027899Y013769D02*
X026513Y013769D01*
X026153Y013769D02*
X023541Y013769D01*
X023433Y013651D02*
X026153Y013651D01*
X026513Y014243D02*
X027904Y014243D01*
X028002Y014362D02*
X026513Y014362D01*
X026513Y014480D02*
X028212Y014480D01*
X028042Y014599D02*
X026513Y014599D01*
X026513Y014717D02*
X027923Y014717D01*
X027871Y014836D02*
X026513Y014836D01*
X026513Y014954D02*
X027843Y014954D01*
X027843Y015073D02*
X026513Y015073D01*
X026513Y015191D02*
X027882Y015191D01*
X027918Y015278D02*
X028056Y015415D01*
X028216Y015482D01*
X028209Y015483D01*
X028130Y015509D01*
X028056Y015547D01*
X028086Y015428D02*
X026513Y015428D01*
X027013Y016732D02*
X028913Y016732D01*
X028913Y016850D02*
X027013Y016850D01*
X027013Y016969D02*
X028913Y016969D01*
X028913Y017087D02*
X027013Y017087D01*
X027013Y017206D02*
X028913Y017206D01*
X028913Y017324D02*
X027013Y017324D01*
X028959Y018865D02*
X029163Y018865D01*
X029163Y018746D02*
X029078Y018746D01*
X028162Y020524D02*
X030065Y020524D01*
X030065Y020642D02*
X028214Y020642D01*
X028214Y020761D02*
X030065Y020761D01*
X030065Y020879D02*
X028214Y020879D01*
X028214Y021116D02*
X030065Y021116D01*
X030065Y020998D02*
X026590Y020998D01*
X026583Y020750D02*
X025833Y021500D01*
X025833Y023500D01*
X024833Y024500D01*
X024748Y024790D02*
X020877Y024790D01*
X020996Y024908D02*
X027171Y024908D01*
X027289Y024790D02*
X026418Y024790D01*
X026248Y024790D02*
X024918Y024790D01*
X025087Y024671D02*
X026080Y024671D01*
X026033Y024553D02*
X025133Y024553D01*
X025154Y024434D02*
X026036Y024434D01*
X026094Y024316D02*
X025272Y024316D01*
X025391Y024197D02*
X026153Y024197D01*
X026153Y024079D02*
X025509Y024079D01*
X025628Y023960D02*
X026153Y023960D01*
X026153Y023842D02*
X025746Y023842D01*
X025865Y023723D02*
X026153Y023723D01*
X026153Y023605D02*
X025983Y023605D01*
X026013Y023486D02*
X026153Y023486D01*
X026153Y023368D02*
X026013Y023368D01*
X026013Y023249D02*
X026153Y023249D01*
X026153Y023131D02*
X026013Y023131D01*
X026013Y023012D02*
X026153Y023012D01*
X026153Y022894D02*
X026013Y022894D01*
X026013Y022775D02*
X026153Y022775D01*
X026153Y022657D02*
X026013Y022657D01*
X026013Y022538D02*
X026153Y022538D01*
X026153Y022420D02*
X026013Y022420D01*
X026013Y022301D02*
X026153Y022301D01*
X026153Y022183D02*
X026013Y022183D01*
X026013Y022064D02*
X026153Y022064D01*
X026153Y021946D02*
X026013Y021946D01*
X026013Y021827D02*
X026153Y021827D01*
X026153Y021709D02*
X026013Y021709D01*
X026013Y021590D02*
X026153Y021590D01*
X026153Y021472D02*
X026116Y021472D01*
X026333Y021500D02*
X026333Y024500D01*
X026573Y024316D02*
X027664Y024316D01*
X027664Y024197D02*
X026513Y024197D01*
X026513Y024079D02*
X027664Y024079D01*
X027664Y023960D02*
X026513Y023960D01*
X026513Y023842D02*
X027664Y023842D01*
X027664Y023723D02*
X026513Y023723D01*
X026513Y023605D02*
X027664Y023605D01*
X027664Y023486D02*
X026513Y023486D01*
X026513Y023368D02*
X027664Y023368D01*
X027664Y023249D02*
X026513Y023249D01*
X026513Y023131D02*
X027664Y023131D01*
X027664Y023012D02*
X026513Y023012D01*
X026513Y022894D02*
X027664Y022894D01*
X027664Y022775D02*
X026513Y022775D01*
X026513Y022657D02*
X027664Y022657D01*
X027664Y022538D02*
X026513Y022538D01*
X026513Y022420D02*
X027474Y022420D01*
X027474Y022301D02*
X026513Y022301D01*
X026513Y022183D02*
X027474Y022183D01*
X027485Y022064D02*
X026513Y022064D01*
X026513Y021946D02*
X027495Y021946D01*
X027474Y021925D02*
X027474Y021575D01*
X027544Y021505D01*
X028144Y021505D01*
X028209Y021570D01*
X028658Y021570D01*
X028763Y021675D01*
X028763Y021675D01*
X028908Y021820D01*
X029013Y021925D01*
X029013Y027075D01*
X028013Y028075D01*
X027908Y028180D01*
X020759Y028180D01*
X020259Y027680D01*
X020153Y027575D01*
X020153Y026990D01*
X020130Y026990D01*
X019843Y026703D01*
X019843Y026297D01*
X020130Y026010D01*
X020536Y026010D01*
X020823Y026297D01*
X020823Y026703D01*
X020536Y026990D01*
X020513Y026990D01*
X020513Y027425D01*
X020908Y027820D01*
X027759Y027820D01*
X028653Y026925D01*
X028653Y022075D01*
X028509Y021930D01*
X028209Y021930D01*
X028144Y021995D01*
X027544Y021995D01*
X027474Y021925D01*
X027474Y021827D02*
X026513Y021827D01*
X026513Y021709D02*
X027474Y021709D01*
X027474Y021590D02*
X026513Y021590D01*
X026616Y021472D02*
X027521Y021472D01*
X027844Y021250D02*
X026583Y021250D01*
X026333Y021500D01*
X026583Y020750D02*
X027844Y020750D01*
X028214Y021235D02*
X030065Y021235D01*
X030065Y021353D02*
X028214Y021353D01*
X028167Y021472D02*
X030065Y021472D01*
X030065Y021590D02*
X028678Y021590D01*
X028796Y021709D02*
X030065Y021709D01*
X030065Y021827D02*
X028915Y021827D01*
X028908Y021820D02*
X028908Y021820D01*
X029013Y021946D02*
X030065Y021946D01*
X030065Y022064D02*
X029013Y022064D01*
X029013Y022183D02*
X030065Y022183D01*
X030065Y022301D02*
X029013Y022301D01*
X029013Y022420D02*
X030065Y022420D01*
X030065Y022538D02*
X029013Y022538D01*
X029013Y022657D02*
X030065Y022657D01*
X030065Y022775D02*
X029013Y022775D01*
X029013Y022894D02*
X030065Y022894D01*
X030065Y023012D02*
X029013Y023012D01*
X029013Y023131D02*
X030065Y023131D01*
X030065Y023249D02*
X029013Y023249D01*
X029013Y023368D02*
X030065Y023368D01*
X030065Y023486D02*
X029013Y023486D01*
X029013Y023605D02*
X030065Y023605D01*
X030065Y023723D02*
X029013Y023723D01*
X029013Y023842D02*
X030065Y023842D01*
X030065Y023960D02*
X029013Y023960D01*
X029013Y024079D02*
X030065Y024079D01*
X030065Y024197D02*
X029013Y024197D01*
X029013Y024316D02*
X030065Y024316D01*
X030065Y024434D02*
X029013Y024434D01*
X029013Y024553D02*
X030065Y024553D01*
X030065Y024671D02*
X029013Y024671D01*
X029013Y024790D02*
X030065Y024790D01*
X030065Y024908D02*
X029013Y024908D01*
X029013Y025027D02*
X030065Y025027D01*
X030065Y025145D02*
X029013Y025145D01*
X029013Y025264D02*
X030065Y025264D01*
X030065Y025382D02*
X029013Y025382D01*
X029013Y025501D02*
X030065Y025501D01*
X030065Y025619D02*
X029013Y025619D01*
X029013Y025738D02*
X030065Y025738D01*
X030065Y025856D02*
X029013Y025856D01*
X029013Y025975D02*
X030065Y025975D01*
X030065Y026093D02*
X029013Y026093D01*
X029013Y026212D02*
X030065Y026212D01*
X030065Y026330D02*
X029013Y026330D01*
X029013Y026449D02*
X030065Y026449D01*
X030065Y026567D02*
X029013Y026567D01*
X029013Y026686D02*
X030065Y026686D01*
X030065Y026804D02*
X029013Y026804D01*
X029013Y026923D02*
X030065Y026923D01*
X030065Y027041D02*
X029013Y027041D01*
X028928Y027160D02*
X030065Y027160D01*
X030065Y027278D02*
X028810Y027278D01*
X028691Y027397D02*
X030065Y027397D01*
X030065Y027515D02*
X028573Y027515D01*
X028454Y027634D02*
X030065Y027634D01*
X030065Y027752D02*
X028336Y027752D01*
X028217Y027871D02*
X030065Y027871D01*
X030065Y027989D02*
X028099Y027989D01*
X027980Y028108D02*
X030065Y028108D01*
X030065Y028226D02*
X003093Y028226D01*
X003093Y028108D02*
X020686Y028108D01*
X020568Y027989D02*
X003093Y027989D01*
X003093Y027871D02*
X020449Y027871D01*
X020331Y027752D02*
X003093Y027752D01*
X003093Y027634D02*
X020212Y027634D01*
X020153Y027515D02*
X003093Y027515D01*
X003093Y027397D02*
X020153Y027397D01*
X020153Y027278D02*
X003093Y027278D01*
X003093Y027160D02*
X020153Y027160D01*
X020153Y027041D02*
X003093Y027041D01*
X003093Y026923D02*
X019063Y026923D01*
X019130Y026990D02*
X018843Y026703D01*
X018843Y026297D01*
X019112Y026028D01*
X018803Y025720D01*
X018803Y025540D01*
X019293Y025540D01*
X019293Y025460D01*
X018803Y025460D01*
X018803Y025280D01*
X019114Y024970D01*
X019293Y024970D01*
X019293Y025460D01*
X019373Y025460D01*
X019373Y024970D01*
X019553Y024970D01*
X019862Y025279D01*
X020130Y025010D01*
X020536Y025010D01*
X020823Y025297D01*
X020823Y025703D01*
X020536Y025990D01*
X020130Y025990D01*
X019862Y025721D01*
X019555Y026028D01*
X019823Y026297D01*
X019823Y026703D01*
X019536Y026990D01*
X019130Y026990D01*
X018944Y026804D02*
X003093Y026804D01*
X003093Y026686D02*
X018843Y026686D01*
X018843Y026567D02*
X003093Y026567D01*
X003093Y026449D02*
X018843Y026449D01*
X018843Y026330D02*
X003093Y026330D01*
X003093Y026212D02*
X018929Y026212D01*
X019047Y026093D02*
X014923Y026093D01*
X015042Y025975D02*
X019058Y025975D01*
X018940Y025856D02*
X015101Y025856D01*
X015124Y025738D02*
X018821Y025738D01*
X018803Y025619D02*
X015115Y025619D01*
X015072Y025501D02*
X019293Y025501D01*
X019293Y025382D02*
X019373Y025382D01*
X019373Y025264D02*
X019293Y025264D01*
X019293Y025145D02*
X019373Y025145D01*
X019373Y025027D02*
X019293Y025027D01*
X019057Y025027D02*
X015077Y025027D01*
X015084Y024908D02*
X020487Y024908D01*
X020553Y025027D02*
X020605Y025027D01*
X020671Y025145D02*
X020724Y025145D01*
X020790Y025264D02*
X020842Y025264D01*
X020843Y025382D02*
X020823Y025382D01*
X020823Y025501D02*
X020843Y025501D01*
X020843Y025619D02*
X020823Y025619D01*
X020789Y025738D02*
X020878Y025738D01*
X020996Y025856D02*
X020670Y025856D01*
X020552Y025975D02*
X021115Y025975D01*
X021130Y026010D02*
X021536Y026010D01*
X021823Y026297D01*
X021823Y026703D01*
X021536Y026990D01*
X021130Y026990D01*
X020843Y026703D01*
X020843Y026297D01*
X021130Y026010D01*
X021047Y026093D02*
X020619Y026093D01*
X020738Y026212D02*
X020929Y026212D01*
X020843Y026330D02*
X020823Y026330D01*
X020823Y026449D02*
X020843Y026449D01*
X020843Y026567D02*
X020823Y026567D01*
X020823Y026686D02*
X020843Y026686D01*
X020944Y026804D02*
X020722Y026804D01*
X020604Y026923D02*
X021063Y026923D01*
X021604Y026923D02*
X028653Y026923D01*
X028653Y026804D02*
X021722Y026804D01*
X021823Y026686D02*
X028653Y026686D01*
X028653Y026567D02*
X021823Y026567D01*
X021823Y026449D02*
X028653Y026449D01*
X028653Y026330D02*
X021823Y026330D01*
X021738Y026212D02*
X028653Y026212D01*
X028653Y026093D02*
X021619Y026093D01*
X021552Y025975D02*
X028653Y025975D01*
X028653Y025856D02*
X021670Y025856D01*
X021789Y025738D02*
X028653Y025738D01*
X028653Y025619D02*
X026969Y025619D01*
X027087Y025501D02*
X028653Y025501D01*
X028653Y025382D02*
X027206Y025382D01*
X027324Y025264D02*
X028653Y025264D01*
X028653Y025145D02*
X027443Y025145D01*
X027561Y025027D02*
X028653Y025027D01*
X028653Y024908D02*
X027680Y024908D01*
X027798Y024790D02*
X028653Y024790D01*
X028653Y024671D02*
X027917Y024671D01*
X028024Y024553D02*
X028653Y024553D01*
X028653Y024434D02*
X028024Y024434D01*
X028024Y024316D02*
X028653Y024316D01*
X028653Y024197D02*
X028024Y024197D01*
X028024Y024079D02*
X028653Y024079D01*
X028653Y023960D02*
X028024Y023960D01*
X028024Y023842D02*
X028653Y023842D01*
X028653Y023723D02*
X028024Y023723D01*
X028024Y023605D02*
X028653Y023605D01*
X028653Y023486D02*
X028024Y023486D01*
X028024Y023368D02*
X028653Y023368D01*
X028653Y023249D02*
X028024Y023249D01*
X028024Y023131D02*
X028653Y023131D01*
X028653Y023012D02*
X028024Y023012D01*
X028024Y022894D02*
X028653Y022894D01*
X028653Y022775D02*
X028024Y022775D01*
X028024Y022657D02*
X028653Y022657D01*
X028653Y022538D02*
X028024Y022538D01*
X028214Y022420D02*
X028653Y022420D01*
X028653Y022301D02*
X028214Y022301D01*
X028214Y022183D02*
X028653Y022183D01*
X028643Y022064D02*
X028203Y022064D01*
X028193Y021946D02*
X028524Y021946D01*
X028583Y021750D02*
X028833Y022000D01*
X028833Y027000D01*
X027833Y028000D01*
X020833Y028000D01*
X020333Y027500D01*
X020333Y026500D01*
X019843Y026449D02*
X019823Y026449D01*
X019823Y026567D02*
X019843Y026567D01*
X019843Y026686D02*
X019823Y026686D01*
X019722Y026804D02*
X019944Y026804D01*
X020063Y026923D02*
X019604Y026923D01*
X019823Y026330D02*
X019843Y026330D01*
X019929Y026212D02*
X019738Y026212D01*
X019619Y026093D02*
X020047Y026093D01*
X020115Y025975D02*
X019608Y025975D01*
X019727Y025856D02*
X019996Y025856D01*
X019878Y025738D02*
X019845Y025738D01*
X019846Y025264D02*
X019877Y025264D01*
X019995Y025145D02*
X019728Y025145D01*
X019609Y025027D02*
X020114Y025027D01*
X020368Y024790D02*
X015062Y024790D01*
X015004Y024671D02*
X018750Y024671D01*
X018631Y024553D02*
X014862Y024553D01*
X014962Y024434D02*
X018513Y024434D01*
X018394Y024316D02*
X015045Y024316D01*
X015084Y024197D02*
X018276Y024197D01*
X018157Y024079D02*
X015084Y024079D01*
X015045Y023960D02*
X018153Y023960D01*
X018153Y023842D02*
X014962Y023842D01*
X014862Y023723D02*
X018153Y023723D01*
X018153Y023605D02*
X015004Y023605D01*
X015062Y023486D02*
X018153Y023486D01*
X018153Y023368D02*
X015084Y023368D01*
X015077Y023249D02*
X018153Y023249D01*
X018153Y023131D02*
X015028Y023131D01*
X014920Y023012D02*
X018153Y023012D01*
X018153Y022894D02*
X014927Y022894D01*
X015031Y022775D02*
X018153Y022775D01*
X018153Y022657D02*
X017651Y022657D01*
X017658Y022649D02*
X017628Y022679D01*
X017592Y022700D01*
X017551Y022711D01*
X017372Y022711D01*
X017372Y022373D01*
X017690Y022373D01*
X017690Y022572D01*
X017679Y022613D01*
X017658Y022649D01*
X017690Y022538D02*
X018153Y022538D01*
X018153Y022420D02*
X017690Y022420D01*
X017690Y022296D02*
X017372Y022296D01*
X017372Y022373D01*
X017295Y022373D01*
X017295Y022711D01*
X017115Y022711D01*
X017075Y022700D01*
X017038Y022679D01*
X017008Y022649D01*
X016987Y022613D01*
X016976Y022572D01*
X016976Y022373D01*
X017295Y022373D01*
X017295Y022296D01*
X016976Y022296D01*
X016976Y022097D01*
X016987Y022056D01*
X017008Y022020D01*
X017038Y021990D01*
X017062Y021977D01*
X017016Y021932D01*
X017016Y021399D01*
X017087Y021329D01*
X017153Y021329D01*
X017153Y020990D01*
X016819Y020990D01*
X016759Y020930D01*
X016328Y020930D01*
X016253Y021004D01*
X016143Y021050D01*
X016024Y021050D01*
X015913Y021004D01*
X015829Y020920D01*
X015783Y020810D01*
X015783Y020690D01*
X015829Y020580D01*
X015913Y020496D01*
X016024Y020450D01*
X016143Y020450D01*
X016253Y020496D01*
X016328Y020570D01*
X016759Y020570D01*
X016819Y020510D01*
X017788Y020510D01*
X017858Y020580D01*
X017858Y020920D01*
X017788Y020990D01*
X017513Y020990D01*
X017513Y021329D01*
X017580Y021329D01*
X017650Y021399D01*
X017650Y021932D01*
X017605Y021977D01*
X017628Y021990D01*
X017658Y022020D01*
X017679Y022056D01*
X017690Y022097D01*
X017690Y022296D01*
X017690Y022183D02*
X018153Y022183D01*
X018153Y022301D02*
X017372Y022301D01*
X017295Y022301D02*
X014996Y022301D01*
X015059Y022420D02*
X016976Y022420D01*
X016976Y022538D02*
X015084Y022538D01*
X015080Y022657D02*
X017016Y022657D01*
X017295Y022657D02*
X017372Y022657D01*
X017372Y022538D02*
X017295Y022538D01*
X017295Y022420D02*
X017372Y022420D01*
X016976Y022183D02*
X014843Y022183D01*
X014970Y022064D02*
X016985Y022064D01*
X017030Y021946D02*
X015048Y021946D01*
X015084Y021827D02*
X017016Y021827D01*
X017016Y021709D02*
X015084Y021709D01*
X015042Y021590D02*
X017016Y021590D01*
X017016Y021472D02*
X014954Y021472D01*
X014881Y021353D02*
X017063Y021353D01*
X017153Y021235D02*
X015012Y021235D01*
X015066Y021116D02*
X017153Y021116D01*
X017153Y020998D02*
X016260Y020998D01*
X016083Y020750D02*
X017303Y020750D01*
X017333Y020780D01*
X017333Y021665D01*
X017650Y021709D02*
X018370Y021709D01*
X018252Y021827D02*
X017650Y021827D01*
X017636Y021946D02*
X018153Y021946D01*
X018153Y022064D02*
X017681Y022064D01*
X017650Y021590D02*
X018489Y021590D01*
X018668Y021665D02*
X018333Y022000D01*
X018333Y024000D01*
X018833Y024500D01*
X020333Y024500D01*
X021333Y025500D01*
X026833Y025500D01*
X027844Y024489D01*
X027844Y022250D01*
X027844Y021750D02*
X028583Y021750D01*
X027645Y024434D02*
X026631Y024434D01*
X026633Y024553D02*
X027526Y024553D01*
X027408Y024671D02*
X026587Y024671D01*
X027052Y025027D02*
X021553Y025027D01*
X021671Y025145D02*
X026934Y025145D01*
X026815Y025264D02*
X021790Y025264D01*
X020759Y024671D02*
X024580Y024671D01*
X024533Y024553D02*
X020640Y024553D01*
X020522Y024434D02*
X024536Y024434D01*
X024594Y024316D02*
X018903Y024316D01*
X018785Y024197D02*
X024882Y024197D01*
X025000Y024079D02*
X018666Y024079D01*
X018548Y023960D02*
X025119Y023960D01*
X025237Y023842D02*
X018513Y023842D01*
X018939Y025145D02*
X015028Y025145D01*
X014920Y025264D02*
X018820Y025264D01*
X018803Y025382D02*
X014984Y025382D01*
X014683Y025738D02*
X014645Y025738D01*
X014645Y025856D02*
X014683Y025856D01*
X014683Y025975D02*
X014645Y025975D01*
X014645Y026093D02*
X014683Y026093D01*
X018524Y022064D02*
X018985Y022064D01*
X019030Y021946D02*
X018642Y021946D01*
X018668Y021665D02*
X019333Y021665D01*
X019333Y020780D01*
X019363Y020750D01*
X019513Y020998D02*
X022576Y020998D01*
X022695Y021116D02*
X019513Y021116D01*
X019513Y021235D02*
X022813Y021235D01*
X022932Y021353D02*
X019604Y021353D01*
X019650Y021472D02*
X020472Y021472D01*
X020325Y021590D02*
X019650Y021590D01*
X019650Y021709D02*
X020283Y021709D01*
X020291Y021827D02*
X019650Y021827D01*
X019636Y021946D02*
X020355Y021946D01*
X020695Y021472D02*
X023499Y021472D01*
X023085Y020998D02*
X024653Y020998D01*
X023823Y020750D02*
X023083Y020750D01*
X021833Y019500D01*
X021333Y019500D01*
X020833Y019000D01*
X020833Y018500D01*
X020333Y018000D01*
X019887Y017798D02*
X018386Y017798D01*
X018504Y017917D02*
X019843Y017917D01*
X019843Y018035D02*
X018513Y018035D01*
X018513Y018154D02*
X019867Y018154D01*
X019916Y018272D02*
X018513Y018272D01*
X018513Y018391D02*
X020031Y018391D01*
X020588Y018509D02*
X018513Y018509D01*
X018513Y018628D02*
X020653Y018628D01*
X020653Y018746D02*
X018513Y018746D01*
X018513Y018865D02*
X020653Y018865D01*
X020653Y018983D02*
X019864Y018983D01*
X019860Y018981D02*
X019897Y019002D01*
X019926Y019032D01*
X019947Y019068D01*
X019958Y019109D01*
X019958Y019250D01*
X019958Y019391D01*
X019947Y019432D01*
X019926Y019468D01*
X019897Y019498D01*
X019860Y019519D01*
X019858Y019520D01*
X019908Y019570D01*
X020339Y019570D01*
X020413Y019496D01*
X020524Y019450D01*
X020643Y019450D01*
X020753Y019496D01*
X020838Y019580D01*
X020883Y019690D01*
X020883Y019810D01*
X020838Y019920D01*
X020753Y020004D01*
X020643Y020050D01*
X020524Y020050D01*
X020413Y020004D01*
X020339Y019930D01*
X019908Y019930D01*
X019848Y019990D01*
X018879Y019990D01*
X018808Y019920D01*
X018808Y019580D01*
X018869Y019520D01*
X018867Y019519D01*
X018830Y019498D01*
X018800Y019468D01*
X018779Y019432D01*
X018768Y019391D01*
X018768Y019250D01*
X018768Y019109D01*
X018779Y019068D01*
X018800Y019032D01*
X018830Y019002D01*
X018867Y018981D01*
X018907Y018970D01*
X019363Y018970D01*
X019363Y019250D01*
X018768Y019250D01*
X019363Y019250D01*
X019363Y019250D01*
X019363Y019250D01*
X019363Y018970D01*
X019819Y018970D01*
X019860Y018981D01*
X019956Y019102D02*
X020680Y019102D01*
X020799Y019220D02*
X019958Y019220D01*
X019958Y019250D02*
X019363Y019250D01*
X019958Y019250D01*
X019958Y019339D02*
X020917Y019339D01*
X021036Y019457D02*
X020660Y019457D01*
X020507Y019457D02*
X019933Y019457D01*
X019363Y019250D02*
X019363Y019250D01*
X019363Y019220D02*
X019363Y019220D01*
X019363Y019102D02*
X019363Y019102D01*
X019363Y018983D02*
X019363Y018983D01*
X018863Y018983D02*
X018513Y018983D01*
X018513Y019102D02*
X018770Y019102D01*
X018768Y019220D02*
X018513Y019220D01*
X018513Y019339D02*
X018768Y019339D01*
X018794Y019457D02*
X018513Y019457D01*
X018513Y019576D02*
X018813Y019576D01*
X018808Y019694D02*
X018513Y019694D01*
X018513Y019813D02*
X018808Y019813D01*
X018820Y019931D02*
X018513Y019931D01*
X018513Y020050D02*
X018839Y020050D01*
X018808Y020168D02*
X018513Y020168D01*
X018513Y020287D02*
X018808Y020287D01*
X018808Y020405D02*
X018513Y020405D01*
X018611Y020524D02*
X018865Y020524D01*
X018458Y020879D02*
X017858Y020879D01*
X017858Y020761D02*
X018339Y020761D01*
X018221Y020642D02*
X017858Y020642D01*
X017802Y020524D02*
X018153Y020524D01*
X018153Y020405D02*
X017858Y020405D01*
X017858Y020287D02*
X018153Y020287D01*
X018153Y020168D02*
X017858Y020168D01*
X017828Y020050D02*
X018153Y020050D01*
X018153Y019931D02*
X017847Y019931D01*
X017858Y019813D02*
X018153Y019813D01*
X018153Y019694D02*
X017858Y019694D01*
X017854Y019576D02*
X018153Y019576D01*
X018153Y019457D02*
X017873Y019457D01*
X017898Y019339D02*
X018153Y019339D01*
X018153Y019220D02*
X017898Y019220D01*
X017898Y019250D02*
X017303Y019250D01*
X017898Y019250D01*
X017896Y019102D02*
X018153Y019102D01*
X018153Y018983D02*
X017804Y018983D01*
X018153Y018865D02*
X015019Y018865D01*
X015069Y018746D02*
X018153Y018746D01*
X018153Y018628D02*
X015084Y018628D01*
X015070Y018509D02*
X018153Y018509D01*
X018153Y018391D02*
X015021Y018391D01*
X014904Y018272D02*
X018153Y018272D01*
X018153Y018154D02*
X014904Y018154D01*
X014904Y018035D02*
X018114Y018035D01*
X017995Y017917D02*
X014904Y017917D01*
X014904Y017798D02*
X017877Y017798D01*
X017758Y017680D02*
X014904Y017680D01*
X014904Y017561D02*
X016516Y017561D01*
X016516Y017443D02*
X014904Y017443D01*
X014424Y017443D02*
X003093Y017443D01*
X003093Y017561D02*
X014424Y017561D01*
X014424Y017680D02*
X003093Y017680D01*
X003093Y017798D02*
X014424Y017798D01*
X014424Y017917D02*
X003093Y017917D01*
X003093Y018035D02*
X014424Y018035D01*
X014424Y017324D02*
X003093Y017324D01*
X003093Y017206D02*
X014424Y017206D01*
X014424Y017087D02*
X003093Y017087D01*
X003093Y016969D02*
X014424Y016969D01*
X014424Y016850D02*
X003093Y016850D01*
X003093Y016732D02*
X014424Y016732D01*
X014424Y016613D02*
X003093Y016613D01*
X003093Y016495D02*
X014424Y016495D01*
X014424Y016376D02*
X003093Y016376D01*
X003093Y016258D02*
X014424Y016258D01*
X014424Y016139D02*
X003093Y016139D01*
X003093Y016021D02*
X014424Y016021D01*
X014424Y015902D02*
X003093Y015902D01*
X003093Y015784D02*
X014424Y015784D01*
X014424Y015665D02*
X003093Y015665D01*
X003093Y015547D02*
X014424Y015547D01*
X014424Y015428D02*
X003093Y015428D01*
X003093Y015310D02*
X014424Y015310D01*
X014424Y015191D02*
X003093Y015191D01*
X003093Y015073D02*
X014424Y015073D01*
X014424Y014954D02*
X003093Y014954D01*
X003093Y014836D02*
X014424Y014836D01*
X016833Y015795D02*
X016833Y016665D01*
X017150Y017561D02*
X017640Y017561D01*
X018149Y017561D02*
X020113Y017561D01*
X019961Y017680D02*
X018267Y017680D01*
X017303Y018983D02*
X017303Y018983D01*
X017303Y019102D02*
X017303Y019102D01*
X017303Y019220D02*
X017303Y019220D01*
X017303Y019250D02*
X017303Y019250D01*
X017303Y019750D02*
X016333Y019750D01*
X015997Y019413D01*
X014664Y019413D01*
X014946Y019102D02*
X016710Y019102D01*
X016708Y019220D02*
X015039Y019220D01*
X014900Y018983D02*
X016803Y018983D01*
X016708Y019339D02*
X016176Y019339D01*
X016295Y019457D02*
X016734Y019457D01*
X016760Y019931D02*
X014988Y019931D01*
X014824Y019813D02*
X016141Y019813D01*
X016023Y019694D02*
X014977Y019694D01*
X014664Y020201D02*
X017254Y020201D01*
X017303Y020250D01*
X016805Y020524D02*
X016281Y020524D01*
X016748Y020405D02*
X015034Y020405D01*
X014935Y020524D02*
X015886Y020524D01*
X015803Y020642D02*
X014912Y020642D01*
X015024Y020761D02*
X015783Y020761D01*
X015812Y020879D02*
X015073Y020879D01*
X015084Y020998D02*
X015907Y020998D01*
X017513Y020998D02*
X019153Y020998D01*
X019153Y021116D02*
X017513Y021116D01*
X017513Y021235D02*
X019153Y021235D01*
X019063Y021353D02*
X017604Y021353D01*
X017650Y021472D02*
X019016Y021472D01*
X019918Y020879D02*
X022458Y020879D01*
X022339Y020761D02*
X019918Y020761D01*
X019918Y020642D02*
X022221Y020642D01*
X022102Y020524D02*
X019862Y020524D01*
X019888Y020050D02*
X020523Y020050D01*
X020644Y020050D02*
X022128Y020050D01*
X022010Y019931D02*
X020827Y019931D01*
X020882Y019813D02*
X021891Y019813D01*
X021773Y019694D02*
X020883Y019694D01*
X020833Y019576D02*
X021154Y019576D01*
X021408Y019320D02*
X021908Y019320D01*
X022013Y019425D01*
X022153Y019565D01*
X022153Y018456D01*
X022056Y018415D01*
X021918Y018278D01*
X021851Y018117D01*
X021850Y018124D01*
X021825Y018203D01*
X021787Y018278D01*
X021738Y018345D01*
X021679Y018404D01*
X021611Y018453D01*
X021537Y018491D01*
X021457Y018517D01*
X021375Y018530D01*
X021352Y018530D01*
X021352Y018019D01*
X021315Y018019D01*
X021315Y018530D01*
X021292Y018530D01*
X021209Y018517D01*
X021130Y018491D01*
X021056Y018453D01*
X021003Y018415D01*
X021013Y018425D01*
X021013Y018925D01*
X021408Y019320D01*
X021308Y019220D02*
X022153Y019220D01*
X022153Y019102D02*
X021189Y019102D01*
X021071Y018983D02*
X022153Y018983D01*
X022153Y018865D02*
X021013Y018865D01*
X021013Y018746D02*
X022153Y018746D01*
X022153Y018628D02*
X021013Y018628D01*
X021013Y018509D02*
X021185Y018509D01*
X021315Y018509D02*
X021352Y018509D01*
X021352Y018391D02*
X021315Y018391D01*
X021315Y018272D02*
X021352Y018272D01*
X021352Y018154D02*
X021315Y018154D01*
X021315Y018035D02*
X021352Y018035D01*
X021352Y017917D02*
X021315Y017917D01*
X021315Y017798D02*
X021352Y017798D01*
X021352Y017680D02*
X021315Y017680D01*
X021315Y017561D02*
X021352Y017561D01*
X021631Y017561D02*
X022113Y017561D01*
X021961Y017680D02*
X021756Y017680D01*
X021825Y017798D02*
X021887Y017798D01*
X021867Y018154D02*
X021841Y018154D01*
X021790Y018272D02*
X021916Y018272D01*
X022031Y018391D02*
X021692Y018391D01*
X021482Y018509D02*
X022153Y018509D01*
X022513Y018509D02*
X023519Y018509D01*
X023453Y018391D02*
X022636Y018391D01*
X022751Y018272D02*
X023453Y018272D01*
X023453Y018154D02*
X022800Y018154D01*
X022823Y018035D02*
X023493Y018035D01*
X023418Y017917D02*
X022823Y017917D01*
X022780Y017798D02*
X023413Y017798D01*
X023413Y017747D02*
X023413Y017604D01*
X023423Y017563D01*
X023444Y017527D01*
X023474Y017497D01*
X023511Y017476D01*
X023551Y017465D01*
X023820Y017465D01*
X023820Y017747D01*
X023413Y017747D01*
X023413Y017680D02*
X022706Y017680D01*
X022554Y017561D02*
X023425Y017561D01*
X023820Y017561D02*
X023825Y017561D01*
X023820Y017680D02*
X023825Y017680D01*
X023453Y018628D02*
X022513Y018628D01*
X022513Y018746D02*
X023453Y018746D01*
X023453Y018865D02*
X022513Y018865D01*
X022513Y018983D02*
X023511Y018983D01*
X023453Y019102D02*
X022513Y019102D01*
X022513Y019220D02*
X023453Y019220D01*
X023453Y019339D02*
X022513Y019339D01*
X022545Y019457D02*
X023485Y019457D01*
X023453Y019576D02*
X022663Y019576D01*
X022782Y019694D02*
X023453Y019694D01*
X023453Y019813D02*
X022900Y019813D01*
X023019Y019931D02*
X023459Y019931D01*
X023478Y020050D02*
X023137Y020050D01*
X023083Y020250D02*
X023823Y020250D01*
X023504Y020524D02*
X023111Y020524D01*
X023083Y020250D02*
X022333Y019500D01*
X022333Y018000D01*
X021036Y017561D02*
X020554Y017561D01*
X020706Y017680D02*
X020911Y017680D01*
X020842Y017798D02*
X020780Y017798D01*
X021926Y019339D02*
X022153Y019339D01*
X022153Y019457D02*
X022045Y019457D01*
X020583Y019750D02*
X019363Y019750D01*
X019907Y019931D02*
X020340Y019931D01*
X019690Y022420D02*
X022159Y022420D01*
X022153Y022538D02*
X019690Y022538D01*
X019651Y022657D02*
X022153Y022657D01*
X022513Y022657D02*
X025653Y022657D01*
X025653Y022775D02*
X022513Y022775D01*
X022513Y022894D02*
X025653Y022894D01*
X025653Y023012D02*
X022513Y023012D01*
X022513Y023131D02*
X025653Y023131D01*
X025653Y023249D02*
X022513Y023249D01*
X022603Y023368D02*
X025653Y023368D01*
X025593Y023486D02*
X022633Y023486D01*
X022615Y023605D02*
X025474Y023605D01*
X025356Y023723D02*
X022535Y023723D01*
X022550Y022538D02*
X025653Y022538D01*
X028538Y027041D02*
X020513Y027041D01*
X020513Y027160D02*
X028419Y027160D01*
X028301Y027278D02*
X020513Y027278D01*
X020513Y027397D02*
X028182Y027397D01*
X028064Y027515D02*
X020603Y027515D01*
X020721Y027634D02*
X027945Y027634D01*
X027827Y027752D02*
X020840Y027752D01*
X019372Y022657D02*
X019295Y022657D01*
X019295Y022538D02*
X019372Y022538D01*
X019372Y022420D02*
X019295Y022420D01*
X019474Y015784D02*
X020699Y015784D01*
X021273Y015191D02*
X021394Y015191D01*
X021668Y014000D02*
X021668Y013055D01*
X021943Y012780D01*
X022322Y012466D02*
X023297Y012466D01*
X023230Y012584D02*
X022393Y012584D01*
X022433Y012703D02*
X023199Y012703D01*
X023193Y012821D02*
X022433Y012821D01*
X022240Y013177D02*
X023370Y013177D01*
X023270Y013058D02*
X023232Y012983D01*
X023206Y012904D01*
X023683Y012940D02*
X023763Y012940D01*
X023763Y013058D02*
X023683Y013058D01*
X023683Y013177D02*
X023763Y013177D01*
X023763Y012821D02*
X023683Y012821D01*
X023683Y012703D02*
X023763Y012703D01*
X023763Y012584D02*
X023683Y012584D01*
X023683Y012466D02*
X023763Y012466D01*
X023763Y012347D02*
X023683Y012347D01*
X023418Y012347D02*
X022178Y012347D01*
X022094Y010688D02*
X023573Y010688D01*
X023380Y010570D02*
X022287Y010570D01*
X022378Y010451D02*
X023289Y010451D01*
X023240Y010333D02*
X022427Y010333D01*
X022433Y010214D02*
X023233Y010214D01*
X023245Y010096D02*
X022422Y010096D01*
X022373Y009977D02*
X023294Y009977D01*
X023392Y009859D02*
X022275Y009859D01*
X024055Y009859D02*
X026153Y009859D01*
X026153Y009977D02*
X024153Y009977D01*
X024202Y010096D02*
X026153Y010096D01*
X026153Y010214D02*
X024213Y010214D01*
X024207Y010333D02*
X026153Y010333D01*
X026153Y010451D02*
X024158Y010451D01*
X024067Y010570D02*
X026153Y010570D01*
X026153Y010688D02*
X023874Y010688D01*
X023206Y014125D02*
X023130Y014125D01*
X023130Y014243D02*
X023206Y014243D01*
X028574Y010570D02*
X029662Y010570D01*
X029663Y010688D02*
X028714Y010688D01*
X028525Y010451D02*
X029544Y010451D01*
X029425Y010333D02*
X028694Y010333D01*
X028775Y010214D02*
X029307Y010214D01*
X029551Y009977D02*
X030065Y009977D01*
X030065Y009859D02*
X029432Y009859D01*
X029669Y010096D02*
X030065Y010096D01*
X030065Y010214D02*
X029788Y010214D01*
X029906Y010333D02*
X030065Y010333D01*
X030065Y010451D02*
X030003Y010451D01*
X030003Y010570D02*
X030065Y010570D01*
X030065Y010688D02*
X030003Y010688D01*
X030003Y010807D02*
X030065Y010807D01*
X030065Y010925D02*
X030003Y010925D01*
X030065Y009740D02*
X028756Y009740D01*
X028648Y009622D02*
X030065Y009622D01*
X030065Y007370D02*
X028611Y007370D01*
X028869Y007252D02*
X030065Y007252D01*
X030065Y007133D02*
X028987Y007133D01*
X029105Y007015D02*
X030065Y007015D01*
X030065Y006896D02*
X029154Y006896D01*
X029203Y006778D02*
X030065Y006778D01*
X030065Y006659D02*
X029243Y006659D01*
X029243Y006541D02*
X030065Y006541D01*
X030065Y006422D02*
X029243Y006422D01*
X029237Y006304D02*
X030065Y006304D01*
X030065Y006185D02*
X029188Y006185D01*
X029139Y006067D02*
X030065Y006067D01*
X030065Y005948D02*
X029068Y005948D01*
X028950Y005830D02*
X030065Y005830D01*
X030065Y005711D02*
X028806Y005711D01*
X028520Y005593D02*
X030065Y005593D01*
X015053Y009148D02*
X013581Y009148D01*
X013581Y009029D02*
X015023Y009029D01*
X014904Y008911D02*
X013526Y008911D01*
X013141Y008911D02*
X011672Y008911D01*
X011553Y009029D02*
X013085Y009029D01*
X013085Y009148D02*
X011435Y009148D01*
X011316Y009266D02*
X013085Y009266D01*
X013085Y009385D02*
X011198Y009385D01*
X011081Y009503D02*
X013085Y009503D01*
X013085Y009622D02*
X011081Y009622D01*
X011081Y009740D02*
X013085Y009740D01*
X013091Y009859D02*
X011076Y009859D01*
X011023Y010048D02*
X011060Y010069D01*
X011089Y010099D01*
X011110Y010135D01*
X011121Y010176D01*
X011121Y010587D01*
X010837Y010587D01*
X010837Y010595D01*
X010829Y010595D01*
X010829Y011144D01*
X010684Y011144D01*
X010644Y011133D01*
X010607Y011112D01*
X010577Y011082D01*
X010556Y011046D01*
X010545Y011005D01*
X010545Y010595D01*
X010829Y010595D01*
X010829Y010587D01*
X010545Y010587D01*
X010545Y010176D01*
X010556Y010135D01*
X010577Y010099D01*
X010607Y010069D01*
X010644Y010048D01*
X010684Y010037D01*
X010829Y010037D01*
X010829Y010587D01*
X010837Y010587D01*
X010837Y010037D01*
X010982Y010037D01*
X011023Y010048D01*
X011086Y010096D02*
X013080Y010096D01*
X013045Y010214D02*
X011121Y010214D01*
X011121Y010333D02*
X013045Y010333D01*
X013045Y010451D02*
X011121Y010451D01*
X011121Y010570D02*
X013045Y010570D01*
X013045Y010688D02*
X011121Y010688D01*
X011121Y010595D02*
X011121Y011005D01*
X011110Y011046D01*
X011089Y011082D01*
X011060Y011112D01*
X011023Y011133D01*
X010982Y011144D01*
X010837Y011144D01*
X010837Y010595D01*
X011121Y010595D01*
X011121Y010807D02*
X013045Y010807D01*
X013045Y010925D02*
X011121Y010925D01*
X011111Y011044D02*
X011364Y011044D01*
X011241Y011162D02*
X009573Y011162D01*
X009573Y011044D02*
X010556Y011044D01*
X010545Y010925D02*
X009573Y010925D01*
X009573Y010807D02*
X010545Y010807D01*
X010545Y010688D02*
X009573Y010688D01*
X009573Y010570D02*
X010545Y010570D01*
X010545Y010451D02*
X009573Y010451D01*
X009573Y010333D02*
X010545Y010333D01*
X010545Y010214D02*
X009573Y010214D01*
X009577Y010096D02*
X010580Y010096D01*
X010591Y009859D02*
X009814Y009859D01*
X009696Y009977D02*
X013971Y009977D01*
X014089Y010096D02*
X013586Y010096D01*
X013621Y010214D02*
X014223Y010214D01*
X013852Y009859D02*
X013576Y009859D01*
X013581Y009740D02*
X013734Y009740D01*
X014057Y009385D02*
X015058Y009385D01*
X015053Y009266D02*
X013896Y009266D01*
X014413Y009740D02*
X015053Y009740D01*
X014786Y008792D02*
X011790Y008792D01*
X011467Y008437D02*
X003093Y008437D01*
X003093Y008555D02*
X011348Y008555D01*
X011230Y008674D02*
X003093Y008674D01*
X003093Y008792D02*
X011111Y008792D01*
X010641Y008911D02*
X003093Y008911D01*
X003093Y009029D02*
X010585Y009029D01*
X010585Y009148D02*
X003093Y009148D01*
X003093Y009266D02*
X009728Y009266D01*
X009609Y009385D02*
X003093Y009385D01*
X003093Y009503D02*
X009491Y009503D01*
X009372Y009622D02*
X007238Y009622D01*
X007221Y009618D02*
X007336Y009644D01*
X007446Y009683D01*
X007552Y009734D01*
X007652Y009796D01*
X007743Y009869D01*
X007826Y009952D01*
X007900Y010044D01*
X007962Y010143D01*
X008013Y010249D01*
X008052Y010360D01*
X008078Y010474D01*
X008091Y010590D01*
X007106Y010590D01*
X007106Y010710D01*
X006986Y010710D01*
X006986Y011694D01*
X006871Y011681D01*
X006756Y011655D01*
X006645Y011617D01*
X006540Y011566D01*
X006440Y011503D01*
X006349Y011430D01*
X006266Y011347D01*
X006192Y011255D01*
X006130Y011156D01*
X006079Y011050D01*
X006040Y010939D01*
X006014Y010825D01*
X006001Y010710D01*
X006986Y010710D01*
X006986Y010590D01*
X006001Y010590D01*
X006014Y010474D01*
X006040Y010360D01*
X006079Y010249D01*
X006130Y010143D01*
X006192Y010044D01*
X006266Y009952D01*
X006349Y009869D01*
X006440Y009796D01*
X006540Y009734D01*
X006645Y009683D01*
X006756Y009644D01*
X006871Y009618D01*
X006986Y009605D01*
X006986Y010590D01*
X007106Y010590D01*
X007106Y009605D01*
X007221Y009618D01*
X007106Y009622D02*
X006986Y009622D01*
X006986Y009740D02*
X007106Y009740D01*
X007106Y009859D02*
X006986Y009859D01*
X006986Y009977D02*
X007106Y009977D01*
X007106Y010096D02*
X006986Y010096D01*
X006986Y010214D02*
X007106Y010214D01*
X007106Y010333D02*
X006986Y010333D01*
X006986Y010451D02*
X007106Y010451D01*
X007106Y010570D02*
X006986Y010570D01*
X006986Y010688D02*
X003093Y010688D01*
X003093Y010570D02*
X006003Y010570D01*
X006019Y010451D02*
X003093Y010451D01*
X003093Y010333D02*
X006050Y010333D01*
X006096Y010214D02*
X003093Y010214D01*
X003093Y010096D02*
X006160Y010096D01*
X006246Y009977D02*
X003093Y009977D01*
X003093Y009859D02*
X006362Y009859D01*
X006529Y009740D02*
X003093Y009740D01*
X003093Y009622D02*
X006854Y009622D01*
X007562Y009740D02*
X009254Y009740D01*
X009135Y009859D02*
X007730Y009859D01*
X007846Y009977D02*
X009093Y009977D01*
X009093Y010096D02*
X007932Y010096D01*
X007996Y010214D02*
X009093Y010214D01*
X009093Y010333D02*
X008042Y010333D01*
X008072Y010451D02*
X009093Y010451D01*
X009093Y010570D02*
X008089Y010570D01*
X008091Y010710D02*
X008078Y010825D01*
X008052Y010939D01*
X008013Y011050D01*
X007962Y011156D01*
X007900Y011255D01*
X007826Y011347D01*
X007743Y011430D01*
X007652Y011503D01*
X007552Y011566D01*
X007446Y011617D01*
X007336Y011655D01*
X007221Y011681D01*
X007106Y011694D01*
X007106Y010710D01*
X008091Y010710D01*
X008080Y010807D02*
X009093Y010807D01*
X009093Y010925D02*
X008055Y010925D01*
X008015Y011044D02*
X009093Y011044D01*
X009093Y011162D02*
X007958Y011162D01*
X007879Y011281D02*
X009093Y011281D01*
X009093Y011399D02*
X007774Y011399D01*
X007629Y011518D02*
X008011Y011518D01*
X007714Y011636D02*
X007391Y011636D01*
X007551Y011755D02*
X006597Y011755D01*
X006701Y011873D02*
X007433Y011873D01*
X007360Y011992D02*
X006779Y011992D01*
X006835Y012110D02*
X007292Y012110D01*
X007259Y012229D02*
X006875Y012229D01*
X006899Y012347D02*
X007228Y012347D01*
X007106Y011636D02*
X006986Y011636D01*
X006986Y011518D02*
X007106Y011518D01*
X007106Y011399D02*
X006986Y011399D01*
X006986Y011281D02*
X007106Y011281D01*
X007106Y011162D02*
X006986Y011162D01*
X006986Y011044D02*
X007106Y011044D01*
X007106Y010925D02*
X006986Y010925D01*
X006986Y010807D02*
X007106Y010807D01*
X007106Y010688D02*
X009093Y010688D01*
X009573Y011281D02*
X011123Y011281D01*
X010837Y011044D02*
X010829Y011044D01*
X010829Y010925D02*
X010837Y010925D01*
X010829Y010807D02*
X010837Y010807D01*
X010829Y010688D02*
X010837Y010688D01*
X010829Y010570D02*
X010837Y010570D01*
X010829Y010451D02*
X010837Y010451D01*
X010829Y010333D02*
X010837Y010333D01*
X010829Y010214D02*
X010837Y010214D01*
X010829Y010096D02*
X010837Y010096D01*
X010585Y009740D02*
X009933Y009740D01*
X009573Y011399D02*
X010652Y011399D01*
X010585Y011518D02*
X009573Y011518D01*
X009573Y011636D02*
X010585Y011636D01*
X010585Y011755D02*
X009573Y011755D01*
X009093Y011755D02*
X008903Y011755D01*
X009021Y011873D02*
X009093Y011873D01*
X009093Y011636D02*
X008741Y011636D01*
X008443Y011518D02*
X009093Y011518D01*
X009326Y012347D02*
X010585Y012347D01*
X013329Y010570D02*
X013337Y010570D01*
X013329Y010451D02*
X013337Y010451D01*
X013329Y010333D02*
X013337Y010333D01*
X013329Y010214D02*
X013337Y010214D01*
X013329Y010096D02*
X013337Y010096D01*
X011585Y008318D02*
X003093Y008318D01*
X003093Y010807D02*
X006012Y010807D01*
X006037Y010925D02*
X003093Y010925D01*
X003093Y011044D02*
X006077Y011044D01*
X006134Y011162D02*
X003093Y011162D01*
X003093Y011281D02*
X006212Y011281D01*
X006317Y011399D02*
X003093Y011399D01*
X003093Y011518D02*
X005509Y011518D01*
X005276Y011636D02*
X003093Y011636D01*
X003093Y011755D02*
X005132Y011755D01*
X005028Y011873D02*
X003093Y011873D01*
X003093Y011992D02*
X004950Y011992D01*
X004894Y012110D02*
X003093Y012110D01*
X003093Y012229D02*
X004855Y012229D01*
X004830Y012347D02*
X003093Y012347D01*
X005805Y012229D02*
X005925Y012229D01*
X005925Y012110D02*
X005805Y012110D01*
X005805Y011992D02*
X005925Y011992D01*
X005925Y011873D02*
X005805Y011873D01*
X005805Y011755D02*
X005925Y011755D01*
X005925Y011636D02*
X005805Y011636D01*
X005805Y011518D02*
X005925Y011518D01*
X006221Y011518D02*
X006463Y011518D01*
X006454Y011636D02*
X006701Y011636D01*
X005925Y012584D02*
X005805Y012584D01*
X005805Y012703D02*
X005925Y012703D01*
X005925Y012821D02*
X005805Y012821D01*
X005805Y012940D02*
X005925Y012940D01*
X005925Y013058D02*
X005805Y013058D01*
X005805Y013177D02*
X005925Y013177D01*
X005925Y013295D02*
X005805Y013295D01*
X005805Y013414D02*
X005925Y013414D01*
X003093Y028345D02*
X030065Y028345D01*
X030065Y028463D02*
X003093Y028463D01*
X003093Y028582D02*
X030065Y028582D01*
X030065Y028700D02*
X003093Y028700D01*
X003093Y028819D02*
X030065Y028819D01*
X030065Y028937D02*
X003093Y028937D01*
X003093Y029056D02*
X030065Y029056D01*
X030065Y029174D02*
X003093Y029174D01*
X003093Y029293D02*
X030065Y029293D01*
X030065Y029411D02*
X003093Y029411D01*
X003093Y029530D02*
X030065Y029530D01*
X030065Y029648D02*
X003093Y029648D01*
X003093Y029767D02*
X030065Y029767D01*
X030065Y029885D02*
X003093Y029885D01*
X003093Y030004D02*
X030065Y030004D01*
X030065Y030122D02*
X028592Y030122D01*
X028514Y030090D02*
X028849Y030229D01*
X029105Y030485D01*
X029243Y030819D01*
X029243Y031181D01*
X029105Y031515D01*
X028849Y031771D01*
X028514Y031910D01*
X028152Y031910D01*
X027818Y031771D01*
X027562Y031515D01*
X027423Y031181D01*
X027423Y030819D01*
X027562Y030485D01*
X027818Y030229D01*
X028152Y030090D01*
X028514Y030090D01*
X028861Y030241D02*
X030065Y030241D01*
X030065Y030359D02*
X028979Y030359D01*
X029098Y030478D02*
X030065Y030478D01*
X030065Y030596D02*
X029151Y030596D01*
X029200Y030715D02*
X030065Y030715D01*
X030065Y030833D02*
X029243Y030833D01*
X029243Y030952D02*
X030065Y030952D01*
X030065Y031070D02*
X029243Y031070D01*
X029240Y031189D02*
X030065Y031189D01*
X030065Y031307D02*
X029191Y031307D01*
X029142Y031426D02*
X030065Y031426D01*
X030065Y031544D02*
X029076Y031544D01*
X028958Y031663D02*
X030065Y031663D01*
X030065Y031781D02*
X028826Y031781D01*
X028540Y031900D02*
X030065Y031900D01*
X030065Y032018D02*
X003093Y032018D01*
X003093Y031900D02*
X004127Y031900D01*
X004152Y031910D02*
X003818Y031771D01*
X003562Y031515D01*
X003423Y031181D01*
X003423Y030819D01*
X003562Y030485D01*
X003818Y030229D01*
X004152Y030090D01*
X004514Y030090D01*
X004849Y030229D01*
X005105Y030485D01*
X005243Y030819D01*
X005243Y031181D01*
X005105Y031515D01*
X004849Y031771D01*
X004514Y031910D01*
X004152Y031910D01*
X003841Y031781D02*
X003093Y031781D01*
X003093Y031663D02*
X003709Y031663D01*
X003590Y031544D02*
X003093Y031544D01*
X003093Y031426D02*
X003525Y031426D01*
X003476Y031307D02*
X003093Y031307D01*
X003093Y031189D02*
X003426Y031189D01*
X003423Y031070D02*
X003093Y031070D01*
X003093Y030952D02*
X003423Y030952D01*
X003423Y030833D02*
X003093Y030833D01*
X003093Y030715D02*
X003467Y030715D01*
X003516Y030596D02*
X003093Y030596D01*
X003093Y030478D02*
X003569Y030478D01*
X003687Y030359D02*
X003093Y030359D01*
X003093Y030241D02*
X003806Y030241D01*
X004075Y030122D02*
X003093Y030122D01*
X004592Y030122D02*
X028075Y030122D01*
X027806Y030241D02*
X004861Y030241D01*
X004979Y030359D02*
X027687Y030359D01*
X027569Y030478D02*
X005098Y030478D01*
X005151Y030596D02*
X027516Y030596D01*
X027467Y030715D02*
X005200Y030715D01*
X005243Y030833D02*
X027423Y030833D01*
X027423Y030952D02*
X005243Y030952D01*
X005243Y031070D02*
X027423Y031070D01*
X027426Y031189D02*
X005240Y031189D01*
X005191Y031307D02*
X027476Y031307D01*
X027525Y031426D02*
X005142Y031426D01*
X005076Y031544D02*
X027590Y031544D01*
X027709Y031663D02*
X004958Y031663D01*
X004826Y031781D02*
X027841Y031781D01*
X028127Y031900D02*
X004540Y031900D01*
D23*
X014664Y018626D02*
X014664Y013169D01*
X014833Y013000D01*
X013833Y012000D01*
X013424Y012000D01*
X013333Y011909D01*
X014333Y011250D02*
X011493Y011250D01*
X010833Y011909D01*
X010743Y012000D01*
X009333Y012000D01*
X009333Y010000D01*
X009924Y009409D01*
X010833Y009409D01*
X011743Y008500D01*
X014833Y008500D01*
X015423Y009090D01*
X015613Y009090D01*
X015613Y010000D02*
X014333Y010000D01*
X013833Y009500D01*
X013424Y009500D01*
X013333Y009409D01*
X014333Y011250D02*
X015173Y012090D01*
X015613Y012090D01*
X015613Y013000D02*
X014833Y013000D01*
X015613Y013000D02*
X018053Y013000D01*
X018053Y010000D02*
X015613Y010000D01*
X009333Y012000D02*
X008833Y012500D01*
X008227Y012500D01*
D24*
X016083Y020750D03*
X020583Y019750D03*
X020583Y021750D03*
X022333Y023500D03*
X024833Y024500D03*
X026333Y024500D03*
D25*
X018333Y014500D02*
X018053Y014220D01*
X018053Y013000D01*
D26*
X018333Y014500D03*
D27*
X026333Y014000D02*
X028333Y014000D01*
X029083Y013250D02*
X028833Y013000D01*
X028333Y013000D01*
X029083Y013250D02*
X029083Y018500D01*
X028833Y018750D01*
X027844Y018750D01*
X027844Y019250D02*
X029083Y019250D01*
X029333Y019000D01*
X029333Y012250D01*
X029083Y012000D01*
X028333Y012000D01*
X028333Y011000D02*
X029333Y011000D01*
X029583Y011250D01*
X029583Y019500D01*
X029333Y019750D01*
X027844Y019750D01*
X027844Y020250D02*
X029583Y020250D01*
X029833Y020000D01*
X029833Y010500D01*
X029333Y010000D01*
X028333Y010000D01*
M02*
