G75*
G70*
%OFA0B0*%
%FSLAX24Y24*%
%IPPOS*%
%LPD*%
%AMOC8*
5,1,8,0,0,1.08239X$1,22.5*
%
%ADD10C,0.0000*%
D10*
X002833Y005000D02*
X002833Y032370D01*
X030325Y032370D01*
X030325Y005000D01*
X002833Y005000D01*
X003683Y006500D02*
X003685Y006550D01*
X003691Y006600D01*
X003701Y006650D01*
X003714Y006698D01*
X003731Y006746D01*
X003752Y006792D01*
X003776Y006836D01*
X003804Y006878D01*
X003835Y006918D01*
X003869Y006955D01*
X003906Y006990D01*
X003945Y007021D01*
X003986Y007050D01*
X004030Y007075D01*
X004076Y007097D01*
X004123Y007115D01*
X004171Y007129D01*
X004220Y007140D01*
X004270Y007147D01*
X004320Y007150D01*
X004371Y007149D01*
X004421Y007144D01*
X004471Y007135D01*
X004519Y007123D01*
X004567Y007106D01*
X004613Y007086D01*
X004658Y007063D01*
X004701Y007036D01*
X004741Y007006D01*
X004779Y006973D01*
X004814Y006937D01*
X004847Y006898D01*
X004876Y006857D01*
X004902Y006814D01*
X004925Y006769D01*
X004944Y006722D01*
X004959Y006674D01*
X004971Y006625D01*
X004979Y006575D01*
X004983Y006525D01*
X004983Y006475D01*
X004979Y006425D01*
X004971Y006375D01*
X004959Y006326D01*
X004944Y006278D01*
X004925Y006231D01*
X004902Y006186D01*
X004876Y006143D01*
X004847Y006102D01*
X004814Y006063D01*
X004779Y006027D01*
X004741Y005994D01*
X004701Y005964D01*
X004658Y005937D01*
X004613Y005914D01*
X004567Y005894D01*
X004519Y005877D01*
X004471Y005865D01*
X004421Y005856D01*
X004371Y005851D01*
X004320Y005850D01*
X004270Y005853D01*
X004220Y005860D01*
X004171Y005871D01*
X004123Y005885D01*
X004076Y005903D01*
X004030Y005925D01*
X003986Y005950D01*
X003945Y005979D01*
X003906Y006010D01*
X003869Y006045D01*
X003835Y006082D01*
X003804Y006122D01*
X003776Y006164D01*
X003752Y006208D01*
X003731Y006254D01*
X003714Y006302D01*
X003701Y006350D01*
X003691Y006400D01*
X003685Y006450D01*
X003683Y006500D01*
X027683Y006500D02*
X027685Y006550D01*
X027691Y006600D01*
X027701Y006650D01*
X027714Y006698D01*
X027731Y006746D01*
X027752Y006792D01*
X027776Y006836D01*
X027804Y006878D01*
X027835Y006918D01*
X027869Y006955D01*
X027906Y006990D01*
X027945Y007021D01*
X027986Y007050D01*
X028030Y007075D01*
X028076Y007097D01*
X028123Y007115D01*
X028171Y007129D01*
X028220Y007140D01*
X028270Y007147D01*
X028320Y007150D01*
X028371Y007149D01*
X028421Y007144D01*
X028471Y007135D01*
X028519Y007123D01*
X028567Y007106D01*
X028613Y007086D01*
X028658Y007063D01*
X028701Y007036D01*
X028741Y007006D01*
X028779Y006973D01*
X028814Y006937D01*
X028847Y006898D01*
X028876Y006857D01*
X028902Y006814D01*
X028925Y006769D01*
X028944Y006722D01*
X028959Y006674D01*
X028971Y006625D01*
X028979Y006575D01*
X028983Y006525D01*
X028983Y006475D01*
X028979Y006425D01*
X028971Y006375D01*
X028959Y006326D01*
X028944Y006278D01*
X028925Y006231D01*
X028902Y006186D01*
X028876Y006143D01*
X028847Y006102D01*
X028814Y006063D01*
X028779Y006027D01*
X028741Y005994D01*
X028701Y005964D01*
X028658Y005937D01*
X028613Y005914D01*
X028567Y005894D01*
X028519Y005877D01*
X028471Y005865D01*
X028421Y005856D01*
X028371Y005851D01*
X028320Y005850D01*
X028270Y005853D01*
X028220Y005860D01*
X028171Y005871D01*
X028123Y005885D01*
X028076Y005903D01*
X028030Y005925D01*
X027986Y005950D01*
X027945Y005979D01*
X027906Y006010D01*
X027869Y006045D01*
X027835Y006082D01*
X027804Y006122D01*
X027776Y006164D01*
X027752Y006208D01*
X027731Y006254D01*
X027714Y006302D01*
X027701Y006350D01*
X027691Y006400D01*
X027685Y006450D01*
X027683Y006500D01*
X027683Y031000D02*
X027685Y031050D01*
X027691Y031100D01*
X027701Y031150D01*
X027714Y031198D01*
X027731Y031246D01*
X027752Y031292D01*
X027776Y031336D01*
X027804Y031378D01*
X027835Y031418D01*
X027869Y031455D01*
X027906Y031490D01*
X027945Y031521D01*
X027986Y031550D01*
X028030Y031575D01*
X028076Y031597D01*
X028123Y031615D01*
X028171Y031629D01*
X028220Y031640D01*
X028270Y031647D01*
X028320Y031650D01*
X028371Y031649D01*
X028421Y031644D01*
X028471Y031635D01*
X028519Y031623D01*
X028567Y031606D01*
X028613Y031586D01*
X028658Y031563D01*
X028701Y031536D01*
X028741Y031506D01*
X028779Y031473D01*
X028814Y031437D01*
X028847Y031398D01*
X028876Y031357D01*
X028902Y031314D01*
X028925Y031269D01*
X028944Y031222D01*
X028959Y031174D01*
X028971Y031125D01*
X028979Y031075D01*
X028983Y031025D01*
X028983Y030975D01*
X028979Y030925D01*
X028971Y030875D01*
X028959Y030826D01*
X028944Y030778D01*
X028925Y030731D01*
X028902Y030686D01*
X028876Y030643D01*
X028847Y030602D01*
X028814Y030563D01*
X028779Y030527D01*
X028741Y030494D01*
X028701Y030464D01*
X028658Y030437D01*
X028613Y030414D01*
X028567Y030394D01*
X028519Y030377D01*
X028471Y030365D01*
X028421Y030356D01*
X028371Y030351D01*
X028320Y030350D01*
X028270Y030353D01*
X028220Y030360D01*
X028171Y030371D01*
X028123Y030385D01*
X028076Y030403D01*
X028030Y030425D01*
X027986Y030450D01*
X027945Y030479D01*
X027906Y030510D01*
X027869Y030545D01*
X027835Y030582D01*
X027804Y030622D01*
X027776Y030664D01*
X027752Y030708D01*
X027731Y030754D01*
X027714Y030802D01*
X027701Y030850D01*
X027691Y030900D01*
X027685Y030950D01*
X027683Y031000D01*
X003683Y031000D02*
X003685Y031050D01*
X003691Y031100D01*
X003701Y031150D01*
X003714Y031198D01*
X003731Y031246D01*
X003752Y031292D01*
X003776Y031336D01*
X003804Y031378D01*
X003835Y031418D01*
X003869Y031455D01*
X003906Y031490D01*
X003945Y031521D01*
X003986Y031550D01*
X004030Y031575D01*
X004076Y031597D01*
X004123Y031615D01*
X004171Y031629D01*
X004220Y031640D01*
X004270Y031647D01*
X004320Y031650D01*
X004371Y031649D01*
X004421Y031644D01*
X004471Y031635D01*
X004519Y031623D01*
X004567Y031606D01*
X004613Y031586D01*
X004658Y031563D01*
X004701Y031536D01*
X004741Y031506D01*
X004779Y031473D01*
X004814Y031437D01*
X004847Y031398D01*
X004876Y031357D01*
X004902Y031314D01*
X004925Y031269D01*
X004944Y031222D01*
X004959Y031174D01*
X004971Y031125D01*
X004979Y031075D01*
X004983Y031025D01*
X004983Y030975D01*
X004979Y030925D01*
X004971Y030875D01*
X004959Y030826D01*
X004944Y030778D01*
X004925Y030731D01*
X004902Y030686D01*
X004876Y030643D01*
X004847Y030602D01*
X004814Y030563D01*
X004779Y030527D01*
X004741Y030494D01*
X004701Y030464D01*
X004658Y030437D01*
X004613Y030414D01*
X004567Y030394D01*
X004519Y030377D01*
X004471Y030365D01*
X004421Y030356D01*
X004371Y030351D01*
X004320Y030350D01*
X004270Y030353D01*
X004220Y030360D01*
X004171Y030371D01*
X004123Y030385D01*
X004076Y030403D01*
X004030Y030425D01*
X003986Y030450D01*
X003945Y030479D01*
X003906Y030510D01*
X003869Y030545D01*
X003835Y030582D01*
X003804Y030622D01*
X003776Y030664D01*
X003752Y030708D01*
X003731Y030754D01*
X003714Y030802D01*
X003701Y030850D01*
X003691Y030900D01*
X003685Y030950D01*
X003683Y031000D01*
M02*
