G75*
G70*
%OFA0B0*%
%FSLAX24Y24*%
%IPPOS*%
%LPD*%
%AMOC8*
5,1,8,0,0,1.08239X$1,22.5*
%
%ADD10C,0.0740*%
%ADD11OC8,0.0740*%
%ADD12C,0.1770*%
%ADD13C,0.0600*%
%ADD14C,0.0120*%
%ADD15C,0.0360*%
%ADD16C,0.0396*%
%ADD17C,0.0160*%
D10*
X015333Y007000D03*
X016333Y007000D03*
X017333Y007000D03*
X021943Y010220D03*
X023723Y010220D03*
X023723Y012780D03*
X021943Y012780D03*
X022333Y018000D03*
X021333Y018000D03*
X020333Y018000D03*
X028333Y016000D03*
X028333Y015000D03*
X028333Y014000D03*
X028333Y013000D03*
X028333Y012000D03*
X028333Y011000D03*
X028333Y010000D03*
D11*
X021333Y025500D03*
X020333Y025500D03*
X019333Y025500D03*
X019333Y026500D03*
X020333Y026500D03*
X021333Y026500D03*
D12*
X008227Y012500D03*
X007046Y010650D03*
X005865Y012500D03*
D13*
X006003Y018626D03*
X006003Y019413D03*
X006003Y020201D03*
X006003Y020988D03*
X006003Y021776D03*
X006003Y022563D03*
X006003Y023350D03*
X006003Y024138D03*
X006003Y024925D03*
X006003Y025713D03*
X014664Y025713D03*
X014664Y024925D03*
X014664Y024138D03*
X014664Y023350D03*
X014664Y022563D03*
X014664Y021776D03*
X014664Y020988D03*
X014664Y020201D03*
X014664Y019413D03*
X014664Y018626D03*
D14*
X003093Y005260D02*
X003093Y032110D01*
X030065Y032110D01*
X030065Y005260D01*
X003093Y005260D01*
X003093Y005356D02*
X030065Y005356D01*
X030065Y005474D02*
X003093Y005474D01*
X003093Y005593D02*
X004146Y005593D01*
X004152Y005590D02*
X004514Y005590D01*
X004849Y005729D01*
X005105Y005985D01*
X005243Y006319D01*
X005243Y006681D01*
X005105Y007015D01*
X004849Y007271D01*
X004514Y007410D01*
X004152Y007410D01*
X003818Y007271D01*
X003562Y007015D01*
X003423Y006681D01*
X003423Y006319D01*
X003562Y005985D01*
X003818Y005729D01*
X004152Y005590D01*
X003860Y005711D02*
X003093Y005711D01*
X003093Y005830D02*
X003717Y005830D01*
X003598Y005948D02*
X003093Y005948D01*
X003093Y006067D02*
X003528Y006067D01*
X003479Y006185D02*
X003093Y006185D01*
X003093Y006304D02*
X003430Y006304D01*
X003423Y006422D02*
X003093Y006422D01*
X003093Y006541D02*
X003423Y006541D01*
X003423Y006659D02*
X003093Y006659D01*
X003093Y006778D02*
X003463Y006778D01*
X003512Y006896D02*
X003093Y006896D01*
X003093Y007015D02*
X003561Y007015D01*
X003679Y007133D02*
X003093Y007133D01*
X003093Y007252D02*
X003798Y007252D01*
X004056Y007370D02*
X003093Y007370D01*
X003093Y007489D02*
X015125Y007489D01*
X015130Y007491D02*
X015056Y007453D01*
X014988Y007404D01*
X014929Y007345D01*
X014880Y007278D01*
X014842Y007203D01*
X014816Y007124D01*
X014803Y007042D01*
X014803Y007040D01*
X015293Y007040D01*
X015293Y006960D01*
X014803Y006960D01*
X014803Y006958D01*
X014816Y006876D01*
X014842Y006797D01*
X014880Y006722D01*
X014929Y006655D01*
X014988Y006596D01*
X015056Y006547D01*
X015130Y006509D01*
X015209Y006483D01*
X015292Y006470D01*
X015293Y006470D01*
X015293Y006960D01*
X015373Y006960D01*
X015373Y006470D01*
X015375Y006470D01*
X015457Y006483D01*
X015537Y006509D01*
X015611Y006547D01*
X015679Y006596D01*
X015738Y006655D01*
X015787Y006722D01*
X015825Y006797D01*
X015850Y006876D01*
X015851Y006883D01*
X015918Y006722D01*
X016056Y006585D01*
X016236Y006510D01*
X016431Y006510D01*
X016611Y006585D01*
X016749Y006722D01*
X016823Y006903D01*
X016823Y007097D01*
X016749Y007278D01*
X016611Y007415D01*
X016431Y007490D01*
X016236Y007490D01*
X016056Y007415D01*
X015918Y007278D01*
X015851Y007117D01*
X015850Y007124D01*
X015825Y007203D01*
X015787Y007278D01*
X015738Y007345D01*
X015679Y007404D01*
X015611Y007453D01*
X015537Y007491D01*
X015457Y007517D01*
X015375Y007530D01*
X015373Y007530D01*
X015373Y007040D01*
X015293Y007040D01*
X015293Y007530D01*
X015292Y007530D01*
X015209Y007517D01*
X015130Y007491D01*
X015293Y007489D02*
X015373Y007489D01*
X015373Y007370D02*
X015293Y007370D01*
X015293Y007252D02*
X015373Y007252D01*
X015373Y007133D02*
X015293Y007133D01*
X015293Y007015D02*
X005105Y007015D01*
X005154Y006896D02*
X014813Y006896D01*
X014852Y006778D02*
X005203Y006778D01*
X005243Y006659D02*
X014926Y006659D01*
X015068Y006541D02*
X005243Y006541D01*
X005243Y006422D02*
X027423Y006422D01*
X027423Y006319D02*
X027562Y005985D01*
X027818Y005729D01*
X028152Y005590D01*
X028514Y005590D01*
X028849Y005729D01*
X029105Y005985D01*
X029243Y006319D01*
X029243Y006681D01*
X029105Y007015D01*
X028849Y007271D01*
X028514Y007410D01*
X028152Y007410D01*
X027818Y007271D01*
X027562Y007015D01*
X027423Y006681D01*
X027423Y006319D01*
X027430Y006304D02*
X005237Y006304D01*
X005188Y006185D02*
X027479Y006185D01*
X027528Y006067D02*
X005139Y006067D01*
X005068Y005948D02*
X027598Y005948D01*
X027717Y005830D02*
X004950Y005830D01*
X004806Y005711D02*
X027860Y005711D01*
X028146Y005593D02*
X004520Y005593D01*
X004987Y007133D02*
X014819Y007133D01*
X014867Y007252D02*
X004869Y007252D01*
X004611Y007370D02*
X014954Y007370D01*
X015293Y006896D02*
X015373Y006896D01*
X015373Y006778D02*
X015293Y006778D01*
X015293Y006659D02*
X015373Y006659D01*
X015373Y006541D02*
X015293Y006541D01*
X015599Y006541D02*
X016162Y006541D01*
X015981Y006659D02*
X015741Y006659D01*
X015815Y006778D02*
X015895Y006778D01*
X015858Y007133D02*
X015847Y007133D01*
X015800Y007252D02*
X015907Y007252D01*
X016010Y007370D02*
X015713Y007370D01*
X015542Y007489D02*
X016232Y007489D01*
X016434Y007489D02*
X017232Y007489D01*
X017236Y007490D02*
X017056Y007415D01*
X016918Y007278D01*
X016843Y007097D01*
X016843Y006903D01*
X016918Y006722D01*
X017056Y006585D01*
X017236Y006510D01*
X017431Y006510D01*
X017611Y006585D01*
X017749Y006722D01*
X017823Y006903D01*
X017823Y007097D01*
X017749Y007278D01*
X017611Y007415D01*
X017431Y007490D01*
X017236Y007490D01*
X017434Y007489D02*
X030065Y007489D01*
X030065Y007607D02*
X003093Y007607D01*
X003093Y007726D02*
X030065Y007726D01*
X030065Y007844D02*
X003093Y007844D01*
X003093Y007963D02*
X030065Y007963D01*
X030065Y008081D02*
X003093Y008081D01*
X003093Y008200D02*
X030065Y008200D01*
X030065Y008318D02*
X003093Y008318D01*
X003093Y008437D02*
X030065Y008437D01*
X030065Y008555D02*
X003093Y008555D01*
X003093Y008674D02*
X030065Y008674D01*
X030065Y008792D02*
X003093Y008792D01*
X003093Y008911D02*
X030065Y008911D01*
X030065Y009029D02*
X003093Y009029D01*
X003093Y009148D02*
X030065Y009148D01*
X030065Y009266D02*
X003093Y009266D01*
X003093Y009385D02*
X030065Y009385D01*
X030065Y009503D02*
X003093Y009503D01*
X003093Y009622D02*
X006854Y009622D01*
X006871Y009618D02*
X006986Y009605D01*
X006986Y010590D01*
X006001Y010590D01*
X006014Y010474D01*
X006040Y010360D01*
X006079Y010249D01*
X006130Y010143D01*
X006192Y010044D01*
X006266Y009952D01*
X006349Y009869D01*
X006440Y009796D01*
X006540Y009734D01*
X006645Y009683D01*
X006756Y009644D01*
X006871Y009618D01*
X006986Y009622D02*
X007106Y009622D01*
X007106Y009605D02*
X007221Y009618D01*
X007336Y009644D01*
X007446Y009683D01*
X007552Y009734D01*
X007652Y009796D01*
X007743Y009869D01*
X007826Y009952D01*
X007900Y010044D01*
X007962Y010143D01*
X008013Y010249D01*
X008052Y010360D01*
X008078Y010474D01*
X008091Y010590D01*
X007106Y010590D01*
X007106Y010710D01*
X006986Y010710D01*
X006986Y011694D01*
X006871Y011681D01*
X006756Y011655D01*
X006645Y011617D01*
X006540Y011566D01*
X006440Y011503D01*
X006349Y011430D01*
X006266Y011347D01*
X006192Y011255D01*
X006130Y011156D01*
X006079Y011050D01*
X006040Y010939D01*
X006014Y010825D01*
X006001Y010710D01*
X006986Y010710D01*
X006986Y010590D01*
X007106Y010590D01*
X007106Y009605D01*
X007238Y009622D02*
X028019Y009622D01*
X028056Y009585D02*
X028236Y009510D01*
X028431Y009510D01*
X028611Y009585D01*
X028749Y009722D01*
X028823Y009903D01*
X028823Y010097D01*
X028749Y010278D01*
X028611Y010415D01*
X028431Y010490D01*
X028236Y010490D01*
X028056Y010415D01*
X027918Y010278D01*
X027843Y010097D01*
X027843Y009903D01*
X027918Y009722D01*
X028056Y009585D01*
X027911Y009740D02*
X023845Y009740D01*
X023821Y009730D02*
X024001Y009805D01*
X024139Y009942D01*
X024213Y010123D01*
X024213Y010317D01*
X024139Y010498D01*
X024001Y010635D01*
X023821Y010710D01*
X023626Y010710D01*
X023446Y010635D01*
X023308Y010498D01*
X023233Y010317D01*
X023233Y010123D01*
X023308Y009942D01*
X023446Y009805D01*
X023626Y009730D01*
X023821Y009730D01*
X023602Y009740D02*
X022065Y009740D01*
X022041Y009730D02*
X022221Y009805D01*
X022359Y009942D01*
X022433Y010123D01*
X022433Y010317D01*
X022359Y010498D01*
X022221Y010635D01*
X022041Y010710D01*
X021846Y010710D01*
X021666Y010635D01*
X021528Y010498D01*
X021453Y010317D01*
X021453Y010123D01*
X021528Y009942D01*
X021666Y009805D01*
X021846Y009730D01*
X022041Y009730D01*
X021822Y009740D02*
X007562Y009740D01*
X007730Y009859D02*
X021612Y009859D01*
X021514Y009977D02*
X007846Y009977D01*
X007932Y010096D02*
X021465Y010096D01*
X021453Y010214D02*
X007996Y010214D01*
X008042Y010333D02*
X021460Y010333D01*
X021509Y010451D02*
X008072Y010451D01*
X008089Y010570D02*
X021600Y010570D01*
X021793Y010688D02*
X007106Y010688D01*
X007106Y010710D02*
X008091Y010710D01*
X008078Y010825D01*
X008052Y010939D01*
X008013Y011050D01*
X007962Y011156D01*
X007900Y011255D01*
X007826Y011347D01*
X007743Y011430D01*
X007652Y011503D01*
X007552Y011566D01*
X007446Y011617D01*
X007336Y011655D01*
X007221Y011681D01*
X007106Y011694D01*
X007106Y010710D01*
X007106Y010807D02*
X006986Y010807D01*
X006986Y010925D02*
X007106Y010925D01*
X007106Y011044D02*
X006986Y011044D01*
X006986Y011162D02*
X007106Y011162D01*
X007106Y011281D02*
X006986Y011281D01*
X006986Y011399D02*
X007106Y011399D01*
X007106Y011518D02*
X006986Y011518D01*
X006986Y011636D02*
X007106Y011636D01*
X007391Y011636D02*
X007714Y011636D01*
X007610Y011696D02*
X007839Y011563D01*
X008095Y011495D01*
X008359Y011495D01*
X008615Y011563D01*
X008844Y011696D01*
X009031Y011883D01*
X009164Y012112D01*
X009232Y012368D01*
X009232Y012632D01*
X009164Y012888D01*
X009031Y013117D01*
X008844Y013304D01*
X008615Y013437D01*
X008359Y013505D01*
X008095Y013505D01*
X007839Y013437D01*
X007610Y013304D01*
X007423Y013117D01*
X007291Y012888D01*
X007222Y012632D01*
X007222Y012368D01*
X007291Y012112D01*
X007423Y011883D01*
X007610Y011696D01*
X007551Y011755D02*
X006597Y011755D01*
X006562Y011720D02*
X006645Y011803D01*
X006718Y011894D01*
X006781Y011994D01*
X006832Y012099D01*
X006871Y012210D01*
X006897Y012325D01*
X006910Y012440D01*
X005925Y012440D01*
X005925Y012560D01*
X006910Y012560D01*
X006897Y012675D01*
X006871Y012790D01*
X006832Y012901D01*
X006781Y013006D01*
X006718Y013106D01*
X006645Y013197D01*
X006562Y013280D01*
X006470Y013354D01*
X006371Y013416D01*
X006265Y013467D01*
X006155Y013506D01*
X006040Y013532D01*
X005925Y013545D01*
X005925Y012560D01*
X005805Y012560D01*
X005805Y013545D01*
X005690Y013532D01*
X005575Y013506D01*
X005464Y013467D01*
X005359Y013416D01*
X005259Y013354D01*
X005167Y013280D01*
X005084Y013197D01*
X005011Y013106D01*
X004949Y013006D01*
X004898Y012901D01*
X004859Y012790D01*
X004833Y012675D01*
X004820Y012560D01*
X005805Y012560D01*
X005805Y012440D01*
X005925Y012440D01*
X005925Y011455D01*
X006040Y011468D01*
X006155Y011494D01*
X006265Y011533D01*
X006371Y011584D01*
X006470Y011646D01*
X006562Y011720D01*
X006454Y011636D02*
X006701Y011636D01*
X006701Y011873D02*
X007433Y011873D01*
X007360Y011992D02*
X006779Y011992D01*
X006835Y012110D02*
X007292Y012110D01*
X007259Y012229D02*
X006875Y012229D01*
X006899Y012347D02*
X007228Y012347D01*
X007222Y012466D02*
X005925Y012466D01*
X005925Y012584D02*
X005805Y012584D01*
X005805Y012466D02*
X003093Y012466D01*
X003093Y012584D02*
X004823Y012584D01*
X004839Y012703D02*
X003093Y012703D01*
X003093Y012821D02*
X004870Y012821D01*
X004917Y012940D02*
X003093Y012940D01*
X003093Y013058D02*
X004981Y013058D01*
X005068Y013177D02*
X003093Y013177D01*
X003093Y013295D02*
X005186Y013295D01*
X005355Y013414D02*
X003093Y013414D01*
X003093Y013532D02*
X005691Y013532D01*
X005805Y013532D02*
X005925Y013532D01*
X006039Y013532D02*
X028183Y013532D01*
X028236Y013510D02*
X028431Y013510D01*
X028611Y013585D01*
X028749Y013722D01*
X028823Y013903D01*
X028823Y014097D01*
X028749Y014278D01*
X028611Y014415D01*
X028431Y014490D01*
X028236Y014490D01*
X028056Y014415D01*
X027918Y014278D01*
X027843Y014097D01*
X027843Y013903D01*
X027918Y013722D01*
X028056Y013585D01*
X028236Y013510D01*
X028236Y013490D02*
X028056Y013415D01*
X027918Y013278D01*
X027843Y013097D01*
X027843Y012903D01*
X027918Y012722D01*
X028056Y012585D01*
X028236Y012510D01*
X028431Y012510D01*
X028611Y012585D01*
X028749Y012722D01*
X028823Y012903D01*
X028823Y013097D01*
X028749Y013278D01*
X028611Y013415D01*
X028431Y013490D01*
X028236Y013490D01*
X028054Y013414D02*
X008655Y013414D01*
X008853Y013295D02*
X023593Y013295D01*
X023599Y013297D02*
X023520Y013271D01*
X023446Y013233D01*
X023378Y013184D01*
X023319Y013125D01*
X023270Y013058D01*
X022358Y013058D01*
X022359Y013058D02*
X022221Y013195D01*
X022041Y013270D01*
X021846Y013270D01*
X021666Y013195D01*
X021528Y013058D01*
X009065Y013058D01*
X009134Y012940D02*
X021479Y012940D01*
X021453Y012877D02*
X021453Y012683D01*
X021528Y012502D01*
X021666Y012365D01*
X021846Y012290D01*
X022041Y012290D01*
X022221Y012365D01*
X022359Y012502D01*
X022433Y012683D01*
X022433Y012877D01*
X022359Y013058D01*
X022408Y012940D02*
X023218Y012940D01*
X023206Y012904D02*
X023193Y012822D01*
X023193Y012820D01*
X023683Y012820D01*
X023683Y012740D01*
X023193Y012740D01*
X023193Y012738D01*
X023206Y012656D01*
X023232Y012577D01*
X023270Y012502D01*
X023319Y012435D01*
X023378Y012376D01*
X023446Y012327D01*
X023520Y012289D01*
X023599Y012263D01*
X023682Y012250D01*
X023683Y012250D01*
X023683Y012740D01*
X023763Y012740D01*
X023763Y012250D01*
X023765Y012250D01*
X023847Y012263D01*
X023927Y012289D01*
X024001Y012327D01*
X024069Y012376D01*
X024128Y012435D01*
X024177Y012502D01*
X024215Y012577D01*
X024240Y012656D01*
X024253Y012738D01*
X024253Y012740D01*
X023763Y012740D01*
X023763Y012820D01*
X023683Y012820D01*
X023683Y013310D01*
X023682Y013310D01*
X023599Y013297D01*
X023683Y013295D02*
X023763Y013295D01*
X023763Y013310D02*
X023763Y012820D01*
X024253Y012820D01*
X024253Y012822D01*
X024240Y012904D01*
X024215Y012983D01*
X024177Y013058D01*
X024128Y013125D01*
X024069Y013184D01*
X024001Y013233D01*
X023927Y013271D01*
X023847Y013297D01*
X023765Y013310D01*
X023763Y013310D01*
X023853Y013295D02*
X027935Y013295D01*
X027876Y013177D02*
X024076Y013177D01*
X024176Y013058D02*
X027843Y013058D01*
X027843Y012940D02*
X024229Y012940D01*
X024253Y012821D02*
X027877Y012821D01*
X027938Y012703D02*
X024248Y012703D01*
X024217Y012584D02*
X028057Y012584D01*
X028177Y012466D02*
X024150Y012466D01*
X024029Y012347D02*
X027987Y012347D01*
X028056Y012415D02*
X027918Y012278D01*
X027843Y012097D01*
X027843Y011903D01*
X027918Y011722D01*
X028056Y011585D01*
X028236Y011510D01*
X028431Y011510D01*
X028611Y011585D01*
X028749Y011722D01*
X028823Y011903D01*
X028823Y012097D01*
X028749Y012278D01*
X028611Y012415D01*
X028431Y012490D01*
X028236Y012490D01*
X028056Y012415D01*
X027898Y012229D02*
X009195Y012229D01*
X009226Y012347D02*
X021708Y012347D01*
X021565Y012466D02*
X009232Y012466D01*
X009232Y012584D02*
X021494Y012584D01*
X021453Y012703D02*
X009213Y012703D01*
X009181Y012821D02*
X021453Y012821D01*
X021453Y012877D02*
X021528Y013058D01*
X021647Y013177D02*
X008972Y013177D01*
X009162Y012110D02*
X027849Y012110D01*
X027843Y011992D02*
X009094Y011992D01*
X009021Y011873D02*
X027856Y011873D01*
X027905Y011755D02*
X008903Y011755D01*
X008741Y011636D02*
X028004Y011636D01*
X028056Y011415D02*
X027918Y011278D01*
X027843Y011097D01*
X027843Y010903D01*
X027918Y010722D01*
X028056Y010585D01*
X028236Y010510D01*
X028431Y010510D01*
X028611Y010585D01*
X028749Y010722D01*
X028823Y010903D01*
X028823Y011097D01*
X028749Y011278D01*
X028611Y011415D01*
X028431Y011490D01*
X028236Y011490D01*
X028056Y011415D01*
X028039Y011399D02*
X007774Y011399D01*
X007879Y011281D02*
X027921Y011281D01*
X027870Y011162D02*
X007958Y011162D01*
X008015Y011044D02*
X027843Y011044D01*
X027843Y010925D02*
X008055Y010925D01*
X008080Y010807D02*
X027883Y010807D01*
X027952Y010688D02*
X023874Y010688D01*
X024067Y010570D02*
X028092Y010570D01*
X028142Y010451D02*
X024158Y010451D01*
X024207Y010333D02*
X027973Y010333D01*
X027892Y010214D02*
X024213Y010214D01*
X024202Y010096D02*
X027843Y010096D01*
X027843Y009977D02*
X024153Y009977D01*
X024055Y009859D02*
X027862Y009859D01*
X028648Y009622D02*
X030065Y009622D01*
X030065Y009740D02*
X028756Y009740D01*
X028805Y009859D02*
X030065Y009859D01*
X030065Y009977D02*
X028823Y009977D01*
X028823Y010096D02*
X030065Y010096D01*
X030065Y010214D02*
X028775Y010214D01*
X028694Y010333D02*
X030065Y010333D01*
X030065Y010451D02*
X028525Y010451D01*
X028574Y010570D02*
X030065Y010570D01*
X030065Y010688D02*
X028714Y010688D01*
X028784Y010807D02*
X030065Y010807D01*
X030065Y010925D02*
X028823Y010925D01*
X028823Y011044D02*
X030065Y011044D01*
X030065Y011162D02*
X028797Y011162D01*
X028746Y011281D02*
X030065Y011281D01*
X030065Y011399D02*
X028627Y011399D01*
X028449Y011518D02*
X030065Y011518D01*
X030065Y011636D02*
X028662Y011636D01*
X028762Y011755D02*
X030065Y011755D01*
X030065Y011873D02*
X028811Y011873D01*
X028823Y011992D02*
X030065Y011992D01*
X030065Y012110D02*
X028818Y012110D01*
X028769Y012229D02*
X030065Y012229D01*
X030065Y012347D02*
X028679Y012347D01*
X028490Y012466D02*
X030065Y012466D01*
X030065Y012584D02*
X028609Y012584D01*
X028729Y012703D02*
X030065Y012703D01*
X030065Y012821D02*
X028790Y012821D01*
X028823Y012940D02*
X030065Y012940D01*
X030065Y013058D02*
X028823Y013058D01*
X028791Y013177D02*
X030065Y013177D01*
X030065Y013295D02*
X028731Y013295D01*
X028613Y013414D02*
X030065Y013414D01*
X030065Y013532D02*
X028484Y013532D01*
X028677Y013651D02*
X030065Y013651D01*
X030065Y013769D02*
X028768Y013769D01*
X028817Y013888D02*
X030065Y013888D01*
X030065Y014006D02*
X028823Y014006D01*
X028812Y014125D02*
X030065Y014125D01*
X030065Y014243D02*
X028763Y014243D01*
X028665Y014362D02*
X030065Y014362D01*
X030065Y014480D02*
X028455Y014480D01*
X028431Y014510D02*
X028611Y014585D01*
X028749Y014722D01*
X028823Y014903D01*
X028823Y015097D01*
X028749Y015278D01*
X028611Y015415D01*
X028450Y015482D01*
X028457Y015483D01*
X028537Y015509D01*
X028611Y015547D01*
X028679Y015596D01*
X028738Y015655D01*
X028787Y015722D01*
X028825Y015797D01*
X028850Y015876D01*
X028863Y015958D01*
X028863Y015960D01*
X028373Y015960D01*
X028373Y016040D01*
X028293Y016040D01*
X028293Y015960D01*
X027803Y015960D01*
X027803Y015958D01*
X027816Y015876D01*
X027842Y015797D01*
X027880Y015722D01*
X027929Y015655D01*
X027988Y015596D01*
X028056Y015547D01*
X003093Y015547D01*
X003093Y015665D02*
X027922Y015665D01*
X027849Y015784D02*
X003093Y015784D01*
X003093Y015902D02*
X027812Y015902D01*
X027803Y016040D02*
X028293Y016040D01*
X028293Y016530D01*
X028292Y016530D01*
X028209Y016517D01*
X028130Y016491D01*
X028056Y016453D01*
X027988Y016404D01*
X027929Y016345D01*
X027880Y016278D01*
X027842Y016203D01*
X027816Y016124D01*
X027803Y016042D01*
X027803Y016040D01*
X027821Y016139D02*
X003093Y016139D01*
X003093Y016021D02*
X028293Y016021D01*
X028373Y016021D02*
X030065Y016021D01*
X030065Y016139D02*
X028845Y016139D01*
X028850Y016124D02*
X028825Y016203D01*
X028787Y016278D01*
X028738Y016345D01*
X028679Y016404D01*
X028611Y016453D01*
X028537Y016491D01*
X028457Y016517D01*
X028375Y016530D01*
X028373Y016530D01*
X028373Y016040D01*
X028863Y016040D01*
X028863Y016042D01*
X028850Y016124D01*
X028797Y016258D02*
X030065Y016258D01*
X030065Y016376D02*
X028707Y016376D01*
X028526Y016495D02*
X030065Y016495D01*
X030065Y016613D02*
X003093Y016613D01*
X003093Y016495D02*
X028140Y016495D01*
X028293Y016495D02*
X028373Y016495D01*
X028373Y016376D02*
X028293Y016376D01*
X028293Y016258D02*
X028373Y016258D01*
X028373Y016139D02*
X028293Y016139D01*
X027960Y016376D02*
X003093Y016376D01*
X003093Y016258D02*
X027870Y016258D01*
X028056Y015547D02*
X028130Y015509D01*
X028209Y015483D01*
X028216Y015482D01*
X028056Y015415D01*
X027918Y015278D01*
X027886Y015200D01*
X027750Y015200D01*
X027633Y015083D01*
X027250Y014700D01*
X018583Y014700D01*
X018514Y014770D01*
X018397Y014818D01*
X018270Y014818D01*
X018153Y014770D01*
X018064Y014680D01*
X018015Y014563D01*
X018015Y014437D01*
X018064Y014320D01*
X018153Y014230D01*
X018270Y014182D01*
X018397Y014182D01*
X018514Y014230D01*
X018583Y014300D01*
X027416Y014300D01*
X027895Y014779D01*
X027918Y014722D01*
X028056Y014585D01*
X028236Y014510D01*
X028431Y014510D01*
X028625Y014599D02*
X030065Y014599D01*
X030065Y014717D02*
X028743Y014717D01*
X028796Y014836D02*
X030065Y014836D01*
X030065Y014954D02*
X028823Y014954D01*
X028823Y015073D02*
X030065Y015073D01*
X030065Y015191D02*
X028785Y015191D01*
X028717Y015310D02*
X030065Y015310D01*
X030065Y015428D02*
X028580Y015428D01*
X028611Y015547D02*
X030065Y015547D01*
X030065Y015665D02*
X028745Y015665D01*
X028818Y015784D02*
X030065Y015784D01*
X030065Y015902D02*
X028854Y015902D01*
X028086Y015428D02*
X003093Y015428D01*
X003093Y015310D02*
X027950Y015310D01*
X027742Y015191D02*
X003093Y015191D01*
X003093Y015073D02*
X027623Y015073D01*
X027505Y014954D02*
X003093Y014954D01*
X003093Y014836D02*
X027386Y014836D01*
X027268Y014717D02*
X018566Y014717D01*
X018100Y014717D02*
X003093Y014717D01*
X003093Y014599D02*
X018030Y014599D01*
X018015Y014480D02*
X003093Y014480D01*
X003093Y014362D02*
X018046Y014362D01*
X018140Y014243D02*
X003093Y014243D01*
X003093Y014125D02*
X027855Y014125D01*
X027843Y014006D02*
X003093Y014006D01*
X003093Y013888D02*
X027850Y013888D01*
X027899Y013769D02*
X003093Y013769D01*
X003093Y013651D02*
X027990Y013651D01*
X027904Y014243D02*
X018526Y014243D01*
X020056Y017585D02*
X020236Y017510D01*
X020431Y017510D01*
X020611Y017585D01*
X020749Y017722D01*
X020815Y017883D01*
X020816Y017876D01*
X020842Y017797D01*
X020880Y017722D01*
X020929Y017655D01*
X020988Y017596D01*
X021056Y017547D01*
X021130Y017509D01*
X021209Y017483D01*
X021292Y017470D01*
X021315Y017470D01*
X021315Y017981D01*
X021352Y017981D01*
X021352Y017470D01*
X021375Y017470D01*
X021457Y017483D01*
X021537Y017509D01*
X021611Y017547D01*
X021679Y017596D01*
X021738Y017655D01*
X021787Y017722D01*
X021825Y017797D01*
X021850Y017876D01*
X021851Y017883D01*
X021918Y017722D01*
X022056Y017585D01*
X022236Y017510D01*
X022431Y017510D01*
X022611Y017585D01*
X022749Y017722D01*
X022823Y017903D01*
X022823Y018097D01*
X022749Y018278D01*
X022611Y018415D01*
X022431Y018490D01*
X022236Y018490D01*
X022056Y018415D01*
X021918Y018278D01*
X021851Y018117D01*
X021850Y018124D01*
X021825Y018203D01*
X021787Y018278D01*
X021738Y018345D01*
X021679Y018404D01*
X021611Y018453D01*
X021537Y018491D01*
X021457Y018517D01*
X021375Y018530D01*
X021352Y018530D01*
X021352Y018019D01*
X021315Y018019D01*
X021315Y018530D01*
X021292Y018530D01*
X021209Y018517D01*
X021130Y018491D01*
X021056Y018453D01*
X020988Y018404D01*
X020929Y018345D01*
X020880Y018278D01*
X020842Y018203D01*
X020816Y018124D01*
X020815Y018117D01*
X020749Y018278D01*
X020611Y018415D01*
X020431Y018490D01*
X020236Y018490D01*
X020056Y018415D01*
X019918Y018278D01*
X019843Y018097D01*
X019843Y017903D01*
X019918Y017722D01*
X020056Y017585D01*
X020113Y017561D02*
X003093Y017561D01*
X003093Y017443D02*
X030065Y017443D01*
X030065Y017561D02*
X022554Y017561D01*
X022706Y017680D02*
X030065Y017680D01*
X030065Y017798D02*
X022780Y017798D01*
X022823Y017917D02*
X030065Y017917D01*
X030065Y018035D02*
X022823Y018035D01*
X022800Y018154D02*
X030065Y018154D01*
X030065Y018272D02*
X022751Y018272D01*
X022636Y018391D02*
X030065Y018391D01*
X030065Y018509D02*
X021482Y018509D01*
X021352Y018509D02*
X021315Y018509D01*
X021315Y018391D02*
X021352Y018391D01*
X021352Y018272D02*
X021315Y018272D01*
X021315Y018154D02*
X021352Y018154D01*
X021352Y018035D02*
X021315Y018035D01*
X021315Y017917D02*
X021352Y017917D01*
X021352Y017798D02*
X021315Y017798D01*
X021315Y017680D02*
X021352Y017680D01*
X021352Y017561D02*
X021315Y017561D01*
X021036Y017561D02*
X020554Y017561D01*
X020706Y017680D02*
X020911Y017680D01*
X020842Y017798D02*
X020780Y017798D01*
X020800Y018154D02*
X020826Y018154D01*
X020877Y018272D02*
X020751Y018272D01*
X020636Y018391D02*
X020974Y018391D01*
X021185Y018509D02*
X015070Y018509D01*
X015084Y018542D02*
X015084Y018570D01*
X015908Y018570D01*
X016013Y018675D01*
X016263Y018925D01*
X016263Y020506D01*
X016338Y020580D01*
X016383Y020690D01*
X016383Y020810D01*
X016338Y020920D01*
X016253Y021004D01*
X016143Y021050D01*
X016024Y021050D01*
X015913Y021004D01*
X015829Y020920D01*
X015783Y020810D01*
X015783Y020690D01*
X015829Y020580D01*
X015903Y020506D01*
X015903Y019075D01*
X015759Y018930D01*
X014954Y018930D01*
X014902Y018982D01*
X014811Y019020D01*
X014902Y019057D01*
X015020Y019175D01*
X015084Y019330D01*
X015084Y019497D01*
X015020Y019651D01*
X014902Y019769D01*
X014811Y019807D01*
X014902Y019845D01*
X015020Y019963D01*
X015084Y020117D01*
X015084Y020284D01*
X015020Y020439D01*
X014902Y020557D01*
X014811Y020594D01*
X014902Y020632D01*
X015020Y020750D01*
X015084Y020905D01*
X015084Y021072D01*
X015020Y021226D01*
X014902Y021344D01*
X014811Y021382D01*
X014902Y021420D01*
X015020Y021538D01*
X015084Y021692D01*
X015084Y021859D01*
X015020Y022014D01*
X014902Y022132D01*
X014811Y022169D01*
X014902Y022207D01*
X015020Y022325D01*
X015084Y022479D01*
X015084Y022647D01*
X015020Y022801D01*
X014902Y022919D01*
X014811Y022957D01*
X014902Y022994D01*
X015020Y023112D01*
X015084Y023267D01*
X015084Y023434D01*
X015020Y023588D01*
X014902Y023706D01*
X014811Y023744D01*
X014902Y023782D01*
X015020Y023900D01*
X015084Y024054D01*
X015084Y024221D01*
X015020Y024376D01*
X014902Y024494D01*
X014811Y024531D01*
X014902Y024569D01*
X015020Y024687D01*
X015084Y024842D01*
X015084Y025009D01*
X015020Y025163D01*
X014902Y025281D01*
X014863Y025298D01*
X014905Y025319D01*
X014964Y025362D01*
X015015Y025413D01*
X015057Y025472D01*
X015090Y025536D01*
X015113Y025605D01*
X015124Y025676D01*
X015124Y025694D01*
X014683Y025694D01*
X014683Y025731D01*
X015124Y025731D01*
X015124Y025749D01*
X015113Y025820D01*
X015090Y025889D01*
X015057Y025954D01*
X015015Y026012D01*
X014964Y026063D01*
X014905Y026106D01*
X014841Y026139D01*
X014772Y026161D01*
X014700Y026173D01*
X014683Y026173D01*
X014683Y025731D01*
X014645Y025731D01*
X014645Y025694D01*
X014204Y025694D01*
X014204Y025676D01*
X014215Y025605D01*
X014238Y025536D01*
X014271Y025472D01*
X014313Y025413D01*
X014364Y025362D01*
X014423Y025319D01*
X014465Y025298D01*
X014426Y025281D01*
X014308Y025163D01*
X014244Y025009D01*
X014244Y024842D01*
X014308Y024687D01*
X014426Y024569D01*
X014517Y024531D01*
X014426Y024494D01*
X014308Y024376D01*
X014244Y024221D01*
X014244Y024054D01*
X014308Y023900D01*
X014426Y023782D01*
X014517Y023744D01*
X014426Y023706D01*
X014308Y023588D01*
X014244Y023434D01*
X014244Y023267D01*
X014308Y023112D01*
X014426Y022994D01*
X014517Y022957D01*
X014426Y022919D01*
X014308Y022801D01*
X014244Y022647D01*
X014244Y022479D01*
X014308Y022325D01*
X014426Y022207D01*
X014517Y022169D01*
X014426Y022132D01*
X014308Y022014D01*
X014244Y021859D01*
X014244Y021692D01*
X014308Y021538D01*
X014426Y021420D01*
X014517Y021382D01*
X014426Y021344D01*
X014308Y021226D01*
X014244Y021072D01*
X014244Y020905D01*
X014308Y020750D01*
X014426Y020632D01*
X014517Y020594D01*
X014426Y020557D01*
X014308Y020439D01*
X014244Y020284D01*
X014244Y020117D01*
X014308Y019963D01*
X014426Y019845D01*
X014517Y019807D01*
X014426Y019769D01*
X014308Y019651D01*
X014244Y019497D01*
X014244Y019330D01*
X014308Y019175D01*
X014426Y019057D01*
X014517Y019020D01*
X014426Y018982D01*
X014308Y018864D01*
X014244Y018710D01*
X014244Y018542D01*
X014308Y018388D01*
X014426Y018270D01*
X014580Y018206D01*
X014748Y018206D01*
X014902Y018270D01*
X015020Y018388D01*
X015084Y018542D01*
X015021Y018391D02*
X020031Y018391D01*
X019916Y018272D02*
X014904Y018272D01*
X014424Y018272D02*
X006243Y018272D01*
X006241Y018270D02*
X006359Y018388D01*
X006423Y018542D01*
X006423Y018710D01*
X006359Y018864D01*
X006241Y018982D01*
X006150Y019020D01*
X006241Y019057D01*
X006359Y019175D01*
X006423Y019330D01*
X006423Y019497D01*
X006359Y019651D01*
X006241Y019769D01*
X006150Y019807D01*
X006241Y019845D01*
X006359Y019963D01*
X006423Y020117D01*
X006423Y020284D01*
X006359Y020439D01*
X006241Y020557D01*
X006150Y020594D01*
X006241Y020632D01*
X006359Y020750D01*
X006423Y020905D01*
X006423Y021072D01*
X006359Y021226D01*
X006241Y021344D01*
X006150Y021382D01*
X006241Y021420D01*
X006359Y021538D01*
X006423Y021692D01*
X006423Y021859D01*
X006359Y022014D01*
X006241Y022132D01*
X006150Y022169D01*
X006241Y022207D01*
X006359Y022325D01*
X006423Y022479D01*
X006423Y022647D01*
X006359Y022801D01*
X006241Y022919D01*
X006150Y022957D01*
X006241Y022994D01*
X006359Y023112D01*
X006423Y023267D01*
X006423Y023434D01*
X006359Y023588D01*
X006241Y023706D01*
X006150Y023744D01*
X006241Y023782D01*
X006359Y023900D01*
X006423Y024054D01*
X006423Y024221D01*
X006359Y024376D01*
X006241Y024494D01*
X006150Y024531D01*
X006241Y024569D01*
X006359Y024687D01*
X006423Y024842D01*
X006423Y025009D01*
X006359Y025163D01*
X006241Y025281D01*
X006150Y025319D01*
X006241Y025357D01*
X006359Y025475D01*
X006423Y025629D01*
X006423Y025796D01*
X006359Y025951D01*
X006241Y026069D01*
X006086Y026133D01*
X005919Y026133D01*
X005765Y026069D01*
X005647Y025951D01*
X005583Y025796D01*
X005583Y025629D01*
X005647Y025475D01*
X005765Y025357D01*
X005856Y025319D01*
X005765Y025281D01*
X005647Y025163D01*
X005583Y025009D01*
X005583Y024842D01*
X005647Y024687D01*
X005765Y024569D01*
X005856Y024531D01*
X005765Y024494D01*
X005647Y024376D01*
X005583Y024221D01*
X005583Y024054D01*
X005647Y023900D01*
X005765Y023782D01*
X005856Y023744D01*
X005765Y023706D01*
X005647Y023588D01*
X005583Y023434D01*
X005583Y023267D01*
X005647Y023112D01*
X005765Y022994D01*
X005856Y022957D01*
X005765Y022919D01*
X005647Y022801D01*
X005583Y022647D01*
X005583Y022479D01*
X005647Y022325D01*
X005765Y022207D01*
X005856Y022169D01*
X005765Y022132D01*
X005647Y022014D01*
X005583Y021859D01*
X005583Y021692D01*
X005647Y021538D01*
X005765Y021420D01*
X005856Y021382D01*
X005765Y021344D01*
X005647Y021226D01*
X005583Y021072D01*
X005583Y020905D01*
X005647Y020750D01*
X005765Y020632D01*
X005856Y020594D01*
X005765Y020557D01*
X005647Y020439D01*
X005583Y020284D01*
X005583Y020117D01*
X005647Y019963D01*
X005765Y019845D01*
X005856Y019807D01*
X005765Y019769D01*
X005647Y019651D01*
X005583Y019497D01*
X005583Y019330D01*
X005647Y019175D01*
X005765Y019057D01*
X005856Y019020D01*
X005765Y018982D01*
X005647Y018864D01*
X005583Y018710D01*
X005583Y018542D01*
X005647Y018388D01*
X005765Y018270D01*
X005919Y018206D01*
X006086Y018206D01*
X006241Y018270D01*
X006360Y018391D02*
X014307Y018391D01*
X014258Y018509D02*
X006409Y018509D01*
X006423Y018628D02*
X014244Y018628D01*
X014259Y018746D02*
X006408Y018746D01*
X006358Y018865D02*
X014309Y018865D01*
X014429Y018983D02*
X006238Y018983D01*
X006285Y019102D02*
X014382Y019102D01*
X014290Y019220D02*
X006377Y019220D01*
X006423Y019339D02*
X014244Y019339D01*
X014244Y019457D02*
X006423Y019457D01*
X006390Y019576D02*
X014277Y019576D01*
X014351Y019694D02*
X006316Y019694D01*
X006163Y019813D02*
X014504Y019813D01*
X014340Y019931D02*
X006327Y019931D01*
X006395Y020050D02*
X014272Y020050D01*
X014244Y020168D02*
X006423Y020168D01*
X006422Y020287D02*
X014245Y020287D01*
X014294Y020405D02*
X006373Y020405D01*
X006274Y020524D02*
X014393Y020524D01*
X014416Y020642D02*
X006250Y020642D01*
X006363Y020761D02*
X014304Y020761D01*
X014255Y020879D02*
X006412Y020879D01*
X006423Y020998D02*
X014244Y020998D01*
X014262Y021116D02*
X006404Y021116D01*
X006350Y021235D02*
X014316Y021235D01*
X014447Y021353D02*
X006219Y021353D01*
X006293Y021472D02*
X014374Y021472D01*
X014286Y021590D02*
X006380Y021590D01*
X006423Y021709D02*
X014244Y021709D01*
X014244Y021827D02*
X006423Y021827D01*
X006387Y021946D02*
X014280Y021946D01*
X014359Y022064D02*
X006308Y022064D01*
X006182Y022183D02*
X014485Y022183D01*
X014332Y022301D02*
X006335Y022301D01*
X006398Y022420D02*
X014269Y022420D01*
X014244Y022538D02*
X006423Y022538D01*
X006418Y022657D02*
X014248Y022657D01*
X014297Y022775D02*
X006369Y022775D01*
X006266Y022894D02*
X014401Y022894D01*
X014408Y023012D02*
X006258Y023012D01*
X006366Y023131D02*
X014301Y023131D01*
X014251Y023249D02*
X006415Y023249D01*
X006423Y023368D02*
X014244Y023368D01*
X014266Y023486D02*
X006401Y023486D01*
X006342Y023605D02*
X014324Y023605D01*
X014466Y023723D02*
X006200Y023723D01*
X006300Y023842D02*
X014366Y023842D01*
X014283Y023960D02*
X006384Y023960D01*
X006423Y024079D02*
X014244Y024079D01*
X014244Y024197D02*
X006423Y024197D01*
X006384Y024316D02*
X014283Y024316D01*
X014366Y024434D02*
X006300Y024434D01*
X006200Y024553D02*
X014466Y024553D01*
X014324Y024671D02*
X006342Y024671D01*
X006401Y024790D02*
X014266Y024790D01*
X014244Y024908D02*
X006423Y024908D01*
X006415Y025027D02*
X014251Y025027D01*
X014301Y025145D02*
X006366Y025145D01*
X006258Y025264D02*
X014408Y025264D01*
X014344Y025382D02*
X006266Y025382D01*
X006369Y025501D02*
X014256Y025501D01*
X014213Y025619D02*
X006418Y025619D01*
X006423Y025738D02*
X014204Y025738D01*
X014204Y025731D02*
X014645Y025731D01*
X014645Y026173D01*
X014628Y026173D01*
X014556Y026161D01*
X014487Y026139D01*
X014423Y026106D01*
X014364Y026063D01*
X014313Y026012D01*
X014271Y025954D01*
X014238Y025889D01*
X014215Y025820D01*
X014204Y025749D01*
X014204Y025731D01*
X014227Y025856D02*
X006398Y025856D01*
X006335Y025975D02*
X014286Y025975D01*
X014405Y026093D02*
X006182Y026093D01*
X005824Y026093D02*
X003093Y026093D01*
X003093Y025975D02*
X005671Y025975D01*
X005607Y025856D02*
X003093Y025856D01*
X003093Y025738D02*
X005583Y025738D01*
X005587Y025619D02*
X003093Y025619D01*
X003093Y025501D02*
X005636Y025501D01*
X005739Y025382D02*
X003093Y025382D01*
X003093Y025264D02*
X005747Y025264D01*
X005639Y025145D02*
X003093Y025145D01*
X003093Y025027D02*
X005590Y025027D01*
X005583Y024908D02*
X003093Y024908D01*
X003093Y024790D02*
X005604Y024790D01*
X005663Y024671D02*
X003093Y024671D01*
X003093Y024553D02*
X005805Y024553D01*
X005705Y024434D02*
X003093Y024434D01*
X003093Y024316D02*
X005622Y024316D01*
X005583Y024197D02*
X003093Y024197D01*
X003093Y024079D02*
X005583Y024079D01*
X005622Y023960D02*
X003093Y023960D01*
X003093Y023842D02*
X005705Y023842D01*
X005805Y023723D02*
X003093Y023723D01*
X003093Y023605D02*
X005663Y023605D01*
X005604Y023486D02*
X003093Y023486D01*
X003093Y023368D02*
X005583Y023368D01*
X005590Y023249D02*
X003093Y023249D01*
X003093Y023131D02*
X005639Y023131D01*
X005747Y023012D02*
X003093Y023012D01*
X003093Y022894D02*
X005739Y022894D01*
X005636Y022775D02*
X003093Y022775D01*
X003093Y022657D02*
X005587Y022657D01*
X005583Y022538D02*
X003093Y022538D01*
X003093Y022420D02*
X005607Y022420D01*
X005671Y022301D02*
X003093Y022301D01*
X003093Y022183D02*
X005824Y022183D01*
X005697Y022064D02*
X003093Y022064D01*
X003093Y021946D02*
X005618Y021946D01*
X005583Y021827D02*
X003093Y021827D01*
X003093Y021709D02*
X005583Y021709D01*
X005625Y021590D02*
X003093Y021590D01*
X003093Y021472D02*
X005713Y021472D01*
X005786Y021353D02*
X003093Y021353D01*
X003093Y021235D02*
X005655Y021235D01*
X005601Y021116D02*
X003093Y021116D01*
X003093Y020998D02*
X005583Y020998D01*
X005593Y020879D02*
X003093Y020879D01*
X003093Y020761D02*
X005642Y020761D01*
X005755Y020642D02*
X003093Y020642D01*
X003093Y020524D02*
X005731Y020524D01*
X005633Y020405D02*
X003093Y020405D01*
X003093Y020287D02*
X005584Y020287D01*
X005583Y020168D02*
X003093Y020168D01*
X003093Y020050D02*
X005611Y020050D01*
X005678Y019931D02*
X003093Y019931D01*
X003093Y019813D02*
X005842Y019813D01*
X005689Y019694D02*
X003093Y019694D01*
X003093Y019576D02*
X005615Y019576D01*
X005583Y019457D02*
X003093Y019457D01*
X003093Y019339D02*
X005583Y019339D01*
X005628Y019220D02*
X003093Y019220D01*
X003093Y019102D02*
X005721Y019102D01*
X005767Y018983D02*
X003093Y018983D01*
X003093Y018865D02*
X005647Y018865D01*
X005598Y018746D02*
X003093Y018746D01*
X003093Y018628D02*
X005583Y018628D01*
X005596Y018509D02*
X003093Y018509D01*
X003093Y018391D02*
X005646Y018391D01*
X005763Y018272D02*
X003093Y018272D01*
X003093Y018154D02*
X019867Y018154D01*
X019843Y018035D02*
X003093Y018035D01*
X003093Y017917D02*
X019843Y017917D01*
X019887Y017798D02*
X003093Y017798D01*
X003093Y017680D02*
X019961Y017680D01*
X021631Y017561D02*
X022113Y017561D01*
X021961Y017680D02*
X021756Y017680D01*
X021825Y017798D02*
X021887Y017798D01*
X021867Y018154D02*
X021841Y018154D01*
X021790Y018272D02*
X021916Y018272D01*
X022031Y018391D02*
X021692Y018391D01*
X020753Y019496D02*
X020838Y019580D01*
X020883Y019690D01*
X020883Y019810D01*
X020838Y019920D01*
X020763Y019994D01*
X020763Y021506D01*
X020838Y021580D01*
X020883Y021690D01*
X020883Y021810D01*
X020838Y021920D01*
X020753Y022004D01*
X020643Y022050D01*
X020524Y022050D01*
X020413Y022004D01*
X020329Y021920D01*
X020283Y021810D01*
X020283Y021690D01*
X020329Y021580D01*
X020403Y021506D01*
X020403Y019994D01*
X020329Y019920D01*
X020283Y019810D01*
X020283Y019690D01*
X020329Y019580D01*
X020413Y019496D01*
X020524Y019450D01*
X020643Y019450D01*
X020753Y019496D01*
X020660Y019457D02*
X030065Y019457D01*
X030065Y019339D02*
X016263Y019339D01*
X016263Y019457D02*
X020507Y019457D01*
X020334Y019576D02*
X016263Y019576D01*
X016263Y019694D02*
X020283Y019694D01*
X020285Y019813D02*
X016263Y019813D01*
X016263Y019931D02*
X020340Y019931D01*
X020403Y020050D02*
X016263Y020050D01*
X016263Y020168D02*
X020403Y020168D01*
X020403Y020287D02*
X016263Y020287D01*
X016263Y020405D02*
X020403Y020405D01*
X020403Y020524D02*
X016281Y020524D01*
X016363Y020642D02*
X020403Y020642D01*
X020403Y020761D02*
X016383Y020761D01*
X016355Y020879D02*
X020403Y020879D01*
X020403Y020998D02*
X016260Y020998D01*
X016083Y020750D02*
X016083Y019000D01*
X015833Y018750D01*
X014788Y018750D01*
X014664Y018626D01*
X014900Y018983D02*
X015812Y018983D01*
X015903Y019102D02*
X014946Y019102D01*
X015039Y019220D02*
X015903Y019220D01*
X015903Y019339D02*
X015084Y019339D01*
X015084Y019457D02*
X015903Y019457D01*
X015903Y019576D02*
X015051Y019576D01*
X014977Y019694D02*
X015903Y019694D01*
X015903Y019813D02*
X014824Y019813D01*
X014988Y019931D02*
X015903Y019931D01*
X015903Y020050D02*
X015056Y020050D01*
X015084Y020168D02*
X015903Y020168D01*
X015903Y020287D02*
X015083Y020287D01*
X015034Y020405D02*
X015903Y020405D01*
X015886Y020524D02*
X014935Y020524D01*
X014912Y020642D02*
X015803Y020642D01*
X015783Y020761D02*
X015024Y020761D01*
X015073Y020879D02*
X015812Y020879D01*
X015907Y020998D02*
X015084Y020998D01*
X015066Y021116D02*
X020403Y021116D01*
X020403Y021235D02*
X015012Y021235D01*
X014881Y021353D02*
X020403Y021353D01*
X020403Y021472D02*
X014954Y021472D01*
X015042Y021590D02*
X020325Y021590D01*
X020283Y021709D02*
X015084Y021709D01*
X015084Y021827D02*
X020291Y021827D01*
X020355Y021946D02*
X015048Y021946D01*
X014970Y022064D02*
X030065Y022064D01*
X030065Y021946D02*
X020812Y021946D01*
X020876Y021827D02*
X030065Y021827D01*
X030065Y021709D02*
X020883Y021709D01*
X020842Y021590D02*
X030065Y021590D01*
X030065Y021472D02*
X020763Y021472D01*
X020763Y021353D02*
X030065Y021353D01*
X030065Y021235D02*
X020763Y021235D01*
X020763Y021116D02*
X030065Y021116D01*
X030065Y020998D02*
X020763Y020998D01*
X020763Y020879D02*
X030065Y020879D01*
X030065Y020761D02*
X020763Y020761D01*
X020763Y020642D02*
X030065Y020642D01*
X030065Y020524D02*
X020763Y020524D01*
X020763Y020405D02*
X030065Y020405D01*
X030065Y020287D02*
X020763Y020287D01*
X020763Y020168D02*
X030065Y020168D01*
X030065Y020050D02*
X020763Y020050D01*
X020827Y019931D02*
X030065Y019931D01*
X030065Y019813D02*
X020882Y019813D01*
X020883Y019694D02*
X030065Y019694D01*
X030065Y019576D02*
X020833Y019576D01*
X020583Y019750D02*
X020583Y021750D01*
X022089Y023320D02*
X022163Y023246D01*
X022274Y023200D01*
X022393Y023200D01*
X022503Y023246D01*
X022588Y023330D01*
X022633Y023440D01*
X022633Y023560D01*
X022588Y023670D01*
X022503Y023754D01*
X022393Y023800D01*
X022274Y023800D01*
X022163Y023754D01*
X022089Y023680D01*
X017908Y023680D01*
X017513Y024075D01*
X017513Y025925D01*
X017908Y026320D01*
X018843Y026320D01*
X018843Y026297D01*
X019112Y026028D01*
X018803Y025720D01*
X018803Y025540D01*
X019293Y025540D01*
X019293Y025460D01*
X018803Y025460D01*
X018803Y025280D01*
X019114Y024970D01*
X019293Y024970D01*
X019293Y025460D01*
X019373Y025460D01*
X019373Y024970D01*
X019553Y024970D01*
X019862Y025279D01*
X020130Y025010D01*
X020153Y025010D01*
X020153Y024925D01*
X020759Y024320D01*
X024589Y024320D01*
X024663Y024246D01*
X024774Y024200D01*
X024893Y024200D01*
X025003Y024246D01*
X025088Y024330D01*
X025133Y024440D01*
X025133Y024560D01*
X025088Y024670D01*
X025003Y024754D01*
X024893Y024800D01*
X024774Y024800D01*
X024663Y024754D01*
X024589Y024680D01*
X020908Y024680D01*
X020557Y025031D01*
X020823Y025297D01*
X020823Y025703D01*
X020536Y025990D01*
X020130Y025990D01*
X019862Y025721D01*
X019555Y026028D01*
X019823Y026297D01*
X019823Y026703D01*
X019536Y026990D01*
X019130Y026990D01*
X018843Y026703D01*
X018843Y026680D01*
X017759Y026680D01*
X017653Y026575D01*
X017153Y026075D01*
X017153Y023925D01*
X017259Y023820D01*
X017759Y023320D01*
X022089Y023320D01*
X022160Y023249D02*
X015077Y023249D01*
X015084Y023368D02*
X017711Y023368D01*
X017593Y023486D02*
X015062Y023486D01*
X015004Y023605D02*
X017474Y023605D01*
X017356Y023723D02*
X014862Y023723D01*
X014962Y023842D02*
X017237Y023842D01*
X017153Y023960D02*
X015045Y023960D01*
X015084Y024079D02*
X017153Y024079D01*
X017153Y024197D02*
X015084Y024197D01*
X015045Y024316D02*
X017153Y024316D01*
X017153Y024434D02*
X014962Y024434D01*
X014862Y024553D02*
X017153Y024553D01*
X017153Y024671D02*
X015004Y024671D01*
X015062Y024790D02*
X017153Y024790D01*
X017153Y024908D02*
X015084Y024908D01*
X015077Y025027D02*
X017153Y025027D01*
X017153Y025145D02*
X015028Y025145D01*
X014920Y025264D02*
X017153Y025264D01*
X017153Y025382D02*
X014984Y025382D01*
X015072Y025501D02*
X017153Y025501D01*
X017153Y025619D02*
X015115Y025619D01*
X015124Y025738D02*
X017153Y025738D01*
X017153Y025856D02*
X015101Y025856D01*
X015042Y025975D02*
X017153Y025975D01*
X017172Y026093D02*
X014923Y026093D01*
X014683Y026093D02*
X014645Y026093D01*
X014645Y025975D02*
X014683Y025975D01*
X014683Y025856D02*
X014645Y025856D01*
X014645Y025738D02*
X014683Y025738D01*
X015028Y023131D02*
X030065Y023131D01*
X030065Y023249D02*
X022507Y023249D01*
X022603Y023368D02*
X030065Y023368D01*
X030065Y023486D02*
X022633Y023486D01*
X022615Y023605D02*
X030065Y023605D01*
X030065Y023723D02*
X022535Y023723D01*
X022333Y023500D02*
X017833Y023500D01*
X017333Y024000D01*
X017333Y026000D01*
X017833Y026500D01*
X019333Y026500D01*
X019823Y026449D02*
X019843Y026449D01*
X019843Y026567D02*
X019823Y026567D01*
X019823Y026686D02*
X019843Y026686D01*
X019843Y026703D02*
X019843Y026297D01*
X020130Y026010D01*
X020536Y026010D01*
X020823Y026297D01*
X020823Y026703D01*
X020536Y026990D01*
X020130Y026990D01*
X019843Y026703D01*
X019944Y026804D02*
X019722Y026804D01*
X019604Y026923D02*
X020063Y026923D01*
X020604Y026923D02*
X021063Y026923D01*
X021130Y026990D02*
X020843Y026703D01*
X020843Y026297D01*
X021130Y026010D01*
X021536Y026010D01*
X021823Y026297D01*
X021823Y026320D01*
X025759Y026320D01*
X026153Y025925D01*
X026153Y024744D01*
X026079Y024670D01*
X026033Y024560D01*
X026033Y024440D01*
X026079Y024330D01*
X026163Y024246D01*
X026274Y024200D01*
X026393Y024200D01*
X026503Y024246D01*
X026588Y024330D01*
X026633Y024440D01*
X026633Y024560D01*
X026588Y024670D01*
X026513Y024744D01*
X026513Y026075D01*
X026013Y026575D01*
X025908Y026680D01*
X021823Y026680D01*
X021823Y026703D01*
X021536Y026990D01*
X021130Y026990D01*
X020944Y026804D02*
X020722Y026804D01*
X020823Y026686D02*
X020843Y026686D01*
X020843Y026567D02*
X020823Y026567D01*
X020823Y026449D02*
X020843Y026449D01*
X020843Y026330D02*
X020823Y026330D01*
X020738Y026212D02*
X020929Y026212D01*
X021047Y026093D02*
X020619Y026093D01*
X020552Y025975D02*
X021115Y025975D01*
X021130Y025990D02*
X020843Y025703D01*
X020843Y025297D01*
X021130Y025010D01*
X021536Y025010D01*
X021823Y025297D01*
X021823Y025703D01*
X021536Y025990D01*
X021130Y025990D01*
X020996Y025856D02*
X020670Y025856D01*
X020789Y025738D02*
X020878Y025738D01*
X020843Y025619D02*
X020823Y025619D01*
X020823Y025501D02*
X020843Y025501D01*
X020843Y025382D02*
X020823Y025382D01*
X020790Y025264D02*
X020877Y025264D01*
X020995Y025145D02*
X020671Y025145D01*
X020561Y025027D02*
X021114Y025027D01*
X020798Y024790D02*
X024748Y024790D01*
X024918Y024790D02*
X026153Y024790D01*
X026153Y024908D02*
X020680Y024908D01*
X020333Y025000D02*
X020833Y024500D01*
X024833Y024500D01*
X024594Y024316D02*
X017513Y024316D01*
X017513Y024434D02*
X020645Y024434D01*
X020526Y024553D02*
X017513Y024553D01*
X017513Y024671D02*
X020408Y024671D01*
X020289Y024790D02*
X017513Y024790D01*
X017513Y024908D02*
X020171Y024908D01*
X020114Y025027D02*
X019609Y025027D01*
X019728Y025145D02*
X019995Y025145D01*
X019877Y025264D02*
X019846Y025264D01*
X019373Y025264D02*
X019293Y025264D01*
X019293Y025382D02*
X019373Y025382D01*
X019293Y025501D02*
X017513Y025501D01*
X017513Y025619D02*
X018803Y025619D01*
X018821Y025738D02*
X017513Y025738D01*
X017513Y025856D02*
X018940Y025856D01*
X019058Y025975D02*
X017562Y025975D01*
X017681Y026093D02*
X019047Y026093D01*
X018929Y026212D02*
X017799Y026212D01*
X017527Y026449D02*
X003093Y026449D01*
X003093Y026567D02*
X017646Y026567D01*
X017409Y026330D02*
X003093Y026330D01*
X003093Y026212D02*
X017290Y026212D01*
X017513Y025382D02*
X018803Y025382D01*
X018820Y025264D02*
X017513Y025264D01*
X017513Y025145D02*
X018939Y025145D01*
X019057Y025027D02*
X017513Y025027D01*
X017513Y024197D02*
X030065Y024197D01*
X030065Y024079D02*
X017513Y024079D01*
X017628Y023960D02*
X030065Y023960D01*
X030065Y023842D02*
X017746Y023842D01*
X017865Y023723D02*
X022132Y023723D01*
X021553Y025027D02*
X026153Y025027D01*
X026153Y025145D02*
X021671Y025145D01*
X021790Y025264D02*
X026153Y025264D01*
X026153Y025382D02*
X021823Y025382D01*
X021823Y025501D02*
X026153Y025501D01*
X026153Y025619D02*
X021823Y025619D01*
X021789Y025738D02*
X026153Y025738D01*
X026153Y025856D02*
X021670Y025856D01*
X021552Y025975D02*
X026104Y025975D01*
X025986Y026093D02*
X021619Y026093D01*
X021738Y026212D02*
X025867Y026212D01*
X025833Y026500D02*
X021333Y026500D01*
X021604Y026923D02*
X030065Y026923D01*
X030065Y027041D02*
X003093Y027041D01*
X003093Y026923D02*
X019063Y026923D01*
X018944Y026804D02*
X003093Y026804D01*
X003093Y026686D02*
X018843Y026686D01*
X019619Y026093D02*
X020047Y026093D01*
X020115Y025975D02*
X019608Y025975D01*
X019727Y025856D02*
X019996Y025856D01*
X019878Y025738D02*
X019845Y025738D01*
X020333Y025500D02*
X020333Y025000D01*
X019373Y025027D02*
X019293Y025027D01*
X019293Y025145D02*
X019373Y025145D01*
X019738Y026212D02*
X019929Y026212D01*
X019843Y026330D02*
X019823Y026330D01*
X021722Y026804D02*
X030065Y026804D01*
X030065Y026686D02*
X021823Y026686D01*
X025073Y024316D02*
X026094Y024316D01*
X026036Y024434D02*
X025131Y024434D01*
X025133Y024553D02*
X026033Y024553D01*
X026080Y024671D02*
X025087Y024671D01*
X026333Y024500D02*
X026333Y026000D01*
X025833Y026500D01*
X026021Y026567D02*
X030065Y026567D01*
X030065Y026449D02*
X026139Y026449D01*
X026258Y026330D02*
X030065Y026330D01*
X030065Y026212D02*
X026376Y026212D01*
X026495Y026093D02*
X030065Y026093D01*
X030065Y025975D02*
X026513Y025975D01*
X026513Y025856D02*
X030065Y025856D01*
X030065Y025738D02*
X026513Y025738D01*
X026513Y025619D02*
X030065Y025619D01*
X030065Y025501D02*
X026513Y025501D01*
X026513Y025382D02*
X030065Y025382D01*
X030065Y025264D02*
X026513Y025264D01*
X026513Y025145D02*
X030065Y025145D01*
X030065Y025027D02*
X026513Y025027D01*
X026513Y024908D02*
X030065Y024908D01*
X030065Y024790D02*
X026513Y024790D01*
X026587Y024671D02*
X030065Y024671D01*
X030065Y024553D02*
X026633Y024553D01*
X026631Y024434D02*
X030065Y024434D01*
X030065Y024316D02*
X026573Y024316D01*
X030065Y023012D02*
X014920Y023012D01*
X014927Y022894D02*
X030065Y022894D01*
X030065Y022775D02*
X015031Y022775D01*
X015080Y022657D02*
X030065Y022657D01*
X030065Y022538D02*
X015084Y022538D01*
X015059Y022420D02*
X030065Y022420D01*
X030065Y022301D02*
X014996Y022301D01*
X014843Y022183D02*
X030065Y022183D01*
X030065Y019220D02*
X016263Y019220D01*
X016263Y019102D02*
X030065Y019102D01*
X030065Y018983D02*
X016263Y018983D01*
X016202Y018865D02*
X030065Y018865D01*
X030065Y018746D02*
X016084Y018746D01*
X015965Y018628D02*
X030065Y018628D01*
X030065Y017324D02*
X003093Y017324D01*
X003093Y017206D02*
X030065Y017206D01*
X030065Y017087D02*
X003093Y017087D01*
X003093Y016969D02*
X030065Y016969D01*
X030065Y016850D02*
X003093Y016850D01*
X003093Y016732D02*
X030065Y016732D01*
X027923Y014717D02*
X027833Y014717D01*
X027715Y014599D02*
X028042Y014599D01*
X028212Y014480D02*
X027596Y014480D01*
X027478Y014362D02*
X028002Y014362D01*
X028218Y011518D02*
X008443Y011518D01*
X008011Y011518D02*
X007629Y011518D01*
X006986Y010688D02*
X003093Y010688D01*
X003093Y010570D02*
X006003Y010570D01*
X006019Y010451D02*
X003093Y010451D01*
X003093Y010333D02*
X006050Y010333D01*
X006096Y010214D02*
X003093Y010214D01*
X003093Y010096D02*
X006160Y010096D01*
X006246Y009977D02*
X003093Y009977D01*
X003093Y009859D02*
X006362Y009859D01*
X006529Y009740D02*
X003093Y009740D01*
X003093Y010807D02*
X006012Y010807D01*
X006037Y010925D02*
X003093Y010925D01*
X003093Y011044D02*
X006077Y011044D01*
X006134Y011162D02*
X003093Y011162D01*
X003093Y011281D02*
X006212Y011281D01*
X006317Y011399D02*
X003093Y011399D01*
X003093Y011518D02*
X005509Y011518D01*
X005464Y011533D02*
X005575Y011494D01*
X005690Y011468D01*
X005805Y011455D01*
X005805Y012440D01*
X004820Y012440D01*
X004833Y012325D01*
X004859Y012210D01*
X004898Y012099D01*
X004949Y011994D01*
X005011Y011894D01*
X005084Y011803D01*
X005167Y011720D01*
X005259Y011646D01*
X005359Y011584D01*
X005464Y011533D01*
X005276Y011636D02*
X003093Y011636D01*
X003093Y011755D02*
X005132Y011755D01*
X005028Y011873D02*
X003093Y011873D01*
X003093Y011992D02*
X004950Y011992D01*
X004894Y012110D02*
X003093Y012110D01*
X003093Y012229D02*
X004855Y012229D01*
X004830Y012347D02*
X003093Y012347D01*
X005805Y012347D02*
X005925Y012347D01*
X005925Y012229D02*
X005805Y012229D01*
X005805Y012110D02*
X005925Y012110D01*
X005925Y011992D02*
X005805Y011992D01*
X005805Y011873D02*
X005925Y011873D01*
X005925Y011755D02*
X005805Y011755D01*
X005805Y011636D02*
X005925Y011636D01*
X005925Y011518D02*
X005805Y011518D01*
X006221Y011518D02*
X006463Y011518D01*
X006986Y010570D02*
X007106Y010570D01*
X007106Y010451D02*
X006986Y010451D01*
X006986Y010333D02*
X007106Y010333D01*
X007106Y010214D02*
X006986Y010214D01*
X006986Y010096D02*
X007106Y010096D01*
X007106Y009977D02*
X006986Y009977D01*
X006986Y009859D02*
X007106Y009859D01*
X007106Y009740D02*
X006986Y009740D01*
X006907Y012584D02*
X007222Y012584D01*
X007241Y012703D02*
X006890Y012703D01*
X006860Y012821D02*
X007273Y012821D01*
X007320Y012940D02*
X006813Y012940D01*
X006748Y013058D02*
X007389Y013058D01*
X007482Y013177D02*
X006662Y013177D01*
X006544Y013295D02*
X007601Y013295D01*
X007799Y013414D02*
X006375Y013414D01*
X005925Y013414D02*
X005805Y013414D01*
X005805Y013295D02*
X005925Y013295D01*
X005925Y013177D02*
X005805Y013177D01*
X005805Y013058D02*
X005925Y013058D01*
X005925Y012940D02*
X005805Y012940D01*
X005805Y012821D02*
X005925Y012821D01*
X005925Y012703D02*
X005805Y012703D01*
X016504Y006541D02*
X017162Y006541D01*
X016981Y006659D02*
X016685Y006659D01*
X016772Y006778D02*
X016895Y006778D01*
X016846Y006896D02*
X016821Y006896D01*
X016823Y007015D02*
X016843Y007015D01*
X016858Y007133D02*
X016809Y007133D01*
X016760Y007252D02*
X016907Y007252D01*
X017010Y007370D02*
X016656Y007370D01*
X017504Y006541D02*
X027423Y006541D01*
X027423Y006659D02*
X017685Y006659D01*
X017772Y006778D02*
X027463Y006778D01*
X027512Y006896D02*
X017821Y006896D01*
X017823Y007015D02*
X027561Y007015D01*
X027679Y007133D02*
X017809Y007133D01*
X017760Y007252D02*
X027798Y007252D01*
X028056Y007370D02*
X017656Y007370D01*
X022275Y009859D02*
X023392Y009859D01*
X023294Y009977D02*
X022373Y009977D01*
X022422Y010096D02*
X023245Y010096D01*
X023233Y010214D02*
X022433Y010214D01*
X022427Y010333D02*
X023240Y010333D01*
X023289Y010451D02*
X022378Y010451D01*
X022287Y010570D02*
X023380Y010570D01*
X023573Y010688D02*
X022094Y010688D01*
X022178Y012347D02*
X023418Y012347D01*
X023297Y012466D02*
X022322Y012466D01*
X022393Y012584D02*
X023230Y012584D01*
X023199Y012703D02*
X022433Y012703D01*
X022433Y012821D02*
X023193Y012821D01*
X023206Y012904D02*
X023232Y012983D01*
X023270Y013058D01*
X023370Y013177D02*
X022240Y013177D01*
X023683Y013177D02*
X023763Y013177D01*
X023763Y013058D02*
X023683Y013058D01*
X023683Y012940D02*
X023763Y012940D01*
X023763Y012821D02*
X023683Y012821D01*
X023683Y012703D02*
X023763Y012703D01*
X023763Y012584D02*
X023683Y012584D01*
X023683Y012466D02*
X023763Y012466D01*
X023763Y012347D02*
X023683Y012347D01*
X028611Y007370D02*
X030065Y007370D01*
X030065Y007252D02*
X028869Y007252D01*
X028987Y007133D02*
X030065Y007133D01*
X030065Y007015D02*
X029105Y007015D01*
X029154Y006896D02*
X030065Y006896D01*
X030065Y006778D02*
X029203Y006778D01*
X029243Y006659D02*
X030065Y006659D01*
X030065Y006541D02*
X029243Y006541D01*
X029243Y006422D02*
X030065Y006422D01*
X030065Y006304D02*
X029237Y006304D01*
X029188Y006185D02*
X030065Y006185D01*
X030065Y006067D02*
X029139Y006067D01*
X029068Y005948D02*
X030065Y005948D01*
X030065Y005830D02*
X028950Y005830D01*
X028806Y005711D02*
X030065Y005711D01*
X030065Y005593D02*
X028520Y005593D01*
X030065Y027160D02*
X003093Y027160D01*
X003093Y027278D02*
X030065Y027278D01*
X030065Y027397D02*
X003093Y027397D01*
X003093Y027515D02*
X030065Y027515D01*
X030065Y027634D02*
X003093Y027634D01*
X003093Y027752D02*
X030065Y027752D01*
X030065Y027871D02*
X003093Y027871D01*
X003093Y027989D02*
X030065Y027989D01*
X030065Y028108D02*
X003093Y028108D01*
X003093Y028226D02*
X030065Y028226D01*
X030065Y028345D02*
X003093Y028345D01*
X003093Y028463D02*
X030065Y028463D01*
X030065Y028582D02*
X003093Y028582D01*
X003093Y028700D02*
X030065Y028700D01*
X030065Y028819D02*
X003093Y028819D01*
X003093Y028937D02*
X030065Y028937D01*
X030065Y029056D02*
X003093Y029056D01*
X003093Y029174D02*
X030065Y029174D01*
X030065Y029293D02*
X003093Y029293D01*
X003093Y029411D02*
X030065Y029411D01*
X030065Y029530D02*
X003093Y029530D01*
X003093Y029648D02*
X030065Y029648D01*
X030065Y029767D02*
X003093Y029767D01*
X003093Y029885D02*
X030065Y029885D01*
X030065Y030004D02*
X003093Y030004D01*
X003093Y030122D02*
X004075Y030122D01*
X004152Y030090D02*
X004514Y030090D01*
X004849Y030229D01*
X005105Y030485D01*
X005243Y030819D01*
X005243Y031181D01*
X005105Y031515D01*
X004849Y031771D01*
X004514Y031910D01*
X004152Y031910D01*
X003818Y031771D01*
X003562Y031515D01*
X003423Y031181D01*
X003423Y030819D01*
X003562Y030485D01*
X003818Y030229D01*
X004152Y030090D01*
X003806Y030241D02*
X003093Y030241D01*
X003093Y030359D02*
X003687Y030359D01*
X003569Y030478D02*
X003093Y030478D01*
X003093Y030596D02*
X003516Y030596D01*
X003467Y030715D02*
X003093Y030715D01*
X003093Y030833D02*
X003423Y030833D01*
X003423Y030952D02*
X003093Y030952D01*
X003093Y031070D02*
X003423Y031070D01*
X003426Y031189D02*
X003093Y031189D01*
X003093Y031307D02*
X003476Y031307D01*
X003525Y031426D02*
X003093Y031426D01*
X003093Y031544D02*
X003590Y031544D01*
X003709Y031663D02*
X003093Y031663D01*
X003093Y031781D02*
X003841Y031781D01*
X004127Y031900D02*
X003093Y031900D01*
X003093Y032018D02*
X030065Y032018D01*
X030065Y031900D02*
X028540Y031900D01*
X028514Y031910D02*
X028152Y031910D01*
X027818Y031771D01*
X027562Y031515D01*
X027423Y031181D01*
X027423Y030819D01*
X027562Y030485D01*
X027818Y030229D01*
X028152Y030090D01*
X028514Y030090D01*
X028849Y030229D01*
X029105Y030485D01*
X029243Y030819D01*
X029243Y031181D01*
X029105Y031515D01*
X028849Y031771D01*
X028514Y031910D01*
X028826Y031781D02*
X030065Y031781D01*
X030065Y031663D02*
X028958Y031663D01*
X029076Y031544D02*
X030065Y031544D01*
X030065Y031426D02*
X029142Y031426D01*
X029191Y031307D02*
X030065Y031307D01*
X030065Y031189D02*
X029240Y031189D01*
X029243Y031070D02*
X030065Y031070D01*
X030065Y030952D02*
X029243Y030952D01*
X029243Y030833D02*
X030065Y030833D01*
X030065Y030715D02*
X029200Y030715D01*
X029151Y030596D02*
X030065Y030596D01*
X030065Y030478D02*
X029098Y030478D01*
X028979Y030359D02*
X030065Y030359D01*
X030065Y030241D02*
X028861Y030241D01*
X028592Y030122D02*
X030065Y030122D01*
X028075Y030122D02*
X004592Y030122D01*
X004861Y030241D02*
X027806Y030241D01*
X027687Y030359D02*
X004979Y030359D01*
X005098Y030478D02*
X027569Y030478D01*
X027516Y030596D02*
X005151Y030596D01*
X005200Y030715D02*
X027467Y030715D01*
X027423Y030833D02*
X005243Y030833D01*
X005243Y030952D02*
X027423Y030952D01*
X027423Y031070D02*
X005243Y031070D01*
X005240Y031189D02*
X027426Y031189D01*
X027476Y031307D02*
X005191Y031307D01*
X005142Y031426D02*
X027525Y031426D01*
X027590Y031544D02*
X005076Y031544D01*
X004958Y031663D02*
X027709Y031663D01*
X027841Y031781D02*
X004826Y031781D01*
X004540Y031900D02*
X028127Y031900D01*
D15*
X026333Y024500D03*
X024833Y024500D03*
X022333Y023500D03*
X020583Y021750D03*
X020583Y019750D03*
X016083Y020750D03*
D16*
X018333Y014500D03*
D17*
X027333Y014500D01*
X027833Y015000D01*
X028333Y015000D01*
M02*
